<mxfile host="app.diagrams.net" agent="Mozilla/5.0 (Windows NT 10.0; Win64; x64) AppleWebKit/537.36 (KHTML, like Gecko) Chrome/131.0.0.0 Safari/537.36" version="25.0.1">
  <diagram name="Page-1" id="5VifisAQ40_3ZrM_E0Ym">
    <mxGraphModel dx="1222" dy="634" grid="1" gridSize="10" guides="1" tooltips="1" connect="1" arrows="1" fold="1" page="1" pageScale="1" pageWidth="827" pageHeight="1169" math="0" shadow="0">
      <root>
        <mxCell id="0" />
        <mxCell id="1" parent="0" />
        <mxCell id="a4GrzqRWb2ZUkxZBiZph-26" value="" style="rounded=0;whiteSpace=wrap;html=1;strokeColor=#FF6392;fontColor=#5AA9E6;fillColor=#FFE45E;" vertex="1" parent="1">
          <mxGeometry x="375" y="10" width="80" height="20" as="geometry" />
        </mxCell>
        <mxCell id="a4GrzqRWb2ZUkxZBiZph-16" value="" style="rounded=0;whiteSpace=wrap;html=1;labelBackgroundColor=none;fillColor=#FFE45E;strokeColor=#FF6392;fontColor=#5AA9E6;" vertex="1" parent="1">
          <mxGeometry x="250" y="92.74" width="340" height="100" as="geometry" />
        </mxCell>
        <mxCell id="a4GrzqRWb2ZUkxZBiZph-17" value="" style="shape=image;verticalLabelPosition=bottom;labelBackgroundColor=none;verticalAlign=top;aspect=fixed;imageAspect=0;image=data:image/png,iVBORw0KGgoAAAANSUhEUgAABRQAAAF7CAYAAACjCwd0AAAAAXNSR0IArs4c6QAAAARnQU1BAACxjwv8YQUAAAAJcEhZcwAAFiUAABYlAUlSJPAAAP+lSURBVHhe7J0FXBTpG8cflZZQbBEM7MLE7u7ubr0uz/91eHqh53nhnX3GeXaciYnd2ImCiS0qjQj+5/fsDC7LLiywAuLz1fmwO7Uz77zzzvv+5olsTrkLPCdBEARBEARBEARBEARBEAQzyK7+FQRBEARBEARBEARBEARBSBYRFAVBEARBEARBEARBEARBMBsRFAVBEARBEARBEARBEARBMBsRFAVBEARBEARBEARBEARBMJsctvaOX6ufhVeIRo0a01tvv0Xu7u50/Phxda7wKpHT0ZHeeustate+PT15/Jhu376tLnl5dOvenYYMHULOzi50/tw5da4gCIIgCIIgCIIgCIL5iIXiK0iTJk3ol9+mUu8+feiTzz6j9z/4QF0ivEr8+OOPfO0GDx5M3yufS5TwVJeknO2+vnQjKIgWL1mqzknMoEGDaOLEidSnT1/65ttvqVfv3uqS9OPDjz6igCtX6cLFiyxuvspo54Jy158wD8uMUa9+PTridzTRNpiSunavMkOGDlXq5w66cu0anyfqqiAIgiAIgiAIgvBqI4KiyvCKpel43w70fb1q6pzMS9FixcjRISd/trO1pcKFC/Pnl8WkyZPp2MkTtHDRP+qc5IEF5b9LltD5Cxfo+s2bLCRAUDh6/Bj9NHkSFSpUSF3TcnTo0IE2+fiQ34njr4RY5VakCGXLlo0/u7rmpkKFC/Lnl4VHUQ+yUeoLsLd3oCLK72clUlNPLcHz588pMiKCwsPCdFN4GD19+lRdmpCYmBhlud66yvTs2TN1adbj43Hj6NPPP6fSpctQjhw5uJwiIyPVpYIgCIIgCIIgCMKrigiKKh1LuJNnLmeyyWGlzsm87N61m86eO0dxcXF04/p12rhhg7rk5VCtenXKlzcfWeWwVuckzZg33qC/ZvxFDRo0IEcnp3jRzMrKigrkL0C9e/eheQsWUOnSpXm+pShdpowylaWc9g7qnMzNju3bKTQ0hJ4+jaE9u/bQvr371CUvhx07dtC1a9e43vj7X6R1a9eqS7IGKa2nliIiPJw++eQTKqvUP0yVK1ak33/7TV2akMOHDlPjhg3j18UUGBioLs1awOK2bbt2/NID7vzDhw2j0qVKUfu2bdU1BEEQBEEQBEEQhFcVERRfQQIDA6hLp05U1N2d6tapQ76ZyIWwWrVqNGDAAHJycqbg4GD6ZcoU8q5Rg9zd3Ojtt94if39/Xq9UqVKvvMtrWoHoVL5sOfIsXow++OB9de7LA4IlxCzUmzatWsVfC0F4GVT2qkz58+djwXzpkiW0ZfNmdYkgCIIgCIIgCILwqiOComBRatWuTfny52c3zhXLl9GUn3+OTzayZvVqFtFCQkLI2tqairi783xBELIecHHOni07xTyNpqtXr6pzBUEQBEEQBEEQhKyA2YJirYL56L+OTenOyF4U8kY/ejymL50b2IU+rlGRnGyMuxhWzudKK9s3SbTNN3WqGt2mhUdhujuyNx3s3Y5c7Wyos6cH+fXtyNs9Uba/MKgLjfEqSzoH2sRgnzieswM608PRffg3MQUN70kHerWjynlzq2u++C1tncZFdPHrRlQsFT9Pf0KMRUuQXPIMbblh4gJTyRySSgABtMQR2Bb7+PyLzznGIOIaYjpz7hxNnTqVMw5rGCab0FyT6zeon+C3tQmx6zTs7OwoW7bsFBf3nKKiotW5L3j48CFFRUfxZ7iKphWtvDC99/77ZKPUAZzL1F9/TXCMmLQySAuwqkRCEfxu127d6NDhw1yOJ06dogEDBhqdpw/KyvC4MBleb1MgEc+mzZvp0uXL8dteCgigEiVKqGskRDte/d/C9LKToiBGJuoVYhpevX6dfxN/R48ZQ9bWxsMKoJ59N3Ei7dy9m89JO1Z83rp9O5+7Pmmppxp9+/bjWJ+nzpxJcJz4/utvv72UWJ+CIAiCIAiCIAiC8KqTrKBolyMH/d6kFm3u0oKaFClEDlY6MSB7tmxUxNGBPvf2ol6li/M8DQh+EPa2d23Fwp3hNu9XLU97e7ShMrmdeb4h1tlz0Pf1qtO8lvWpVC4n3g77LJzTgb6rU5VGe5XVrahHfns72tipBR+Pu1NOZR8vTg1CYwkXJyrgYK/Oef3IrlzHDz8aSyNHjab8+fJzXENMLi4u1LlrV5rw3XfqmmnjxPHjFBL6hIW9Nm3bUp26ddQlOropv5U3T14WE8+cPq3OffWA9dWbb71Jhd3cuBzz5MlDPXv3ovfeey/BvMFDBycQa9PCL79Mpe9/+IEqVqxIdvYv6jJEXMSnzCwgC/nqNWuoW48eHNMQZQXwVyc4G38l8M234zkTtaenJ6+ngc9ly5al8RMmcJIPSwFB9cuvvuRYn7lz505wnPgOcXj+woUWj/UpCIIgCIIgCIIgCK86yQqK42pWooHlSrIIcPjuA2q8wodc/lxErtMXU8MVm2jjlZsUFZswS2kXTw/6qHpFssmRnfYE3aXaSzaQs7JN0bnL6dcT5yk6No6KuzjRb41rsWBpCETEPmVKUHDUUxq9Yz//Vq0l6+nCoycsFA4q58kWjPq8XbU8eeXLTQ8io+kN3wOUf8YS/k1sW23ROnp75yE6+/CxujbR1uu3qMBM3TqYdt68w/NnnbkUP09/mn0mY+PNIf5dzeq6WISYpv7yC8cmMxeIiDVr1mQhb968eRzXcOxHH9Hdu3dYQKnXoH689d7PkydzXD/tt7RYe3v37I2fpz9hPxqI57jk38UUFR3NcRLnzJ1LU6b8wuIMMjB3Va3iNm3cSPPnz+fPaaFZkybxx6GVCTLnvvfuuwmOERPKz1KJT4oXL85JJ1avWkV/K+cIF+/y5SuQWxH3BPNcXfNQnTovRFWUlf4xmRvH8P0PPqD2nTrytbp8+TJ99smnnNAD1/HLL76gO3d0buWGrFyxgtfTfm/J4sXqkpcDyuR/n37KGayjoqJo1cqVnIQDv927V0++7qayGj+LjeHyQP3EutgG5/fr1KmcvAbJPTp27EheXl68flrqqcaTkBDatm0bl6EW63Ng//505MgRzt4MMbFfv37q2oIgCIIgCIIgCIIggCQFRbgsD4aYqHzedv0WtV+zjY7de0jPle/P4uLoxL1g6r1pF/1z/kWW0pzWVvRmlXIsFO68eZu6rfelc8E6Ie9R1FP6Yv8xGn/oJG9fJV8eauBWgJcZcjs8gjqu3U7/XrjC654PfkK/Hz/PnwvY21M++xcWTMBLdWfeFXSHjycqNpa/Y/3LT0Jomf8VuqXs83UmJOQJTfhuAn3x2Wcc1xDi0pYtWzjrr7OTMxUpYpmYhj/9+CP98vPP9ODBA07O0qNXT3YfrVipEsdPnPbHH2zJ9yqTPXt2zrD9x++/08mTJyk6KoqtMoNu3kgwz97Ojq1A0wJEuk6dO7OgdumSP40aMYIWLJjPwimuI8TLkJBQde2MpVfvXiwkQ9idPWsWvfvOO1wWAGLuxYsX2R3eGAP69WeBGPVTE35xfpMnTaI1a9ZwPc2bNy+VVPZvCSC21qpZk4YMGsRlqMX6hCj+3bff0q2gIBZwkTn8VaT+kK/prdV3zJp6TdmmbmU5PDw8yMrahuKex1Gs2h4LgiAIgiAIgiAIWYMkBcUW7oUoj70tPYyMpm8OnYwX6ZKicl5XdmV+GhtH885eNrrN8ktX6UZoONlb5aA6hfKpc18Q+SyW3t99hM48fKTO0XEnIpJi4p6Tg7UVeTgldCO9qywDjdwKUrviRUzGWXxdgcCzYP4CWrhwgTpHx8MHD+mZUt4Y+BcpUkSdm3ZgRffkyRO28tLH1s6O3N3dLeYGnFHExMTQpk2bElgYGptnCWp616RCBQuyZd9OX1+L79+SVKlSlRPu3Aq6ScuXLVfnph2tnqYXx44do/CI1/sFRFpAtveGjRqRra0NBQXdolMnT6lLBEEQBEEQBEEQhKxAkoJitfx5+O+lJyF0UbUyTI5izo4cMzHkaQydfmB8G1gfXgvVJeQokzux9VZ4zDPyDw5Rv5nHr8fP837z2tvS4jaN6OLgrjS5QU0q75pLXeP1BplWIfKlB2PeeIOm/jqVY+GFhYWyCysmzW21c5cutGDBglc6Nt3T6OhEwp6xeZYAQi8EX93+L6lzMyd58+Xlv7du3abAwAD+nBIaNWpMs2bPpn3793PiGG0aPXq0yWQuaQHCNpK7rN+4kU6ePp3gN00lunlV2Pv31/RHl4JmTUs/aK5ulTZQjheVe2DVmjVUvXp1tvL8688/U1UXBEEQBEEQBEEQhMxLkoKilok56lksxz00B7g8W+klREkOUxmiUwqsGdus2Ubbb9yimLg4KuhgTyMrleaM0ecHduHEMWK1+PJp3aYNjRw1il2d4UL63rvvsQsrpmFDh9KlS5cI8Tir16hBAwYNUrcSkqJgwYLsTg1rT1PxBzMDiMHp7OzEn+GenFJ+mjyJ5s6bx3XIo2hRFvu0CUloTCVzSS1IHgOLUmQHR1xGV1fXBL+ZmRLdvCrYK9fJIWdOdhWPjo6mBw8eKu3ALXWpIAiCIAiCIAiCkFUwS/nTsiybA2IWGo+Q9gLsC/sEmquyJQh8Ekpd1vmSx5zl9OaOg3T8XjCLi26ODvRn09pGs0MLlqVxk8ac3Rgu1kuXLKEtmzerS4gO7D9Av/36K7tCQ3CoW7cOCzdC0iDBTWoEuvQmLDSMnsWkTvBEdudOHTuxcHr92jX66ssvEySTSWkSInN46+23qXiJErzf9evXxyeP0abM7FqeWUEMTFw3XL8nTx5TZa/K9O347zgOqCAIgiAIgiAIgpB1SFJQPK9mRfZ0caJiymQO10LCKCLmGTnbWFOlvMbdjYs45aQS6v4uBD/hv5YELtMLLwRQoxWbqPq/6zi7s6ns0IY426SPVZKdQVIZABdgW5ukjy8jMXbMhhT1KMaWZEgAoyXj0GfN6tV09+5d/uzs7ExVqugy9loSJExxcjKvvr4KPH70KD7OJRJdGDJgwEAqWNB4cqP0BNc7IlL3gkBzfdYH4jEsU425LnvXrs2WbRCbJ02aRHPnzOGkM6nBnHravEULKuGpE7n27NlNY0aNMlpfX2UyKikLrhuu39IlS1msdXMrzMKiIAiCIAiCIAiCkHVIUlDcc/seJ1Up7OhAb1Yua5aVIsS72xERZJMjOw2uUJKzPRsC92NYDSLZy9YbusyqL4urIWE056wu7lweO1tysbXlz4ZolpJlc7tYzA3bGMhyDPLmyZPAaqdQoUJsyQNXz8yGdsxIDIJkC0kRGalLZOFgb09uhQvzZ31wzjbWuvINCwunEycsJ+I8fPiQYp/FcOKX0mVe3fiMhly8cIEiIsI5wYVXlSrqXB1w23373XfI2TltmaQtxbWrV/kv6jNiZeoz4bvvqG7dumTMddk1tyv/RWKbMAMhEXWuSdOmycZQTEk9ReZtZOAG4eG6eK76jP34Y6P1VzCfwMBAjt2aPVt2tkgWBEEQBEEQBEEQsg5JCorbrt2i4/cespA4vGIpWtS6IZXK5cTfESexSn5XWtKmEfUv9yJ5wb3IKPr3whV2e25cpBDNb9WAiqvWiLntbGhKw5o0rkYl/r7y8jU6fT+YP6cFxG38uEZFalPMjYo4OsQLnzjGhm4FaExlnavzpcehdCsssXgADt+5z8dcOZ8r/dygBuU3w8opNQRcvsyx8Nw9POiTTz9h4QUx4/6eP5/q1jMutmQ02jEXdnOjz7/8kkUsU/j5+VFUVBRbm0Hoevudd/gcAQSmX36dSkWLFaPY2FjyO3o01VZoxrh0yZ+ehDxhC8XOnTvTR2PHxv/2q4zvzp10/dp1/lyvfn2a8P1EPq9333uPpv72G8dYDAsN5eUZjXb9Idjh+JBkpU7dOrRk6TLq3LUrxTx9yqKhIUFBN7mO5c6dm3r37s3WupimTPmF/vl3Ecc4TO7eSEk9vXPnNoWG6cqsVi1vdrkGffv2o81bt3K9fdXd8TMiKYsgCIIgCIIgCILwepCkoAjrxDE7DnLCE8Q8bF/Cnfz6dqQnb/Sj4NF9aHf3NtS2eBGyy5HQcuiPE+dpdYBOAIHId7JfRwpRtrk2tAcNr1iarRc3Xw2iz/cfSzbeojnYKvvrWrIoLW3bmM4N7MLHh9/DMa7v1JxFUFggfnnguMnkMv8F3KCzynlCsuhdpgRdHtKN96FNOG5LsG3bNrakg8UOhMTDR49yVtsKFSrw/NOnTqtrJmTS5Ml0IygofkIiCcSbw4TP2vwjfkc5OYYl2bB+Pd25c4cFnZo1a9KCf/5JcCw4Ng1kc963bx8LhgUKFKSPx43jc8R6v//xR7zl2JHDR2jmjBn82VLs27uP9u3Zy7+NpDAQtLTfxvQyyiYl4LdxDNrxYNIyXeOv/nz9MoXoumTxYnYjR5bsgQMH8XlBMIUAd+TwYTpz5qy6dkIWL1maYL+9+/Th+RDLpv76a/z87b6+PD+t4PofOXKEhb2SJUuyGLhs+Qo+d1hZLlm6lLNVG6LVMdwXrVq35uPB1KNXT3J0dOIEP4glmRQpqaf6dQX19LuJE3mdHyf9ROXLl+eEIvhNQRAEQRAEQRAEQRASk2xSFiQ6abpiM/1vnx8FPA7hJCcAf/Ed8/85H8DzNCBEDtm8h4Zu2Usn7wfHi3jYxl/ZBvN7bdzJ61kC7P/A7ft0PTScIvSy4MY9f043wyJo+qmLVHfZRjp694G6JDGwrGz33zaacdqf7kdEWUToNIbPpk00/ttvKSAgID5jb1RkJO3Zs4eGDRlCZ8+e4XmZCV9fX3r3nbf5GGEJB7HIFBC/Bg8cSBMnTCR//4tsraYRHf2Uz/vnyZNp8OBBLyXpxXvvvUd//P473bh+PVNnRE4pCxcuUOrNeAoMDGARDNfg8ePHNO/vv2mgUt6Z5Vxx/T98/31au3YtRaiuxDi2UydP0ZhRY+jE8eM8zxDUsbEffsTroZ4AnOetoCCaM3sWTZr0E8UasWzUJyX1FHz2+ee0YP58Cg4Ojl8XxwyBdvjQYRRwOWG7JgiCIAiCIAiCIAiCjmxOuQu8LO1MEAQhy/LhRx/RG2++xXECP/vsM1q5YoW6JGXAEhMWqnv37KU+vXupc199unXvThMmTODPaSkfQRAEQRAEQRAEIfORrIWiIAiCIKQWaxtbKlHiRZxdQRAEQRAEQRAE4dVHBEVBEATB4ly+dIkePXrEcV67dOlCLVu1UpcIgiAIgiAIgiAIrzri8ixkOJrLZ0pBDMZmSWTyFVIOkrjUb1Bf/WY+yJr83rvvcrKT1wXN5dna2orjoMap8WWfxsTQrJkz6ffffuPv+njX8qafJk2mggUKqHOIbO3syMrKKsu5PAMkZRoxahQnE0KcSpST/6VL1L5tW3UNQRAEQRAEQRAE4VVELBQFQRDSALJK2zs4cOZsnnI6ko2Njbo0IdbW1spyvXWVCWJiVuWnH3+kX37+mZMkIckOysne3l5dKgiCIAiCIAiCILyqiIWiIAiCIAiCIAiCIAiCIAhmIxaKgiAIgiAIgiAIgiAIgiCYjQiKgiAIgiAIgiAIgiAIgiCYjQiKgiAIgiAIgiAIgiAIgiCYjQiKgiAIgiAIgiAIgiAIgiCYjQiKgiAIgiAIgiAIgiAIgiCYjQiKgiAIgiAIgiAIgiAIgiCYjQiKgiAIgiAIgiAIgiAIgiCYjQiKgiAIgiAIgiAIgiAIgiCYjQiKgiAIgiAIgiAIgiAIgiCYjQiKgiAIgiAIgiAIgiAIgiCYjQiKgiAIgiAIgiAIgiAIgiCYjQiKgiAIgiAIgiAIgiAIgiCYjQiKgiAIgiAIgiAIgiAIgiCYjQiKgiAIgiAIgiAIgiAIgiCYjQiKgiAIgiAIgiAIgiAIgiCYjQiKgiAIgiAIgiAIgiAIgiCYjQiKgiAIgiAIgiAIgiAIgiCYjQiKgiAIgiAIgiAIgiAIgiCYjQiKgiAIgiAIgiAIwiuLo6MTDR0+ispXqKjOeT1xdnah4SPHUOkyZdU5wqtM3rz5yLtWHf4rWJ469epR3/4DydbWTp3z+pE9ew5q37EztW3XgbJly6bONZ9sTrkLPFc/C4IgCILwGtC1e0+qVr0GHfM7SqtWLFPnJk85ZaDWs3dfevL4Ec2eMZ3CwkLVJYKQ+cGAbMSoN8jG1oYWL1pA/hcvqksEUKt2HerQqYv67QUBly/T33Nmqt8EIfMBMXHQ4CFUyK0I3bx5g+bPnU2RkZHq0teLNm3bUd36DSnm6VNatnQxXTh/Tl3yeoO2DW2cIYcOHqB1/61Wv2UuChV2oyFDh5NDzpz05MkTmjdnFt2/f09dKqQViImtWrfnz+vXrqGjRw7x59cNz5IlWVS1sbHl+2HDuv/o+XPzJUIRFAXhNaB4zZZUs+eH5Fq0LFlZ21Jc7DMKuXudTvvMo5PrLD9IyFe8ItUb8g0VKFWFrO1y0vO4OIoKfUSX96+j/QvGU0xUuLpmQrBu3YFfUMm6HcjOKTdly56dnkaEUtCZfbR/4QR6dPOSumbGY+wcwx/dJf9dK+ngvz9wGVuKQmVrUtVOY6hQuVrx5RL3LIZCHwTRBd9l5LfyN4v+XkaRnmXaa8o2/r2kOLF2Ou39+2v1W9bBNU8eGjZiNNnb2dHCBX/TlcBAdUnS4K0lOhzlylegPbt30eZNG9QlCTvq58+dpX//WZCoM6KJFXfv3qE5M6dTRESEuiRtFHJzo3btOpKVVQ5aMG+uxfZrafD2u67Sea1RsxY5u7hweWLAG3D5Em3bspkePLivrqkjI8s0qyKCYtJUqVad2rTRDa6ArdJG4L5KD0HR3sGemrdoTdVrePNvYoCPgc3rzqvSvmngHqtdtx6VLVeOnJycKUeOHDzflGgDy5g69epTXWUbrV3EOZ4+eYK2bdtMkRHJi4LWVlbUp/8gKl2mDN25c5vmzZmd5Muu/AUKUGulnhcvXpysbWwoNjaW7ty+Tdu3bVHahAvqWmkH51K0aDFq0KgJeRQtSvb29jwf7f61q1doy+ZNdO/uXZ5nSfTLIyQkhBb8PYfL5XWnRas2VENpXwCMsNC+oX5mZkGxYqXK1KNnH8qh3P8xMTFmPbdy5c6ttBkdKJ9Sz/+ZPy9R3yKzgD5Rk2bNqErV6pQzZ06eFx4eTieO+5Hv9u0UHR3F84xhiXu4bLny1LMXytaKfJT+7IF9e9UliXF0dKS27TtSqdJl+D5GX+zhwwe0Z9cuOuZ3JEXiW3KYEr71eRl1Fu1w6zbt+HNy5WFIDlt7x6w3WhIEIZ56g79Upq/JKZ8bZc9hxfMgSEGYcq/cgFw9ytKVQ5uUxjCOl6WVSm2HUov3fqfcRUopD+zsOvFQaWhtczqzUORRpREFHvGhZ1EJO8X5PCtRhy8WUbHqzcnazoE7YiCHtS3lditJnnXa0eOgAHp8yzzx42Wif445rGx4Ho7XxsGJxT+3ivXo6rFtic4xtbT7dAEVqVQvQblkUzrhdo65qEjFuhb/vYwgvcu0YquBlDN3fvWbce5cPErXT+xUv2UdIGjBJezG9eu0e9cOioszryOEN+WNmzTlTu1mn40UFvpiwFambDkqUsSdP7s4u9D161fp8aNH/F0Dy7FeeHgYHfc7yvuxBBWUc0HnKzIq0qL7tST58uWn4SNHU4WKlchOGcRo97G1tTV3jCHk3Fc6/Q/0LA8yskyzKg4OOal6jZo8ODtz+qQyIHioLhEABmR79+yKn4qX8CRXV1d6FBzMg7yXAQSlBg0bUb8Bg1h8ya70TwAGhUE3b/Ln15lXoX0DELEw4O7SrQd5eBRV2jn7+GsJcC0NB/qwKhw4ZKjyTPJO1C4WcXenihUr0+VLlygiwvhLaI0GjRpTTe9aFKo8kxb/s5CCg03f197etalP/4GUP3/+eLETx+ns7MziDUSOwIDLPD+tQFwdNGS48uwszOekgc958+WjatVrUmR4BAUFWbaex8XF8UuAkqVLU548ealAwYIs0GL+6wyuq9a2+R09woIShCJjdTOzAGHcQ2kXXVyc6ZL/Rdq3e1ey1xHidaMmzSi7MgaD2JUZX0JofSL0X3A/REVGUWzsM7J3cODnQJmyZenc2bP09OlTdYsXWOIednFxoV69+1JOpQ06fOgg+W7fqi5JTMlSpWnIsJHk7uERfx+jrUJ/Ai9OINz6nz9nsftLv+9nipdRZ4Nu3lDKw5Hc3T2UqSgFBl6m0JAQdWnSiKAoCFmY8s37kXfPD8jKxo4e3QqgXdPHkc/kkRR84yLlKV6BHFzyUq5CxelZdCTduXhE3Sr1QPRqNOJ7FisfXD1H67/rR3vmfEHHVk9jMTN/SS9yyutGTnkKU8CBF9ZNWNb6wxmU39OLYmOe0gXfJbR2fF86/t+fZOfoQq7uZck2pwsLi4GHN2WocKZ/jhGP79G+ed/Sxh+G0PXjvuTqUYYc8xQix7xK59Heka75bVO3ShulG3Tha3Zg4UTaOvUNOrJsCj24ck75vdLkkCsfOeQuQNFhj+n2hbRfw4wgI8pUExSvHN5Mi96qT4eXTk40ZUUxER2t1u3aKZ3onLRrx44UDWTq1W+odKxK0eXLl+jA/oRvLrUOUFRkJGVXBpbo3MGqTp+XJX5ldlENg+b+gwZTPqXzGx4WTuvXraFlixfRju3bKPjRQ+684e188RIluBOsCbUZWaZZFREUU0bVatVfmqCYTRmQYUA/QLk3Klb2oufPs/GA2SVXLsqRPYcIiiqvwj0O68leffpTlarV+LoGBgbQ2tUrae1/a2jrFh+lrduaaPCL9br16MkWPzgnrPPPvLm0y3c7xTyLYVESYk++fHnp7OlTJgfrbkWKUMdOXZV+ZHbeR1LuvcWKF6cu3Xsqz0FbdoteOH8erV2zis4r2xR2c6NcSt0rXNiNrfksYdVlZ2/PvwlLn5XLl7LVz55dvmyV6FG8GFs65VHO78zp00aFk7SA/eH5DlE2T968Spk+Y6tIQQeEIYR9yeyCIu6N48eOku+O7XT61EmzRCtc70pKmwqrvcwoKKIf2nfAQBa67927S3NnzyCfjetp966ddP3qVZ0Q7pqHcivPnrNnTqtb6bDEPYy2p33HTkqfqyR7d6xZtVK5X6LVpQnBMfTrP5CcnJ35Obhk0UIOE+R35DCL9XhpkC9fPoqOfkrXr19Tt0obWt8PLwWmTPqB2zXD6WXV1ytKHxQvEvHCA4KtuS8iJCmLIGRRINKVb96HrGwd2L15y5TR7HIM8HfH7+9RePAdymFtQ2Wb9GAxJ61UaDWI7F3y8H53zRhH96+c4flwVT3wz0S6cmQLWnIqVKE2WyRqlGvaW/nuxeud2/oP7Zj2IUU+fsATPl/ctZytHF09ylG5Jr3UrTIG7Rzhwr1r5id0ZvN8Pm6IeRu+H0TBN/3ZerC4d6sE55gWVn/ehdZ/158CDq7n38KEz3vnfEFRIcHKNbSmQmV1bhyvIhlRpq8rJUqWpHz5C1Cw0jG6mIIOCUSxcuXL86Dk2DE/5XY0btV4V+kc3lemskqHCBaNgs6NpECBgvQ0OppWr1pOx44e5XKMi4ul435+9M+CeezW56SUcZ269dWtXiBlKmRFcuTIzi8pXJVBGQZqc2b+RYcO7lee9eoKwitDJa8qnAAEMftWKoPtv2fP5BdPpgbpAMJAqVKlWfSA6+8u3x3cLmLC552+2/k541GsBJU0kVwEwkDDRk3YXf7mjet09NBBdUlisC7qGywhITbAFfT2rSBehr+L/1lAwQ8fsNCE9SCSppXghw9p1vQ/ad/e3fEu2Di/U6dO0DYfH34GuLjkosJuhXmZpYFQht/CucOqC+KIIGQ0FStWosKFC3O/B0K7vtt/QMDl+HujePESVLDQi3vDUvdw0WLFqGy5Crq2Zsf2JMMjIBkOXnIhdMCihfP5+NAuIZ7l0n//oevXrhKs7Gt4e3M/+VWHy2Sn0hbHxFARdw+q6OWlLkkasVAUhCyKR7UmbIWVw8qazm79hy7uXKEu0RH24Ba5upeifCUqk7WtPQVfv8BWcHAt7jZxLccyLNu4B904tYciQxJacdTs8T51+no51e7zMeUtVoEu7fuPnPIVoWpd3mRh8ta5g3Rs1R/q2i9Q2hty92pENspfiI5YD3j3+pDyeJSlkHvXaeeMcRQd/oTna0Q8vk/FarZgt2nKll05l+XqkvTF1b0MVe/6Fh/HlaNb2VJQH1hO2joqncNytZQydYg/x9SWaXJY2dhTyXod+XjgDn5p7xp1SUIQj7BO/0+o6Zu/UL1BX1At5TdqdH+XyjTuTjms7eje5ePKA9IypvopJbVlap8rL3Udv4qavDGZqinbP40MpbuXjqtb6YCrdI8fN1L9IV8nKnfNQjGpcjMGytKr3QhqMOxbqj/4a6VcPyXv3mOpWre3+TeePY2i+4EJ36hmFtAZa9mqDYtbfkeP0vlzOsHfHCpV8qKq1apxx2/H1q3smqKP9kb14YMHdDUwkK1OoqOjOT6gRlKWNnCXq1e/AfXq3Y/atGtPzZq3ZDdI7AeDssePH6trwsrMgUa/+TZ17NSFmjZvwfsEsDSA6xvm6U9FixU3al2F9Tt37c5Tq9ZtqUmz5hxfydbWRumc3k50jqkBx9qydRvuaPr7X6SdSufVELiUwHoRbnEIvH7uzBmKiopKc5mmlmxKPfH0LEm9+/bnrH/NW7aiRk2aUtWq1ZXmNxvdCgpKJCgj5s/AwUPZXQZvuBGrqlefftSqTVvetpzSeb+rDABCQhK27ZYA1g4NGzXiOFP6daeEZwkWzp880a87CS0UETupW4/e1KVbTz5PxH5TTp9u3LhhVDTHvYN60rFzF+Xc2lHzFrqygcsmXnpgAG+psklrmWKQg8QMvZVttHKBuO3mVoRdm82xWnmZFooItcCJBpR7G/FB4aaqWdbAjS0zWSgiFt1b735Alb2q0JlTJ6lMmbLUd8AgatehEzVt1oLdbeOU6w6XMWNkRPuGUAqo2527dFPqTmuuM15VqtHz2Di6rVx/Y/U7NeD+69i5K7sb7tu7h/bv3a0uSZoGDRvzwB7CwMZ16xK1t4+UckFoDpz389hYOnc28fMKL1iaNG2Gyk5bfTbRbWVfpoAVUeOmzVlk2LZ5M127ltBaD22rjY0NeZYsRXbKOflfusjW4gULFqI33n6PrxviB589cypRO1upUmUa8/a7SnvQkhzsc7KlbXI4OTtRhYqV+XNS1tIpad+MASut8hUqEeJThoaEsgCS0aDtHDJsBNWuU5cuX35hla8PrtOwkWOoa7cebDF1+tRxbjM00tq+pdRCMSX3sDHgtty1e3fqpNwruB+T6m/A6u3d98dS67btEtzrtWrXZQtcY+cGl9zuPXvxerjP0YaiPuOZpr8PTBUqVeJ2DPUYnhHvKG1b85at6VnMM5P1o1HjJhx/OKlrZi449/zKsxRhd/bsSuwJhBijsFp3cnLiBIDXruqOKbX3sCFNlWsH9+Wb169x/GpTFnhoi3GtUEfgFn3yxDF1iQ5sB0tgPIvt7ezp1q2bbHGJutJ/4BDq0asP1W/QkIKCbiUKwwCX6zeVNgPPEMN2Rev7pfS5i3sC27Zp14EtMNH31Oop2lKE1EmungK0K7D8xjPE3s4h0b1nDLFQFIQsSsEyNVi4exoZFi/c6VOmcQ8qWk3piClY2dqTa1FdpxWuyBd2LmMLMecCHlS77zierwGRpmLrQWwVB+HEd8bHPB9CC6wdATp/xnh4/QJFR4RQditrcs6viw8BIRJx80Dw9YtsTakPhCOIX/ZOujer7DKtbJMRFCxdjeyd87BbtjEXcYilZRp2Y+tQnKNrkdI8P7Vlmhyu7qXZFfx5XCw9uGbczQfH1GeqL1Xt9IZSdoX52ACOL1dhT6rZ8z0qUqkBz8sIUlumsF49vPRnttCES3+V9iNZnNTA+t59xlJO14IUHfaE9s0fz4J5Wqml7BNxSQuUqsrxHVl9UECyI5Rn49E/UaMRE3leZgNvehGbJiI8nE6dPKHOTR503hDjDzFRT588qXTaTAfKBmfOnObfwOAbCWCSAxZKo5QBNAYZeBMMQQsg0DasWIYMH8nLtPmWAIPwN999n48RHVAcL6xp8PvNWrSi4SNGsgiYVmANCgsUvG0/qwyITQ3iMZiJfRbLHdj8BRLH9kxpmaYWdIQ7delGg5XBHjqU2ht+DE4g9rRr31EZ5I0yWTYQiEaOfoM7sDgXgG2xL8Q8wuDckuA6vvP+h3zNDOuOZ8nSyrl0jT8OQ4oV91SO9U0Wi7Tz1A0g2lCbti8Sk2hgkDd0+CgeUOXKlZvPC+AvviOzav+Bg7kMjZHasknNdrDYGjx0OB8ThIToqCi2BoFlB2JMQbCCRVlGs2/PLlqzakWybUpmAeXeVhms9erbn+sD6hsmZ2cXDmaPwbshGdG+ob0ePeYtrtsQuhFqIU7pl2FA3qFzF+o3YKDJeppSChYqRK6ueYiTKRw7qs5NGmQSxYAZQFQwvP44NgigzkrbCfLmy8/bGAJLJ9wfsEqC5VBSuLl7KPePPUUo9wHi0RqC0BN42QBs7Wz45QGA4Ak3bFhS4lybNG3B8zUgDEB0wDEHBlyiLT4vwvkkRYEChZR2x4rFoXt3jWftTUv7pgGx62pgAG+Le99YOaY3sJpEe4RrV7q0rk9niLtHUSqktG14dp445kfPlOejRnq3b2m5h1Ev8NJyxKgxfM2wDcC6Wn+jStWqPC8juHH9GgUFBSVZPzAPojS4du0q3bl9iz+nFojkAP0hY32isLAQevxYFy86v9KH0kjtPawPntUQHPG76AfDIs8UWv8NQt+VwMTtC+oFRGaEW8BLykKqNSX2uWnDOrZitLG1pVat2yS4T1HWaDOwfWhYKK1auSxZAdwcanp7cx8E8Sfxe1p9RJ1DfwH1FKJ7cqBsTp44zn1SvOh2K+KhLjGNWCgKQhalQvN+bOkW+eQBnd40L94yC8Jfy/f/pOpd3mQxCkAoeHI7UOeSrHDz1F6Od5jLzZOc8rtTbEw0J6iASNPy/WmERC5wT0XG5nuXT/I29i55qUyjbklay+H3SjfozOuEPbjN6+QtXp7KNu7JCUcQH08/bp1n7fbU9n9/s3iDTjGIffaUrh7dypZq6U2JOu04Ccqzp5F0ZtMCenJH90BDudQd9AXVH/oN5cytPPzURjxCKXvNmjI1ZZoUECFh8Qhx9X7AKdoz94tEsSUhXrb64C9yKVScs0Jf9dtOW34ZTTv/+pjO71hC0crvOeYpTNePbU8k5KYXaSlTJOjBg8+tQh2yd3blOIsBB9Yr8+LYChP1EZ8vKOd6fO1fvI1Gai0Ui3g15NijF3yXski544/36eiKqRR88xIVLFmVrSmd87mzOAor4MwEXEAQA/HmzZu0f9/uZN84amBQg7escNlF3D9jb3z136gi4DmCgqMDA+s77Y23MWs6dLb79h/Ay2CVB9e3fxfO50x9gZcvs8sF3lIXditCD+/f57e/2O7wwQPxsWSwP+wXsXB++2UyJ4zRjzVj+IYXA0AMqNFRhMgHlzS41+3e6csxpjh+T9585OjkSOfPmY7HZQ5wU0YilqjIaNq7d5fJt/qox15VqvKA6Po1pYOvXKPUlmlagAUUrjVA7Bxkld20YT35HT3MLtmwKkCH3LBstGMtUKAAxxrSYhshCyEGBrB4xOARNc5SsX/gvjdg4BAelEEMRt1ctGA+x2w7eGAfhYQ+UTrVOM4z8eWiWSja2tlyjDaAOoLYbdgG9QwWeRikwhIElhIa2LaUUjeOK4PbDev/U87tP66nsFxAeRRQBr+5c+em+0o9RV3USG3ZpHa7bEpbCaEBVg8QE5CdeeP6dbRn9046ohwrzhEWse7u7mz1BasOU7xMC0VjZFYLRe240BbhxUxEeAStW7ualixaRKdPn2QLKixD26JZ/oCMaN/QRvTs2VcZRFpzrNu5s2Yq196Xdu/y5XpT0rMUW55g0GuJmHpaGwcLnEMH9tOzJAboGsj+jIEt2ju0W/rXGQNYDHwhCGlJXZ4pZXJKGeBG67lQ4yVAk2YtOGYaYsueOX1KXWIcWNnjOj16FMwZUrVrBKue1m3aUofO3dgaGKBPDGtTzTIKVtlOzk7x9+Pdu3fZ8g/3GpLQ4BkJl8iVy5by36TANkjy0KptWxYUcQ0vX/JXl74gNe2bKSBqIHmEjbUtXfQ/nybrMksQFRnBZYD2Esl7IOxAsNUH1nglPJXrFfyItinnrF17S7Vv5loopuYe1geCYR31RQPc8mGNjZh/O3fsoPPnz/K9gHv79q0X/UWIS3jma/e41gbEPI0xGRMR7YC2/s2b11kARKKTP3//ldav+y9+GSa0L1qdQT8QZeBZsiTfj1euBCRO/qacI16WZM+ejeMcplVQTO65gmPy8qrK62hZn0Fa7mEN1Dt4W0RFRdL2rVuUsjSd8Am/VbFSJYqOiqZ9e3bHlzvqIFyhUS/wMgXfAawpNUtq7Bf1E/UU/QmIsprlctXq1alR46bc70M9MoyNrT37U/rcRexIF6WvgP7sWqWfAFHTd8c2unjhvNJGFeN6mj9ffo5LmdRzH8DyspKXF9cNvLAxLEdDxEJRELIoEA5BVNjjeMus4jVbsrVaybodWLB5FHSZk2AAe+e8/BfAku7Qkp9YZIL1V6U2Qzh2nXevj6hA6eq8/IzP/ASJVR7fCmBrMQDRDJaFhuC3YgxELytre7bMg4Va6ANdLAwce/N3fqNWH/7FCTmeRUfQHX9dowr3bNucurfW6Q1+G8JmdHgIhT3UPVDzFa9IPSb5UNWOo7msUGah93RuT/pxKVNTpvogccmgWcdo5CJ/Gr0kkF2oYaGIpCLrJvRniz1DqnV5i3IVKsH7PrtlIW2YOJDuB+jccUPv36Qjy3+hxe81YVfgjCItZQpOrp/JyVuAe5VG5NV+BJdVhZYDuI7fVerNnrlf8nJjIC7jW6vv8DR62TUaPOc4u1FDjDXG/vnf0sI36tDev7+m2+cP8TyU76U9q7k84fJsk9OZ8peqwssyC1oMRGNv+5OjarUaPCAx9800OkmIs/hMGSBUr1nTpDUbKFehIndW0TFcsWwJ7d+7hwe62MdVZbA7d/bMeBcSxKjROm5pwVsZqORWOoG3lXNZvWJ5AusY/fg9JUuVobx5E7djKQEddADXmJho00H3cb7KfwZvuw1JSZmmFoghNWvW4jI+cvggLVeuB96wA/zFd8wHSZWN/8WLNGfGXxzTCMeNOJGa9RAyO1riGoImTZvrBttKx3jZksUcd02L2YaO/4F9+2jh/LlGB184BogUy5fqtkOdCwsLUzrfW3l/eLtveH4QEKb9PpW2+GxkgQF1BCD+EsRF1CcIYRAXTJHasknJdlp8KC1mp/5AFee4ZvUKvp64B5AURUgZEIwgYuAaoA4gDMS+3XhBE8uie86cugEtSO/2DdtrMQUhkPhs3BBfT7kNOXqUDh06yOvB2lnfaia14CUDgHiBfb77wUf09fjv6bvvf6LxE3+kseM+pXoNGvGgXwNCmpXyfEa5QBwAWA738VFj3mbrT4g3WoIVWDThGaSPo6Mzv9zAeZkjPCNBCggLDYtvEyCsvvH2O3x8iOl548Z1HsQDzToS4Dd2bNvG1oo4DoRHQBtcpVo1vocghm3dsomXGwMWo5989hVPX349nq3rsiv/IEAiYYsx0tK+GRJ04wZfH1NWW+kN+h/oh6BuwmrWrUjC2MCol7CuBbhPQkJfiLTp3b6l5R6GS35NhMNQ5l3y96e5s2ZwXcW2OHc8RxBDGfdlRnL27Glu11C3K1ZKHDMP5Yi+DFxhLyvnkVa0ZCkQDFHHjRGmd8010nIPa8CKENaEqFNJxU4EtjY23C6FhYcqv6cTHiGwDR46gjp06swiIe557QWio5Mz/9WAkIds4qCa0gZAKMSLgubNW3FfAe3bwf37eLkxIPKiHcWENvWjjz+hdu078TEY48jhQzTtj99YbEUoEaC1j3gRiXsGgiuS4SQHQikg3A5wK5J0xmkggqIgvAZAoINI0nrsbBZKIHocXzudFr/bmMIfGXe1gPB0dMWvLObBPbnhsO90Io3SuF7z285ZcPWBqIIkGnC/dSlYjBqN/CFe1ASwqIMlHrJKJwVEz54/b6GyTXqyIAQxdM2XPdiKDKJjZgGxKRE7r8t3q1gAw/kj2Q0EOmS4NkZKy1Sf7DlsyNbBkWwcnDnRjtJD4fLxqNqEGg6fmKCsAYS3wuVr83qPbl6iQ0smqUsyL6kpU6wD68zHtwNZfKzcdijVG/INJ3mBELl7zue8jjnAbdnRtRBVaNGfevy4iWNfpoTQ+0EU9yzz1FF9EPMLnbeUJmOBey3cQ9CBTioZiyF4c49EIvhN/LYp4GKDjtWtW0F0+VJil3R0+E4e18WtyZtP536SFtABLKmcDzr4yBxqzNUSmfp0gy9bdklJC1qHNiIynCLNzE6fN29il2dgbpmmluKeJZXjdWbXsSNHDie61viO+eyq5mDP7keGYGCFDIioLxrYTrPayemYkzObphVnpeNeTBXu4A6eVGZXY2AwB4sfw7hsiDEWE/OMrVdy5zY/gQHqEcolKVJbNindrlSpMjz4Qzw5uLMZgsEWBgq4B/QD3gvJA1EB1kWGwlFoWAjFxsaxa1lu1xcvvdK7fcP2ED/gqgaXNcN7GFy9EqjUpZhE4mdqsVOFPrh+Iu4nBO7Y2Bh2s0aZQDBILhwARIGRY97g+G4QBWA5+dsvP9PhQy+skAzBfpHpFRaRISHJxwXTB32uho2b0Jg33+GQARDq1v23hmb+NY2fkcbAtVq/dg0LnRDlOnTuTM1btFb2lZ0H8ieOJYyvpg+ECdynmDSXV3xupZQLRAZD0tq+GYLnT3hEOJ83LJgyA1euBlJoaBiLWKXLJCyDosVL8LMXAggyHOuT3u1bWu5huHPDihzhSmBZqt+GZyZgSafFZoaIpf/CEmI+5gF4JSQnwpnDxQvn+L7OlTs3x/vTXKABXoagHShXoYI6xzipuYcBrFcB2id9D4TkwH3uVbUavf3uh1weaNsQsuPP339T2lTjlt5of7du9uFs67oXEa2pc5fu3HbhGYLjNdZGGwMW2SivOvXq0Xsffpxil36tb2MuOK6HD3WCIkRILSyMKURQFIQsjl1OF+o5yYddoCHYQFzaMHEQ7Zv3DceXQ6ILU5zbtojO+y5TGpY4KlSuVrxIg4zNxkSaIyt+oXsBJ7mhL1mnPY1YeEG1qLtC3b5fRx5Vm3IcPGBse2zT6qOZlLuwJ4uepzfPpyXvN2PrRDsnV8quPNQzA4gV2fStXziRCgQ+uF9vn/YB+UwaQTFR4WTnbHogmtIy1bh+wpdm9itNf3QpSH92L0Jrv+1D14/v4E5Tqbod2I0dAqOGq0cZQmxCcPfSMXanzsykpUy5/BZ+z7ES4U4OMRL158S6GfEWmYYs/aA5l6U2zejjSVt+Hk03Tu3m64DrArdpY5a2EOURJ7H3LzuUOn6R6zimNh/PImu7tA/QLA06ArCQwH2Z0g5hBQRzVwYgELIgaJkLBBbEW4TbSc3atRN0GDUg7mmdbwRRN2U1CcsvdD4xeDT1Nttc4JrqnEsX6gGdUc1qRH9CXD17Bwdl8GvN7nRpIUrtsCJQP4Jbm8M9PXdZfcwp07SQL28+riNwpXti4PKkgflYjvWwviHotFpiwJEcufPk4YEahBNTrmpJgcHAvXspD5uB9haWM737DWBrAf16k5RlIkht2aR0u8JuOmsfNzd3Gjvu8wTHiOl/n37JCQIA3LUE83ka/ZQe3NdZ1yRHRrRvsKq1t7dT+gLZORmL4bXH1KNnb7YONBQ/U4tmlYPz8/M7QpN+mEDjv/6Svp/wDX371efsYgkLPoQLqG2YxT4bUfWa3jT6jbfYxQ+iwOZNG2n2zOmEZEMOOR1ZYDQGkllA6EFmabjFmgueASNGjaYWyuAelpIQpf747VcWL62VfohmVW4MCAdIrIX+G56NsOrGtd2xbUuSwgAshj7/5GOevvniU7ZwRQgDPFt79e6byJIure2bIc/jYBGnSzxhzGorI9AXseA9oS9ilVPKA+IzwkcE3dR5LmmkZ/uW1ntYs+y6/+C+0odK/zBNKeH8+XMseOKFJcK+aCADeV5V3PW/eF6dmzZgrXn08GH+jDion37xFX36+Vf0+ZffKH+/ZktllD3QLKz1Scs9rPWbDJOkJIWNss/uvfpQ9x69+EUAXIDnzPyLNqkW4HAlNgX6bf+tXsmxEgsWLMhiJMrSZ+NGk891WBNq7QWmLz4dR1N/nkR7du/ieobza9+hI7c/huD86tZvwPGex332Rfx9MWrMW0qbkjKLdK3NwO9p18MUIigKQhZFE6cgsCDpSeyzGDq7bREtG9uabpzcxctg1aYlUoELrDFObZgTHwvuWUw0nVg/02RyC7jdwprwtM98inzykF1ZIQ4po0+OjQe321DsS+l4abHynsc9484OjgMCG6zMHt0KoM2TR9KuGf+LP49419iIMIp4nDBGSXqBoOY4dodc+SlfiUrcqUTcyZWfdkyQeRpJboCpOI8pKVNjoEzg5rv2276c7AW4ezXkLMMamis5eBrx8gf4qcVSZRpwcD0Fnd2vfiMuH5SzuUC09N+7hv77qqeyr408zzm/BxWvnjAAe6W2Q6n3lG38N2+x8mTr6MJ1HJO1vaNSRzPfYxXBzd2UTjjekqckGQs6JoihAsxJxmLIqZPHlYHeQ44tV0J9w60PhE4ra/MTA2DwiEFkWsieDY5mumuE89OsRvQnvCGHcGQJtAy82F1S+7RWzgtvwDEohdhliuTKNC1o7kTmktL1LYkmJsQp7YXmBviywYB3+KgxNHDwMB4EwVpAv94k9wY/vYDYC3A8+senP2WWY83KZEj7liM7v3BAW4P709i1x3xLtW9Ac02EVSFCSGhhEgAG27t37uC4sPhNZMTFX9y3+IeXNhDmMFiFwDb9zz84dpwmzmkuhymx8DYF9zUUYF2IZyIsG2E1NmvGdBYIgP41e/DAuPeOn99hundPJypDzNzss8kst2MNiDYBly9zCAPEwoXlEtyb9QfsGdG+ZQTIbg2BxCVXbnIvqotpq1lnog4gLqbh+adn+5bWe1gTr5A92ZQYmVnQPCBQvhUqVIxvI+ACjTqKxC3GLEJTA67txg1radmSf1k0BhDQrZRxIKziEKcSIXaA/gscS93D5oK+GI4VbsrwbIHAhpcD037/jV2rNZITKeGWf/bUixivx/yOGrV2NQWOAW7imzdtoPX/reF2Ff0PeJXog/iQH3w0jhOHIf4oW6Gr94Ql+7XGEEFRELIoLNipnTJYcPlMGk6+f37EwokGLK2QKAUJOyKeJH7rDou3ugM+58QfAC6hVTqM4th/psD+d838H80ZXIGmdSvM1l/TexalhWNq0+V9a8naxo7XuR+gSzwCYS06XNcBxXFc8F1Gyz5sGZ8gRiOXm67hjIkMo7CHxuPUvGxC799QHmA6l1bEi9w96zOOS4jy1YDIBGtKEPEosfCZmjJNisBDPpzJmzN1e7zIcqxP9hw6YTEzYokyBVU7jWH3bw18xrzUgIQqcK+HgG3t8MLiENeoere3WTxEPNBdsz5ly0bNynHtN33oaUTiuC8ZTUpjIGpAsEKWO7hWIsZOSsHA8uzZs2xpgPgxhqCThCk5MECGJQs65aFhYerctGP4FtjYhM5jWnj8+DG7F6LDmVTcGnSQEd8KgbLv3zfdCU6uTNOC1llPimzZs7HwCUKepMzN8KWg1AuuH+lAy9ZtOEs6BsDbt26mb7/6IkFdgUiQmcDx6B+fsQmWUsLLISPbN9TRBfPmGL3m2vTNl59xbM60EqW0WQCDeGNCDoQUuO0DHtja21NkRASFq+eK5Tu2baWZf/3J8Sj10VxWIdghk68+cTzYT+xmbgokUtGuB9wN/5r2Gyfi0reAggs4BuGwDIRlsCEYkDdr3kppr3WZZ/Hbrdu2TWBdZy4QFs+c0YkMiAUJa8VEvIT2La0iiyW5dvUaP+/wPKtYoSLPg+icK3euZPsd6dG+WeoeRr15mWKOJdA8IHC+EOtg7Yx6DYs6zIOlrCVFUezz9KmT9OuUSfTV55/w9fr6i0/YEu/QAVgaWvN9qAmLwBL3sLauOdarjx8FK22pbnyCvteCv+dwv1H/5TraNISKAVjfGLBArla9hvqN+HNq43uiPCIjolj4xQsXDVyr9h078fHA7X/e3Nn05We6csWEcoWbd2owxz08fXphgiCkOxDsWDxUGt/Aw5sSCXSgSOX6ZGPvSDHREXQ/MPGDGwkukOgC3Dp7MD72n3fPj1gYSynI6AuLrpB7N+ITgcAa8cld3Vuv8Ed36djqaQlET+DqXobyeOjiRTy5fSXD3HeRfTk6TDeIRrzIM5vn82d93CrV4yzAEKQeXk/sqmLpMmXLTaWjgtiVMdEvGvzQe9eVctIdK7JLp2bf6YElyhRCH5LcwLoVmZ9D7lxLkPgmpcByl8tU+QeRW6NotWbk4JyX3akP/fsTnd44N1FdzWykNgYizh+CFTr6cEuCe1JqgEUkLCMhxOQxiEeIDgoyFoOChQqZtCrwUDq3sGSJjFQGoUY6iBpYB658SYHA2giwDbRkAi+Tu3fucEZYBAE3FfMGZQ2LAHQQ8YYbrlVJkVSZpgWts+7s5EIuuY0P0BHfEVkp0Vl/mMo6YQkePHhAUUqnHte8WPES6tyXh2Y1Aw4e2E++O7ZnWsshLeA93MIskXRDSB0Z0b4FPwxmt2y4AaYkBmhagPUN2g0M4hHawRjaSwishwllc1dt5x4+vM9Zi/VFAYC6i8z2wJi7abAyeI9+qjtXZ+fk3XiDbt3k2Lj4fWQDNhQvAax6EO4iMko5PoM4mQDxDrUXOadPn4qPp9i4abNUCUZwpQTPYmHB9iLkjaXbN2Sod8zpxGUcqZRBZkFfxCpWwpMtwcqWL8/PQmToNdbvSM/2La33sBa+BFnicW7pDe47eD+Yy4XzZzmrcs6cOQmJb2A1CuvR1L5UTi3FS5TgWKyPHgcniE9oiXtYs3jUXm4kBfaPBDAAcUy1RGj6uLkV4RcCeIkD13dDIPQhiRNe6iMJD9pLXTxFXWKnlGLKmwUxbHPncmV36lUrl3HmeMM2NaUgORZARmz8XlKIoCgIWRQIdhDulF4OlfBuk0hYwfeStdvzcsRVvHFC5watgYQU1bu9w8IM4iJumjyc/Pes5mVFqzejBkO/5c/mUqXjaCrTsCu/VYalor4oeOPETopVGmPEdKzUepA69wWV2g7RZXt+GkVXj25V5ybmgw8/pONK52T/gQM0YuQoda7luHvpOAVf08UQKVTOO1HSDsTbK9uoB7tvI2MxMjDrY+kyhUhYok57FsAQP/DWmRcuvyzU3g7kz3mLV2QhMzVk9jLF8iajJ7G1LerUgX8m0IF/f2BLVszDMmNxEE2BdT1rteVYn+EPb9O1YzvUJUR2jrl4/nOl829oiYhrUL5lP13CnGRo0qQJbff1pZOnT9PUqVOVjs3Li7uY2hiIsAyBYGUsKHpKgEUk3qjCnaWUEUEtMCCAOyqFC7tx5mBDECOmUuXK/Nkw26MGOsAQuJD5Lk++pK81LF3uqFkhy5WvwMG8XybIlHcrSBdOopzSQXcrorNM1geDVE9PnRWAOa7lyZVpakHgcFgOwTVGy0ypD77X9PbmeDqGHf30BtaRD1S3Q68qVV/6dcQAQHNrilIGjYbgGr7sYzCXK4EBfD9gMIAg8lkdvPRAXMCPP/mMWrVpx98zC+ndvj1W7ssHD+/r7tVatVM1YE0pWrvhpJwLMvAaoi8MYkCtWbqcOXuGX3SZqqfVqtfkDMB4BsE11hAM9EMeP+FzLa4MppPj/t07bNVkqmzwvVadurwcrp0Q9fTB/d2xc1duCxADbtWyJbRn905eVtO7FtWuW48/mwvKpbzyfAZ4RuBZoWHp9g1iGNrt6Kin8Rlpk0JznUTCC3cjybcsyeXLl3T1x8mRs4QXdivC9eK4mujEkPRu39JyDwdyAqRn3AerW68B1630AFaSsJaE10PhguYnpkGdR93HceIFKKxG0Z6aEndfBoUKF2aXXbwoOH7ML0GcwbTewyDoVhALbS7OuShXMiIvriWuKTDWX0TZ1KvfgK0pYWkLi1t9sLxr9568HURZJFdDFnIkcMM8LEvJ84rPW+mboY+G/QUGvujTQwTGi2uIjJrVuAYE+pq1apGdvenYkobgJWpu9cUyrn9yiKAoCFkUiCsQ7iDUQVhp+cF0Klm3Ay/DX3x3zOfGwsvJDXNIPyEIRJUa3d7lTMHYj9+q3zk+4oFF3+uSruSwonLNelP55v3ULYwDy7hqXd+iXlO2Ub1BX5KNvRMnEsH+9Dnvu5Se3Ank/ZZv0Z+avvkzHwMmfC7frC+7n96+cJjO71iibpUQLy8v6tGjh9LJyEvuHh5KR2gMCzeW5tyOpVxmKJtGI7+niq0G8XEji3W7T+ZzHECU+QVlPX23XUuVKcC+SjfqRt2+X8uJbADiYmpWnxrasULArNV3HJclrD0BXK6RAKXPVF9yr9yA5xmS2csUePf6iJej/l7as5oCDmzgv3Cdx7z8nl7UcOh4dW3TaOXR++dtlM+zMovXZ3zmJ/i90AdBbCWpEw/7c2xSfK7e9W3qP20fXwscd3IMGDiQs/8h+HXHzp3pnXfeUZdYFgggqY2BiI49BKu0xs1BRxyWkehUY3BoiBYTEB2yLl17ULUaNbiDhY4TRLZhI0Zxtkd0nvbvTVi/NfAWGm+jMdBDllGIdtjeFEeOHGLLEnTyBw0dxlnztPhV+G286e3Zuy/16TeA56UFnP9O3+3cgUQnsG//QVSpUmXu4OG3cL44bxw7rHD8juoClSdFcmWaWiBU+vvrLICr1/BWyrJzfIcdg6a+Snl4VanGCRbgCp6aBCOWAtZKhw/ujx+s4TpWr14z/jpisI7rOmDQUItYsehbtmIQW0gZXAJYJw0YNIQz2MLiITMAseP2nVscz6tV63bUpXsPtlQGuC8wEEcWzdFvvs2fMxJcGxyDNjkiuL166+ovg3UP7hljVKjsxe2cs7ML1W/QMHHijwwkvds33BdHlfYN9ygGrCNHj+F4n9qgFfdH+QoVOQ5o67YJX96lFrQbV64E8m+0ad8xPiEGwDOoY5dulD9/AW4DDyn3rMblixfoljJQRT1t2aoNNWrSlPeBCZ+btWjJ1/zcuTNGX17AQjgwMIA/u7m7JxIXDNFvM1A2/QcNjr+P8RffteNEm412VoPPrV07bmtwrbb4bOT97N+zm+83nEOz5i352ZEcqNd4BiARDa4lnkX79u5O8HuWbt8gDkFsuHf/LosySYHfQLILtBk4vm49eyVbtmlBe0GGa+1dqw4Li0m9AE3v9i0t97BWx7Furdp1+BmKY8J3nC8SzODZgX1aEv3kac1bt+brb6r91Ee/b1HEw53KlCvPn02Ju5YCdRhWiX37D6RRY97m64nrjPtLn7TcwxqIW4rs4hDXSnqWUueaBm0W9of7sN+AQXzNcf3QJ+rVtz+VUPaB49mz0zdRH7tWnXpUshQyQsfyyweIoUE3b9KOHS8SVTVuljBOuzFQ3+B6PkppM2p61+ZtEWtWX+R9xO7ZMXxe9erV5/4mrjmMCt774EOqV78h3zPm4qaM+fCSCOfuf8lfnWuabE65C5jn/yQIwisHxI3WH82k4t6tjSaLgDhyauNs2jfvhWUctmnz8RwqXrMlv8U5tXEO7Z37lbpUZ2XXZMxkFn8gtmyaNCw+ky7Eqg5fLIqPD6gPBBqIgXtmf85CjyHYb+NRP3F2XWMgacnWX98ymbUXVl7Lli2nyl66N4XR0U9p2h+/0y9TpvB3S9Jw+ASq2GpgfMZqfXBuSOqx9Zc34s8zLWXq1WEE1R3wRXzyHEPgkht42Ie2//6eUfdb795jqVrnMSYt52Bp5zNpFGeRNiQzlylAjEQIpRBMkcl63fh+LNYCiK4dPvuH8pesoroo/0jH//uLlyVVTwHc0I+t+YsOL5mkztGhv09jwGXfytqO41nuXzieTq6bpS5JyPgJE2jAgAHxD/fdu3ZRv759+bMlKacMHCGMwT12ziwErTbvDTMGD8NHjWbB879VqzhzZ3JgoIsOM+IaGcYtwqBy2MhR/IYfwEJizszp8YHsYQ3Ro2cfk4IMBlwI3m0q2yU6d+06dOLfx2dDjB0TBmOtWrc36cIELvlfpPl/m5/YJym8lU5gm/YdeFBiDMQY+2fBfOUavXijnpYyTS249n36D2DrVGOgg35w/34OqK7fWU/qWIG23FLHCXCtGzdpSo2aNDd5HQ1/D4O5EaPeIBtbG1q8aEGiGHLactRFxErSj6FZR+mkt27TzminHHUU8TKRxRHbYFuN1JZNWsoUgy0InUllDUbWyVnT/4xvFzCoGzZyNIukyWFYNqlFO4fkQAynWTP+jHd31AciTv+BQ+Ize1ryvtVAZu8+/QayO7Gx49CWA8N6ld7tG9Zp264j1a6rs9QxxYF9e2nD+rXqt7SBdmPwsOFc79AuIN4hEhjYKtcE9wvOcd3aNXTSQJhIrp5CaFr8z0KTLy8gQgxQrj3iN5rzrEqubDAg37R+HR0+fFCdk7D8cU4blTLTr/s4h4FDhrHgAMFg3pzZ8cebXP0ODQ2hNatW0sULibPn4ndT2r4ZA+LMsBGj+fi2+GyKt6o0BX63d9/+VKGiznoSwu2/CxewJeHLomKlynyPQPQEyGaLBBSmSE37pt+2JwXqgCXvYYiNfZVnKo7ZFIbtqbntoqlnA0jqeZVUvTF8Dty6FaSsOyNFL6TNYciwkSySGQLR0O/IIfLZuJ6FOkNScw/rg20gXMLi0NxzS6q/CHFvv9KW4iWDfp8IMRJ79urDL4Jwf6NO4dwABMI+/QfxcwMW2MuWLmaXag1TZQOwj12+22in744Ev6e/T2PgPrC2sVaek/ZG+z766JfRlcBA5Xk6K/7YTZHD1t7xa/WzIAhZDASsDji4gWIiwzlOn42DEwuLyCz84MpZ2j3rEzq1ca66tg64JldoOYBFMCSn2PrLm7wfDbhHw9KwYNkaLIDlL1GZAo/40LOoCLJ3yUtlGnUj25y6ALXPoiM5gQoy8G777V22GtPflz7Y782Tuyln7gI85bC2pedK5w2JOrDd5smjTGaiBsi2hyDfdZWGHwMLNPJHDh+mgwfSPugxBG6woQ+DyCmvG9k7u7L1JIQ9JMI58M9EOqhM+ueZljItWKY6uXs1UrZ98SCDqIZyuXlqDwuTfqt+SxDrT5+gM/t5cspbmPeNJDDK04LrAH7Xb+XvfH2MXZfMXKZw2W8w5FuyU9ZFRvGd0z+m4Bsv3qKh7J7cuUJFqzXn+ghLRewL52xYTwF+K/zxPbq09z/aMmUMBR7apC55AfZ549Ruvpfggp/DyobrKBK0XFTq6L4F31KJWm3YahHr3fU3/lb3sFKGjRs1pgIFdYHdr127RqtWruTPlgIdAlh9oFN47uwZzipnLpUqeVHVatUoODiYtm72UQYUuqDUSQGXzyJF3DkY9InjfupcHbFKfUUnBh0kHFd4eBgdV44HHT+AuIHYhoNpK4MeiG5YD65x58+dpYXz5xqNTaMPRAQEzc6bLx/XVS1mFzB2TDdv3GDLFxeXXLrsgqrFAeo8LAWRZRDnrt9hSwtwC8S54Pcg1OMcse8Q5Zj37dnFg0otW6pGWso0teBanzh2jCIiIyiPax6yVTrDKEt0JhH7B4OmI0Y66kkdK9CWW+o4NWC5dFEZxGGwrJUrQN1B7M8N69byMWkgllj1GjV54Ao3SsM4kNpyGxsbHhzCmkCD3b4eBVPhQkpbqtQxlDsGZGdOnaJFC+exFR3OEdvoDyxTWzZpKdMwpd32O3qEj9Ell4tSLrq4S2jDkXkcQe/hfqWfkRdlh2DxcK1NDsOySS3aOSRHzNMYpQ07YnQADCEXwhVEcJwvBk4nTxxXl1oGxECrVNmLy8/YcWjLgWG9yoj2DetfCQhgMQOWKmjfAAbO164G0vq1aywiCGug3Th54gTlyJGd47oihhnuISSZwjn++8985XdfJFfQQD2FBZiVUiYQvvTbRcQpXbsmYQIEQ54o176IuztbJaFsTyv3ItrGpEBsMQgJOE64CaIs0e5DnFny70LyV8pOHwgDLVq1ZmEG57LZZ6O6RAfOAVmoy5Qpx+0QYvOeO3OaxUdj9Ru/BUEHotnqFSv4sylS2r4Zo37DxiwywMoOIg2uSXLgeYW4vlq/D8kz0B94WeB+Kl+xAre/eAGKMg4LNW0Bn5r2Tb9tTwpcN0vew4iriPYZz1QkAtGeqThWXDtY0vkdPsS/q2Fuu2jq2QBu3rjOIQYgpOLc9duMpJ7DmIf4q2hPcS/ixYO+a62lqFqtOr+0BrgnYGEHF+flSh/jlFLf9MvDkJTew4ZA8IflNq7lw+AH3OdLCvQXYQ2dS6lriNeK39P6RMuXLk7kWYIXLN179SZnFxduo5YsXsSxtDVwbtevX+N7DPc14qTifka9BvplA7R6fdzvGC1eNN+oGIh9Xjh/nuyU+oXnkdaWoo7s2LGNNm1Yz8K9vb2D0b6PPnhJ16hxU0Lvd5vSF75zJ/kwCWKhKAhClgKx6eBOikHGJ+PG0fr169UlQmrJamUKYRdu0hAgMyqpyqTJk6l3nz7cCViwYAF98dln6hLLAPePIUOH80By4YK/+S2jOeAN7KAhI9jyIzkrAUEQhMyAZiGIQdQu3x20dYuPukTI6mgWqhBqtm3dzNdf0IF4dLCezOngQJs2rqcD+/apS5JHs5KCKAdLv8ePMyYZopD+aBaSEMNmz5qerGj9qgExWLPChVfInFkzEojPGQ0EyeioSKMWmi8bWDrCddyzZGl+MYWXpclZJwKJoSgIQpagUKFC9MNPP3Lwb7yVOXrkiIiJaSSrliksPJEMJqPExEGDBlGTprpYlLDyWW1h60SQ2hiI7h5Fyc3Nja0EkE1YEAQhM4NYVvUbNGYxEQPgo2bEIRWyDrDiO+6ns9Jq0LCxWXEMXwcgDLTv0Imzb1++dJmOHjqkLkkaxF2rUbMWubu7c7/vxPFjIia+RsAit2rVanzt4Tac1cREgHPbtmUzi4iw4m7bviOLjJkFWFBmhJgI6jZoyHEhERN086aNZomJQARFQRBeaTp16kRHlQ7P/oMHqV+//mRrY0PHjx+n7ydOVNcQUoqU6cth/caNdCkggL5TyhGuyPfu36Nff/2Vjh2zbMBrvN0sV748IV7niWN+ZncIQNVqNTjmC2JXIVi6IAhCZqRFqzb0+Zff0EfjPlUGQJ4cj271qhVZcgAsJM0Wnw2EJA5w0UUmZogErzMQBRGzFwly9JPIJAVCNrz7wUf05TffUeeu3cha6ffB1Xnn9q3qGkJWBgJ03foNqHvP3twHNJYUJSuBrMyIXYkYhhBRmzRtnqlExYwACbsaNWrCnlNaEhlzEZdnQRBeabp1704TJkwgK2sbunnzhjKgWEWzZ8/m2H9C6pAyfTnAddxTGfgiDtvunbvoz2nTyF/ptAmCIAgpA2553rVqc7w9xNzavWsHZ6QUXk/0E8PcDrpJc+fM4hh3ryNt2rajuvUbcty25csWc8y55IhPWGVjzZ4Nvtu3ctw4WHMJWRdjCWBw/8yf9zdbymV1tOQ1ALFljxw2z5I3q4HwBkjEYmVlbTTJTHKIoCgIgiAIgiAIgiC8sjg7u1Cvvv1oz66dCbKmvm7AQrNzl260e5evWWKi8PqiCYoQj/ByZv/+fZyIBR4urwOwSqxXvyEVLVqUk85llKtxRgML1TYdOlJUZBRt3bwpxS8SRFAUBEEQBEEQBEEQBEEQBMFsJIaiIAiCIAiCIAiCIAiCIAhmI4KiIAiCIAiCIAiCIAiCIAhmI4KiIAiCIAiCIAiCIAiCIAhmI4KiIAiCIAiCIAiCIAiCIAhmI4KiIAiCIAiCIAiCIAiCIAhmI4KiIAiCIAiCIAiCIAiCIAhmI4KiIAiCIAiCIAiCIAiCIAhmI4KiIAiCIAiCIAiCIAiCIAhmI4KiIAiCIAiCIAiCIAiCIAhmI4KiIAiCIAiCIAiCIAiCIAhmI4KiIAiCIAiCIAiCIAiCIAhmI4KiIAiCIAiCIAiCIAiCIAhmI4KiIAiCIAiCIAiCIAiCIAhmI4KiIAiCIAiCIAiCIAiCIAhmI4KiIAiCIAiCIAiCIAiCIAhmI4KiIAiCIAiCIAiCIAiCIAhmI4KiIAiCIAiCIAiCIAiCIAhmI4KiIAiCIAiCIAiCIAiCIAhmI4KiIAiCIAiCIAiC8Mri6OhEQ4ePovIVKqpzXk+cnV1o+MgxVLpMWXWO8CqTN28+8q5Vh/8KlqdOvXrUt/9AsrW1U+e8fmTPnoPad+xMbdt1oGzZsqlzzSebU+4Cz9XPgiAIgiC8BnTt3pOqVa9Bx/yO0qoVy9S5yVNOGaj17N2Xnjx+RLNnTKewsFB1iSBkfjAgGzHqDbKxtaHFixaQ/8WL6hIB1Kpdhzp06qJ+e0HA5cv095yZ6jdByHxATBw0eAgVcitCN2/eoPlzZ1NkZKS69PWiTdt2VLd+Q4p5+pSWLV1MF86fU5e83qBtQxtnyKGDB2jdf6vVb5mLQoXdaMjQ4eSQMyc9efKE5s2ZRffv31OXCmkFYmKr1u358/q1a+jokUP8+XXDs2RJFlVtbGz5ftiw7j96/tx8iVAERUF4DShesyXV7PkhuRYtS1bWthQX+4xC7l6n0z7z6OQ6yw8S8hWvSPWGfEMFSlUha7uc9DwujqJCH9Hl/eto/4LxFBMVrq6ZmOw5rKh8837K8b5POV0LUuj9m7RufD8KvpG5Bn7GzjH80V3y37WSDv77A5exJcE1rN79XcpbrAJZ2djF/97ZLQvJb+VvZv2efa681PHzfymfZ2X+ntnKNj3LtNeUbfx7SXFi7XTa+/fX6resg2uePDRsxGiyt7OjhQv+piuBgeqSpMFbS3Q4ypWvQHt276LNmzaoSxJ21M+fO0v//rMgUWdEEyvu3r1Dc2ZOp4iICHVJ2ijk5kbt2nUkK6sctGDeXIvt19Lg7XddpfNao2YtcnZx4fLEgDfg8iXatmUzPXhwX11TR0aWaVZFBMWkqVKtOrVpoxtcAVuljcB99TIFRVhG1KpTh+rUqUe5XV35vngaHU0XLpynjevXUlhYmLrm68mr0L65KO1Z/QaNqXyFCvFt27NnsXTv3h3as2snnTl9KtnBKe7N2nXrUdly5cjJyZly5MjB880Re6ytrKhP/0FUukwZunPnNs2bMzvJl135CxSg1ko9L168OFnb2FBsbCzduX2btm/borQJF9S1LAPKomKlytSwURP+XZwXyiYw4DL5bFpP9+7eVddMGra+HDGS8ucvwN+Tuif1yyMkJIQW/D2Hy+V1p0WrNlSjhjd/Vi4Lt2+4HplZUETd6dGzD+VQ7v+YmBiznlu5cudW2owOlE+pb//Mn5eob5FZQJ+oSbNmVKVqdcqZMyfPCw8PpxPH/ch3+3aKjo7iecawxD1ctlx56tkLZWul3Isb6MC+veqSxDg6OlLb9h2pVOkyZG9vz+3Zw4cPlPZtFx3zO5Ii8S05TAnf+ryMOlunXn2lTNvx5+TKw5ActvaOWW+0JAhCPPUGf6lMX5NTPjcW60C27NnJzik3uVduQK4eZenKoU1KYxjHy9JKpbZDqcV7v1PuIqWUB3Z2nXioNLS2OZ1ZKPKo0ogCj/jQs6jEnWKIZm3HzaVyTXqSjYMTz3saEUL+u1dRZMhD/p4Z0D/HHFY2PA+dRhxzobI1ya1iPbp6bJvRc0wpuGb1hnxF9QZ9Rc753V9cQ/X3ilSsS3mLV6SAA+uTvYb1BnxORWs05+sPMlPZpmeZgoqtBlLO3PnVb8a5c/EoXT+xU/2WdYCgBZewG9ev0+5dOyguzryOEN6UN27SlDu1m302UljoiwFbmbLlqEgRd/7s4uxC169fpcePHvF3DSzHeuHhYXTc7yjvxxJUUM4Fna/IqEiL7teS5MuXn4aPHE0VKlYiO2UQg7oNrK2tuWMMIee+0ul/oGd5kJFlmlVxcMhJ1WvU5MHZmdMnlQFB5nmuZAYwINu7Z1f8VLyEJ7m6utKj4GAe5FkauGYOHDyEanrXInsHh/j7AgO8AgULUuUqVVlwf51FxVehfevbf5ByraokaNuyK/0MCINo8yBs+J8/pzxrEvdRIH5hoN6lWw/y8Ciq7MOet9UIunkzWYGgQaPGXIdClWfS4n8WUnCw6fva27s29ek/kPLnzx8vWuL3nJ2dWbyByAGxzxJgX9179aEmTZuRk7J/7bzwN0/evFS1anW6e/dusoIPyrRl6zbswqyVb1L3JMoZgmPJ0qUpT568fC+dPnnCaPm/TuC6am2b39EjLChBKDKnjmUUEMY9ihYjFxdnuuR/kfbt3pXsdfQoWpQaNWlG2ZUxGMSuzPgSQusTof+CflBUZBTFxj7j50BR5XzLlC1L586epadPn6pbvMAS9zBegvTq3ZdyOjrR4UMHyXf7VnVJYkqWKk1Dho0kdw8PPlaA+xD9CbwASap9Sw36fT9TvIw6G3TzhlIejuTu7qFMRSkw8DKFhoSoS5NGBEVByMLA0s+75wds0fboVgDtmj6OfCaPZIu0PMUrkINLXspVqDg9i46kOxePqFulniKV6lGjEd+zWPng6jla/10/2jPnCzq2ehoLYflLepFTXjdyylOYAg68sG6CpVjzd6ZS9a5vk0OufBRy7waLXbY5XTKdoKh/jhGP79G+ed/Sxh+G0PXjvuTqUYYc8xQix7yFydreka75bVO3Sj2lGnaJv4Z3Lh2j7b+9S9t+e4fu+PtRfk8vsnfJQ875i1JsTBTdvmD6Ghar0YJq9nifctjYUlRIMFnbOWSask3vMgWaoHjl8GZa9FZ9Orx0cqIpK4qJ6Gi1btdO6UTnpF07dlBQ0E11SfLUq99Q6ViVosvKAP/A/oRvLrUOUFRkJGVXBojo3MGqTp+XJX5ldlENliX9Bw2mfErnNzwsnNavW0PLFi+iHdu3UfCjh9x5w9v54iVKcCdYE2ozskyzKiIopoyq1aq/VEGxU+euVBr1V+++2OW7ncIjwql48RLK9XJQ7psCdPrUcWWwZjkLkFeJV+Eex+D/2rWrtGbVCraa8VXaNrRV+Qvkp9y5Xdkq/vad2wlemABYXfbq05+qVK3GA/TAwABau3olrf1vDW3d4qO0kVuTHTS7FSlCHTt1VfqY2Xn9pNx7ixUvTl2691Seg7bsFr1w/jxau2YVnVe2KezmRrly5aLChd3Yms8SVl0NGzemWrXq0LNnz2jnjm30z4L5tH3bVhbuS5QoSfYO9vy7Z06fNiqcaJQsVYZatmpNcbGxFBkVRTY2Nsnek9gfnu8VK1Zm8TJGOYZrV6+oSwUIQwj7ktkFRdzvx48dJd8d25V28KRZohWud6XKXmy1lxkFRfRD+w4YyEL3vXt3ae7sGeSzcT3t3rWTrl+9qhPCXfOwxfrZM6fVrXRY4h5GW9O+Yyelz1WSvTvWrFqp3C/R6tKE4Bj69R/ILwRwzy1ZtJDDBPkdOcxiPSyr8+XLR9HRT+n69WvqVmlD6/vhpcCUST9wu2Y4vaz6ekXpg+JFYl7lnCDYmvsiQpKyCEIWBQJe+eZ9yMrWgd2bt0wZzS7HAH93/P4ehQffoRzWNlS2SQ8Wc9JKhVaDWODCfnfNGEf3r5zh+XBVPfDPRLpyZAtacipUoTbl86zEy4B7lUbkVrEBL4PAs/x/bSkq/Im6NHOhnSNcuHfN/ITObJ7P5wcxb8P3gyj4pj9ly56Dinu3SnCOqQXuvue2LSb/Patp1aed6MapPTwfYtvuWZ+yOJhD6RgV927N842BawsXcjtnV7ofeIruBZxUl2QO0rtMX2dKlCzJA/RgpWN0MQUdEohi5cqX50HJsWN+Jt077iqdw/vKVFbpEMGiUdC5kRQoUJDdOFevWk7Hjh7lcoyLi6Xjfn7KIHMeRUZEkpNSxnXq1le3eoGUqZBV2bhhPQ8YZ8/8K/6+wARXq4MH9vM6hQoXJrciHvxZyJwsXbyI1q5eRbdv3eJnAyZ8XrViOcd9gxViyZKl1LVfUMmrClvdIdbfSmWQ/vfsmfzCytTg3hAIA3AlhjB388Z1OnrooLokMVgXL8VgRQmxAa6gt28F8TL8XfzPAgp++ICFJqwHsTOt7N21k04eP0aLFs5nQQjnhXb/7NnTtMVnI3+GYA8BxRQQ1Vu1bsNunX7KPXL3zh11SfJAKDt16gSfO6y6II4IQkZTsWIlKqy06+j3rFy+NIHbf0DAZdrm48P3Bl4qFSxUWF1iuXu4aLFiVLZcBX7W7FLuy6TCIyAZjkuuXBw6APcxjg/tG9q1pf/+Q9evXSWE7ajh7c395FcdLpOdO1jILuLuQRW9vNQlSSMWioKQRfGo1oStsHJYWdPZrf/QxZ0r1CU6wh7cIlf3UpSvRGWytrWn4OsX2HLRs0476jZxLdUd+AWVbdyDBSxDCzZYunX6ejnV7vMxx/S7tO8/cspXhKp1eZPFq1vnDtKxVX+oa79AaW/I3asR2Sh/ITpiPfAsJooKlqlOR5dPpX3zvma3Vs2CLDNZKLq6l6HqXd9i9+0rR7fSkWVT1CU6cNy2jrmocLlaSpk6xJ9jastUA+JhwMENiVyacQ1LNejCVp0Q485uXqAuSUiN7u9RybodKDr8CR1YOIHyFC1Hud1KZoqyTW2ZIh5k1/GrqMkbk6masv3TyFC6e+m4upUOuEr3+HEj1R/ydaJy1+rX46AAurR3Dc8zB8R29Go3ghoM+5bqD/6a6vT/lLx7j6Vq3d7m33j2NIruByZ8o5pZQGesZas2LG5hYHL+nE7wN4dKlbyoarVq3PHbsXUru6boo71RffjgAV0NDOQ4M9HR0eyuqJGUpQ0GnPXqN6BevftRm3btqVnzltSgYSPeT/DDh/T48WN1Td0Aa/Sbb1PHTl2oafMWvE8ASwO4vmGe/lS0WHGjlhxYv3PX7jy1at2WmjRrzvGVbG1tlM7p7UTnmBpwrHBVQ0fT3/8i7VQ6r4bApQTWixBOEHj93JkzFBUVleYyTS3ZlHri6VmSevftz1n/mrdsRY2aNGX3vGzZs9GtoKBEgjJi/gwcPJTdZfCGG7GqevXpR63atOVtyymd97vKACAkxPIvimDt0LBRI44zpV93SniWYOH8yRP9upPQQhGutd169KYu3XryeSKGm3L6dOPGjUTnCHDvoJ507NxFObd21LyFrmxq1PTmlx4YwFuqbNJaphjkIDFDb2UbrVwgbru5FWELKXOsVl62hSKsqBBfLyIicVxlK+XalK9Ykd320FZlpDUpYtG99e4HVNmrCp05dZLKlClLfQcMonYdOlHTZi3Y3TZOue5wGTNGRrRvCKWAut25Szel7rTmOuNVpRo9j42j28r1N1a/LQ3aEpSZMSsw3LcdO3dlN8V9e/fQ/r271SXmgxcscCdWKjtt9dnEVpCmgBVR46bNWWTYtnkzXbuW0FoPbSss/zxLliI75dj8L11ka/GCBQvRG2+/x9cN8YPPnjmVqJ2tVKkyjXn7XaU9aEkO9jnZNRXAsufcubNGXbBhtejlVZVsbG25TUf5GAPHDLdxWFL9t3olf07JPQkrrfIVKhFiW4aGhLIAktGg7RwybATVrlOXLl9+YZWvD67TsJFjqGu3HmwxZWilnNb2LaUWiim5h40Bt+Wu3buzVTbux6T6G7B6e/f9sdS6bbsE93qt2nXZAtfYucElt3vPXrwe7nO4AqM+45mmvw9MFSpV4nYM9RieEe8obVvzlq2Vsdgzk/WjUeMmHH84qWtmLjj3/MqzFGF3EGPVEMSWrljZi5ycnDgB4LWrumNK7T1sSFPl2sF9+eb1axy/2pQFHtpiXCvUEbhFnzxxTF2iA9vhGYZnsb2dPd26dZMtLlFX+g8cQj169aH6DRpSUNCtRG0AXK7fVNoMPEMM2xWt75fS5y7uCWzbpl0HtsBE31OrpwhzBAvx5OopQL8Jlt94htjbOZjlISAWioKQRSlYpgYLd08jw+KFO33KNO5BRaspHTEFK1t7ci2q67TCFfnCzmVsIeZcwINq9x3H8zUg0lRsPYit4iCc+M74mOdDaIG1I3geG8t/DXl4/QJFR4RQditrjgeocT/gNC39sAVbpmVmCpauRvbOeSg25qlRF3GIpWUadmPrUJyjaxHdW+fUlmlyYH/JxU3Evss1682fL+1ZncDVPDOQ2jKNfPyADi/9mS004Q5epf1IFic1sL53n7Gc2Cc67Antmz/eIslnain7RFzSAqWUgQDifEJ9UECyo1yFPanx6J+o0YiJPC+zgTe9iE0TER5Op06eUOcmDzpviPGHmKinT55UOm2mA2WDM2dO829gIAlXt+RwzZOXRikDaAwy8CYYg1AAiwy4twwZPpKXafMtAQbhb777Ph8jOqA4XliP4PebtWhFw0eMZBEwrcAa1MUll9IZg1XKGZODeAxmYp/FcgcWboKGpLRMUws6wp26dKPBymAPHUrtDT8GJ3Cjate+ozLIG2WybCCIjhz9BndgcS4A22JfiHmEwbklwXV85/0P+ZoZ1h3PkqWVc+kafxyGFCvuqRzrmywWaeepG0C0oTZtXyQm0cAgb+jwUTygypUrd3zsJvzFd2RW7T9wMJehMVJbNqnZDhZbg4cO52OCkBAdFcXWILDsQIwpCFawDMvM8LPt5WteKQLl3lYZrPXq25/rA+obJsSCRDB7DN4NyYj2De316DFvcd2G0A2XcrjLYkDeoXMX6jdgoMl6aklclPsCltdo/27cuK7O1VGwUCFydc1DnITh2FF1bsqApRPuD1glwXIoKdzcPZT7x54ilPsA8WgNQegJvGwAtnY2/PIAwBIKbvhwH8UxN2nagudrQBiA6IDyDAy4RFt8zOtj4VmQnKaLexyWhbDghPCRlCWVKSB2XQ0M4PqFex9ZXDMaWE2iPcK1K23COtPdoygVUto21J0Tx/w4kY1GerdvabmHUS/w0nLEqDH8TMI2AOtq/Y0qVavyvIzgxvVrFBQUlGT9wDyI0gChDe7cvsWfUwteJgDdPZD4JggLC6HHj3XxorUkRCC197A+eFZDcMTvoh8MizxTaP03CH1XAhO3L6gXEJkRbgEvKQup1pTY56YN69iKES8MYGGs3w9BWaPNwPahyj29auWyZAVwc6jp7c19EISgwO9p9RF1Dm0J6ilE9+RA2Zw8cZz7pOZ6CIigKAhZFJcCRbkj+TQilELvvXjzCeGv9dhZ1OzNKSy2AKynn6Bi//zxbBWntEbkUa0pVe00hudDpKk78HPeDhZxR1f+ysKOucRERVDcM90bGHvnvPz3VcKpgAeLpohX+OjGi4cLyqXe4K+o3afzOakIyg3Y58rHf8HLKFMIaHaOufhz2H2d2b8++qLaw6vn6PDyhNZ/mYG0lOnVo1vJb9UfLEZCqIW1ILYD3r0+IrcKdVl09d+9kgIOruf5aQVvJJ/cvsIZoFd+2on+6FKQ/uxehDZPGcPXAL9fsm5HFnIzGxCj0IFHEPj798x3m0LH3s3NTemwR7A7WnKgs4lOJyxPKqidUFOgs92tew8WRWCVt1HphH3zxaf0xafjaPaMv9giEoN4DNQxeAToeP0+dQp9/snHPGmZ7mDBMXH81/HztckwEyYGgPhNx5yOLNRNHP8NTfzuGxr/9ZfscocOXiG3ItS6bVul2iUeIKSEggUL8iAnOuopH58p4MYGoRZWE4g5ZkhKyjQt1G3QML5DfkrpUE76YQKXIf7iOzqaEKVNlQ0sdVB2iG007fdf+Tqiswx3bxx7zVq11TXTDtz3kKER1xNiMGKuffvVF3y8qAcb1v9Hjx8ZfxsP6zdYDqBuYTvUuR8mfEuBAbqBNyzjjAm3sAZEnKc///iVvvzsE/6tHyaMZysClI1nyZJUroLx7PGpLZuUbofjh/BbwtOTxQQc63fffkUTxn9FP04cz+eIOtm+Q0cuu8wK7gNcJ1idwFIjMwAREWJdRHgErVyxlOvAb1N/ZqsU1CVYquoPHDOifcPAEVmhYX27b+9u5Z74nL6f8A19+/UXXG8gTkFswb3+MkHdgjCPZ87lS5fp7KmEoVa0thEiWWqS7uAlQLESJfjz9WvXkh2Q51OuHSx4YM0NEVMD8yBMwRoOA3xtnotyb2nAOsnv6GG+t6rXqMHJPAC+I6EMtoNL5KYNG5IUKPRxzePK2eYhVjx6lLh+o+5AvIZ4duLEMbp44by6JOVcUp7bOvfqPJQnX8b3ve8rdRlCLYBQZUzEKl2mHIsxaMM1i0+Q3u1bau5hfRo3axH/TIV499e033hbtB04dlgcxqjjIg1YleKe1e5xc7L5oh3Q1l8wbw7XK7xImPrzpPj52oT2RbtfINTihSaeX3jh4FYkcVgViEp4oZjci1FLgWOCtSRwdHpxH6blHtYo4u7OfT/0Z1FXkgJ9DBsba+VZ+1Spay/uUdRBuEK/9c673D/Gd4D4jRr379/j64brgBcRsIrU1qtSrRpVqlyFX1Ls3ulLCA9hCTA+uR10k3930o8T+VqjrqHOac+oevUamHVf3Lxxg8KUcsa9VKxYMXWuaURQFIQsCoRDEBX2ON4yC1mU+0z1ZfdXCB+Pgi5zEgygL/BBhDm05CeOvQjrr0pthnDsOog0BUpX5+VnfOYnsHZ7fCuArcVALjdPdkk1BL8FUfFVBa7hEF+jw0Mo7KHuAYCEMj0m+VDVjqO5rFBmofd0bk/6cSlTU6bJUbpBFxYL4WYLcc0Qr/YjqXC52myhd3TFbykSf9OLtJQpOLl+pk6oVUAsTq/2IzjJS4WWA7iO3/X3oz1zv+TlxkBcxrdW3+Fp9LJrNHjOcXajhkBpjP3zv6WFb9ShvX9/TbfPH+J5uHaw/jyy/Be+FjY5nSl/qSq8LLOgxUA09rY/OapWq8Ede3PfTKOziTiLz5TOUvWaNZO09IP4gjgt6HStWLaE9u/dwwMy7OPq1Ss0d/bMeBcSxKjROmRpwbt2XaWjmIduK+eyesXyBBaX+vF7EAg/r9KJTgvojAF09GKUTqkpcL5aHx1vuw1JSZmmFnQya9asxWV85PBBWq5cD7xhB/iL75gPkiob/4sXaY4y0EJMIxw34kRq1kPI7GiJawiaNG3OFh4Q1pYtWUy7fHewsAgwWDqwbx8tnD/XqNCAY3im1LnlS3Xboc5B1PDdsZX3B1HI8PwwyJv2+1SOfQa3b9QRAEFk3X//cX1Chx1Wk6ZIbdmkZDstPhTOAzE79QcrOMc1q1fw9cQ9oAkjmQ1YsFStXoPPC4PwBw8yz7MLwhEG77gGqAMQFPbt3s2fYY2XUxmsaqR3+4bttZiCEAl8Nm6Ir6fchhw9SocOHeT1+AWTnviZVjD4fveDj+iTz76iz7/8hj4a9ynXRcTCXPzP/ERCG1weAbK74liw7dfjv6fvvv+Jxk/8kcYq29dr0IiFAWM4OjqztRHOy5S7sD529vb8Nyw0LL5NgEvfG2+/w7+TQ2l3YUWpidfOLi/EAfzGjm3bWATDsxDhEdAGQxjAPQRhYOuWTfEiWXKg/KvX8OYXSBAerl1NnMyhVp167JaJ+oHfxjGklqAbN7icTVltpTfof6AfgrppTMRCvYR1LcB9EhL6ItNserdvabmH4ZJfE+EwlHmX/P1p7qwZXFexLc4dzxHEUMZ9mZEgpifaNdTtipUSx8xDOaIvA1fYy8p5pBUtWQpc9/EMN0aY3jXXSMs9rAErQlgTok4lZ/Fra2PD7U9YeKjyezoBE+7Pg4eOoA6dOrMQjntee1msL34CvARANnFQrVp1gjsy2snmzVtxXwFi8sH9+3i5MfCCEu0hJrSNH338CbVr34mPwRhHDh+iaX/8RocOHqAnqmuz1j5CZMQ9gxAqSIaTHAgVg3A7wK1I0hmngQiKgvAaAHERIknrsbNZKIHocXztdFr8bmMKf5Qw654G3JCPrviVnkVHsHtyw2Hf6UQapXG95reds+DqA1EFSTSeKw9Jl4LFqNHIH+JFTQCLrZbvT+Os0lkBxKZE7Lwu361iAQznj2Q3i99rwhmujZHSMk0KxGWEmzREs9sXDtP5HUvUJTogVnq1G8bHCes8S1novUxSU6ZYZ8/cL+jx7UAWHyu3HUr1hnzDSV4gRO6e8zmvYw5wW3Z0LUQVWvSnHj9u4jJOCaH3gyjumWnRKCNBzC903lKajAVWWnAPQQc6qWQshgRevsyJRPCb+G1TwMUGHatbt4Lo8qXELuno8CGoPcibT+d+khbQAURyAHTwz54+ZdR9G5n6dIMv2/i33alF69BGRIZTpJkvU/LmTezyDMwt09RS3LOkcrzOBNexI0cOJ7rW+I757KrmYM/uR4ZgYIUMiPriAbbDYAXkdMxJ9uqgIC04Kx33YqpwByvTpDK7GgODOWTZPnc2YRxRxBiLiXlm0lLUFKhHKJekSG3ZpHS7UqXK8OAP8eQgxhmCwRYGCrgH9APeZxZwXHAHQyw0lOlO3+2J6mJGAVEBGUUNhaPQsBCKjY1j17Lcri9eeqV3+4btIX7AVQ0ua8bK7eqVQKUuxSQSP9NKDqUfg/iBqI8Y+OM64tzxAqRpi1aJhEE7W51VGlxGES8UwnhsrM6qCmUJoSGpMAJYjkyviEUYEpJ8XDB9cCwNGzehMW++w5ZneBGx7r81NPOvafyMNAau1fq1a9hKDaJch86dqXmL1sq+svNA/sSxhPHVkgLWbBBpcE/v2emb6DkEi7B6DRtSbNxz8t22NVnhIznw/EHmdJy3MautjODK1UAKDQ1jEQvWiPoULV6Cn70QQJDhWJ/0bt/Scg/DnRsWughXAkt4/TY8MwFLTy02M0Qs/ReWeLmDeeD8uXNprovg4oVz3Jbmyp2b4/1pLtAAL0MQ57FchQrqHOOk5h4GiFcN0M4gVqO54D73qlqN3n73Qy4PtFH79uyiP3//TWlTjWdPR/u7dbMPZ1vXvYhoTZ27dOe2C88QHK+5zzZYZKO86tSrR+99+HGKXfq1vo254LgePtQJihAhtbAwphBBURCyOHY5XajnJB+q0LwfCzaPbl6iDRMH0b5537B1GxJdmOLctkV03neZ0rDEUaFyteJFGmRsNibSHFnxC2cQRkNfsk57GrHwAo1c5E+jl1yhbt+vI4+qTTkOHjBX5MmMwEW36Vu/cCIVGwdnThSyfdoH5DNpBMVEhXM2ZVOktEyNAbGw3qCv2FoP2+5fMD7RtjW7v0+OeQtzhuQDi75X52Ze0lKmXH4Lv2dLTKf87ixGQjQ/sW4Gi7jGWPpBc3ZX1qYZfTxpy8+j6cap3VyWuC61+nxs1NIWojziJPb+ZYdSxy9yHcfU5uNZZG1nuQGapUBHAG56uC9T2iGEey3cKiFkQdAyFwyQEG8RcRdr1q6doMOoAXFP63wjiLopq0lYfqHzicGjqbfZ5uLo5EjOuXTuHuiMwprGcEJcPXsHB2UQa53AhSU1RKkdVgy0EdzaHO6ZcI02p0zTguZOFBL6hJ480sUvMgTzsRzrYX1D0Gm1xIAjOXLnycMDNQgnyQXTNwYGA/dS4PavgUEqLGd69xvA1gL69SYpy0SQ2rJJ6XaF3XTWPm5u7jR23OcJjhHT/z79khMEALhAZjYgtnCSk7g42rFjq1nWZ+kFXN8e3NdZ1yRHRrRvsKq1t7djK2ckYzG89ph69OxNVjmsEomfaUXfTRNudnC19PM7QtmUoSbCC7Rt34HvHw3NmgflgvUQVgFhJ9g9+6vPacd2JP+KpVKlSyt1InHcLySzgNADF+5HwcbbK2PgGTBi1GhqoQzu4VIPUeqP336lw4cOkLXSD9Gsyo0B4QCJtdB/w7MRVt24tju2bTFbGICQ2IIF1uzkd+QwvxDRB89rJHuC4Hv29MlEy1PD8zhYxOnibRuz2soI9EUseE/oi1jllDKCiHxfudeCbiYM55Oe7Vta72HNsuu+cm+kJMxMRnCeXa+f8QtL/azjhd0KU15V3PW/mHq3e31grXn08GH+DDfxT7/4ij79XGfZ/OnnX3OiK5Q90Cys9UnLPaz1m4wlSjKFjbLP7r36UPcevfiFCWK2zpn5F21SLcCRPMYU6LchmRJC6SDMA8RIlKXPxo0mn+uwJtR3Udfa0z27d3E9w/mZcunH+dWt34DjPY/77Iv4+2LUmLeUPlPKLNK1NgO/p10PU4igKAhZFE1ggsCCGHSxz2Lo7LZFtGxsa7pxchcv00+kEnrfeKf91IY5nE0YPIuJphPrZ5pMbgGX2jVf9qDTPvMp8slDdmWFOKT0nOjJnat0dstCCsW+lI4Xvr9qIKg5jt0hV37KV6ISdyqvHNlCKz/tSBd3LlfXUjqEtjprEYhixkhJmRoCMbHN2DksaiFmn+9fYxOJZpXbDeM4jRDijiyfmildnTUsVaawwAw6u1/9RuwGjXI2F5SV/9419N9XPZV9beR5zvk9qHj1hAHYK7UdSr2nbOO/eYuVJ1tHF67jmKztHZU6n/keq1oMRLwlT0kyFnRMKnnp3F/MScZiyKmTx5WB3kMqULAQlVDfcOuDgZOVtfmJATB4xCAyLSBjLP4BnB86h4YT3pDrD3zTgpaBF7tLap/WynlhgIlBKcQuUyRXpmlBcycyl5Sub0k0MSFOaS80N+eXDQa8w0eNoYGDh/EgCNYC+vUmuTf46QXEXoDj0T8+/SmzHKshCBiP5CYAruhJuYNldjKkfcuRXWlnMGXj+9PYtdesB18maMcgMCKkBMIIgCpVq8ULPUBzabx29Qqvp4VXABik7965g2Mj4liRSTetx8x9DQVYF+KZCMtGWI3NmjGdBQKgf80ePDDuvePnd5ju3dOJyhAzN/tsMhpWwRgQExH3FWLu8WN+tHnjei4rfeAKXbJUaT4mWDeZK1S+iiDTPgQSJO9xL1qU52nW5zhvZIA3bN/Ts31L6z2siVeIB2hKjMwsaB4QKN8KFSrG329wgYZ1HRK3GLMITQ24ths3rKVlS/5l0RjgBaGVMh6FVdyWzZs4xA7Qf4FjqXvYXNAXw7HCTRmeLRDY4E487fffEiSZSk6khFv+2VOn1G9Ex/yOGrV2NQWOAe3p5k0baP1/a7h9RP8DXiX6oN344KNxHHsVMUbZCl29JyzZrzWGCIqCkEVhwU7tiMCCy2fScPL98yMWTjQgStnmdOFEKRFPEr91hztt3QGfk1O+IvwdLqFVOoxiUcsU2P+umf+jOYMr0LRuhdn6a3rPorRwTG26vG+t0pGy43XuByQM0P0qEHr/hvIA07m0Il7k7lmf0YaJA7l8NSAy2TnprOkiHt3lv/qkpkw1CpauTm0/nsvXLVzZ906lnDVxWB/3yg3Z/RcCV6sP/oqPEahNiBsIcAx9f9vF83pN2cbz0htLlClAkhuPqk3Ub8SftcQ3KQXZppHoBYK4tcMLi0Nco+rd3mbxEPFAd836lC0bNSvHtd/0oacRieO+ZDQpjYGoAcEKWe7gWokYOykFA8SzZ8+ypQHixxiCThKm5MAAmZR+EDrloakI3m8Kw7fAxiZ0HtPC48eP2b0QHc6k4tagg4z4VkhAgZhapkiuTNOC1llPimzZs7HwCUKepMzN8KWg1AuuH+lAy9ZtOCENBsDbt26OTwCjTQEpsOBND3A8+sdnbDJM6JFRYKBTv0GjeDFx/7695LsjbXHjMpqMbN9QR5GYwdg116ZvvvyMY3O+bM6dOUNIgAArF1joaEQpbR3A4N+YAAQBBu7+gAfEBi8w4niwn9jN3BRIRqZdD7gbIlEBEiLoW0DBBRyDcFg+wzLYENTTZs1bKe21LvMsfhsJqsyJaVu+QsV4MRFWh+vWrDLqAoskJRCm4PI79n+fxcdQ0ybN/RR/tXlwGTeXtIoslgSxI/G8w/OsolI+AOJxrty5ku13pEf7Zql7GPXmZYo5lkDzgMD5QqyDtTPqNeoZ5sETwJKiKPZ5+tRJ+nXKJPrqc12Cs6+/+IQt8Q4dgKWhNd+HmrAILHEPa+uaY736+FGw0pbqxifoey34ew73G/VfrqNtQqgYgPWNgRcJ1arXUL8Rf8a81IDyiIyIYuEXMR41cK3ad+zExwO3/3lzZ8cnjsOEcoWbd2owxz08fXphgiCkOxDsWDxUGt/Aw5vY6suQIpXrk429I8VER9D9wMQPbiS4QKILcOvswfjYf949P2JhLKWUqNOOLbpC7t2gG6f2qHNfHe5dPknRYbpBNOJFntk8nz/r41apHjm45GVB6uH1xK54qS1TiImtPpzOFqewTNz26ztGE7G8aliiTCH0IckNRNTHtwIp5M61BIlvUgosd9H5U7qS8VnJQdFqzcjBOS+7Ux/69yc6vXFuAoE+M5LaGIg4fwhW6OjDLQnuSakBFpGwjIQQk8cgHiE6KKFqHDhkwTNlVeChdG7hfhwZGUHhRjqIGlgHrnxJgcDaCLANtKQALxNkb0ZGWAQBNxXzBmUNiwB0EPGGG65VSZFUmaYFrbPu7ORCLrmND9AR39HJyZk76w9TWScsAZJ0RCmdelzzYsV1mV5fJprVDECSCd8d29PNMjKlaAHv4RZmyaQbLwvU/3r1G3LcRADLRCS+MbetyqxkRPuGTKRwy4YbYEpigL5MrGyslWucnQfy0U9fxBiG1Q6uMQb/CAlhDO3lBdYzrA/ByuAd+8O5Ojsn78YbdOsmx8bFfo4cOsjJdAyBVQ/CXURGRSptd+J2GEkVtBc5p0+fio+n2LhpM67HpoCYCHdJzTJx1bIl6RpPz8EhJznmdOJrEKmUQWZBX8QqVsKTLcHKli/Pz8KgmzeM9jvSs31L6z2shS9BhmScW3qD+wfeD+Zy4fxZzp6cM2dOQuIbWI3CejS1L5VTS/ESJTim6qPHwQniE1riHtYsHo29pDAE+0cCGIA4zVoiNH0Q6xfJofASB67vhkDoQxInvNRHEh60e7p4irrETinFlDcLYtHmzuXK7tTI5n/5kn8CoTU15FXD2kQpZWnY/hoigqIgZFEg2EG4U3o5VMK7TSJhBd9L1m7PyxFX8caJhJZuSEhRvds7LMwgLuKmycPJf89qXla0ejNqMPRb/mwuVTqOpjINu/JbZVgqRoWaH/PGXD748EM6rnRO9h84QCNGjlLnWo67l45T8DVdDJFC5bwTJe1AvL2yjXqwGzkyFl85vFldoiO1ZWooJiK2oDHLRI0N3w+Kt5ozNmnHBTf3f99pxPMQU9AYmb1MsbzJ6ElstYk6deCfCXTg3x8oJjKM52GZsTiIpsC6nrXacqzP8Ie36dqxHeoSIjvHXDz/eeyzRJaIECHLt+xHVknEJNVo0qQJbff1pZOnT9PUqVOVjs3Li7uY2hiICGYOwcpYUPSUAItIvFGFO0spI4JaYEAAd1QKF3bjzMGGIEZMpcqV+bNhtkcNdIAhcCHzXZ58SV9ruKbdUbNClitfgYN5v0yQKe9WkC6cRDmlg+5WRGeZrA8GqZ6eOisAc1zLkyvT1ILA4bAkgmuMlplSH3yv6e3NlkaGHf30BtaRD1S3Q68qVV/6dcQAQHNrilIGjYbgGr7sYzCXK4EBfD9gMIAg8pkZ1ClDMTGllol46YG4gB9/8hm1atOOv2cW0rt9e6zclw8e3tfdq7Vqp2rAaklwHJUrVyE7eztOwHFdz9pIa2+clDJA5l5DIBZ5qG6wGIgbWshgoB/y+An/RnFlMJ0c9+/eYasmU2WD77Xq1OXlcO00zCyO+7tj567cFiAGHETBPbt38jLE/ETsT2MYiommLBM1YFWnWRUZmzRLaH0LPVhNJQXEMLTb0VFP4zPSJoXmOomEF+5Gkm9ZksuXL+nqgZMjZ/su7FaEy+e4mujEkPRu39JyDwdyAqRn3AerW68B1630AFaSsJaE10PhguYnpkGdR93HceIFKKxG0Z6aEndfBkhIBJddvCjA/aIfZzCt9zAIuhXEQpuLcy7KlYzIi2uJawqM9RdRNvXqNzCZrR3Lu3bvydtBlEVyNWQhR7IxzMOylDyv+LyVvhn6aNhfYOCLPj1EYLy4hsioWX9rQKCvWasWt8PmgpeoudUXy7j+ySGCoiBkUSCuQLiLjYlhYaXlB9OpZN0OvAx/8d0xnxsLLyc3zCH9pB4QVWp0e5eTfmA/fqt+5zh8SO7BSVdyWFG5Zr2pfPN+6hbGyV/Si6p1fYvdaesN+pJs7J3o+vEdvD99IMYUqVSPPKo0iZ+QQAbA7TRPsfLx813dEz/QgZeXF/Xo0YPN9N09PJSO0BgWbizNuR1LucxQNo1Gfk8VW+kyLSOLdbtP5nMcQJT5BWU9fbfd1JapvpgIN9vDy6YoD5XsCcpKm1DeliSzlynw7vURL0f9vbRnNQUc2MB/L/gu43n5Pb2o4dDx6tqmgfs3EsL0/nkb5fOszFaIZ3zmJ/i90AdBbCWpEw/7c2xSfK7e9W3qP20fJyJKyspUY8DAgZz9D8GvO3buTO+88466xLJAAEltDER07CFYpTVuDjrisIxEpzpfvsRJPLSYgOiQdenag6rVqMEdLHScILINGzGKXb/Qedq/d4+6VULwFhpvozHQg+sXRDtsb4ojRw6xZQk6+YOGDuOseVrAafw23vT27N2X+vQbwPPSAs4fWWrRgUQnsG//QVSpUmXu4OG3cL44bxw7LBP9juoClSdFcmWaWiBU+vvrLIARx6tDp87xHXYMmvoq5eFVpRonSoAreGoSjFgKuF4dPrg/frCG61i9es346wgxAtd1wKChFrFi0bdsxSC2kDK4BLBOGjBoCGeihcVDZgBix+07t9htslXrdtSlew+2VAa4LzAQRxbN0W++zZ8zChyLJibi88ED+9j6Fla3OC79CcdvauBVobIXt3POzi6c/MNYAo+MIr3bN9wXR5X2DfcoBqwjR4/heJ9a2eH+gMCFOKCt2yZ8eWdJ8HtFirjzfYFrAk4cP5ZAlEB7c+VKIK/bpn3HBPEV8ezq2KUb5c9fgNvOQ8q9bggshAMDA/izm7t7InHBEP02A2XTf9Dg+PsYf/Fd+z3DzOJ8jO3acVuDawULWuxn/57dfL/hXmvWvCU/O/TRxERcu3PnztCeXTvZ4suwfmNKLulBWoA4BLHh3v27LMokBY4DyS5wz6GudevZK9myTQvaCzI8E71r1WFhMakXoOndvqXlHr588QLdunmD161Vuw4/Q3FM+I7zRYIZ3CPYpyXRT57WvHVrvv74nBz6fYsiHu5UppwuE7kpcddS4BkNq8S+/QfSqDFv8/XEdcb9pU9a7mENvNTAyw2IayU9S6lzTYO2B/vDvd9vwCC+5rh+6BP16tufSij7wPEYy9Zeq049KlkKGaFj+eUDxFAkGUOyMS3hVONmCeO0GwP1Da7no954i2p61+Zt9+7ZlaA9fcTu2TF8XvXq1ef+Jq45jAre++BDftbinjEXN2XMh5c9OHf/S/7qXNNkc8pdwPzXgIIgvFJA3Gj90Uwq7q102FXXEX0gjpzaOJv2zXthGYdt2nw8h4rXbMlvcU5tnEN7536lLtVZ2TUZM5nFH4gtmyYNi08KArGvwxeL4uMD6gOB5vyOJbRn9ucs9OgDMaz12Bm6BC7JAAs1WOAZAiuvZcuWU2Uv3ZvC6OinNO2P3+mXKVP4uyVpOHwCVWw1MD5jtT44NyT12PrLG/HnmZYyrT/ka7buNIf7V86YtDTUById4ijCQnHd+H4mE8Jk5jIFiJFYq+84tvi8e+kYn4tm+QoBt8Nn/1D+klVUF+Uf6fh/f/GypOopgBv6sTV/0eElk9Q5OvT3aQzEtbSytuMEMvsXjqeT62apSxIyfsIEGjBgQPzDffeuXdSvb1/+bEnKKYMZCGNwj50zC0GrzXvDjMHD8FGjWfD8b9UqzsCZHBjoosMMqwnDuEUYHA4bOYrf8ANYSMyZOT0+kD2sIXr07GNSkIH4h+DdprL5onPXrkMn/n18NsTYMUFsatW6vUkXJnDJ/yLN/9v8xD5J4a10Atu078CDEmMgVtg/C+Yr1+jFG/W0lGlqwbXv038AW6caAx30g/v3c0B1/c56UscKtOWWOk6Aa924SVNq1KS5yeto+HsYzI0Y9YYywLehxYsWJIohpy1HXYTVj34MTS1hiLFOOeoo4mUiRhy20bcYSm3ZpKVMMdiC0JlU1mBknZw1/c/4dgGDumEjR7NImhyGZZMaUvJ7GCgZu14AIk7/gUPYAgtY8r7VQGbvPv0GsjvxrBl/xrtdamjLgeFxpnf7hnXatutItevqLHVMcWDfXtqwfq36LfVo526qbYMIcOjAXtrs45PIBQ/tzeBhw7m+oj2JVsoCiQ9slWuJ+wxls27tGjppQtCACDFAufaIw2jOsyq5skE927R+HR0+fFCdk7D8cWwblTLTr/s49oFDhrHgAMFg3pzZ8S9bhgwbGR/zMDnMvae0fZpqFwyBODNsxGg+vi0+m+KtKk2B8+3dtz9VqKjzaoJw++/CBWxJ+LKoWKky3yMQPQGy2SIBhSlS077pt+1JYaytScs9DLGxr/JMxTGbwvDaa217ciRVB5J6XiX1HDZsl2/dClLWnZGiF9LmYOreQHvhd+QQ+Wxcz0KdIam5h/XBNhAuYXFo7rkl1V+EuIeYv4ZhOrQETHiZcPHCea5TODcAgbBP/0HcdsILaNnSxexSrZFUu4F97PLdRjt9dyT4Pf19GgP3gbWNtfKctDf5LNXQL6MrgYHK83RW/LGbQiwUBSELA/HFZ/JI2r/gO44tp4kxyCyM2HVI1KIvJgKv9iN1yS2UBuWuvx/tn5/QugsWYLDcwr6Scyl9Fh3JAtm5bYto6YctaNeM/yUQhCxJeFgYzZwxnQd1L5vdsz+jHX99SPcDTsXH2MPfx7cCaOf0j2mzUub652nJMk1PMnOZwmXfq91wFhORUfzAwgnxYiKA9ef+BeN5GdaBq7mhO7U++K2w4Nt0dus/9O+7jROJiQD7xP105bBPfOzE58oAA0Ii4imun9CfnkYmb7X1w/ff09kzZ9VvLwd0CFIbA7FMmbIsJgYHB9NFE4PclIDOmhYnyRiI9fL7rz/TcT+4t4TFrwcXN1gsTf35J5ODbYD1N6z7j9asWskZA9HBS44D+/bRn39M5U4cOtXabyJrJ94gr1i+lBbOn8fzLAE6twggjt/TXPfwm0+UewsJPmb8OS2BmJgcyZVpasFAGB1sCA0PHzyIL0t0JlEuGIRsWP+fxX83NeAYEMtwxl9/JChXgM+Yt2LZUqODptSAjMOrVi7ngOfa+WPfqLeoo8hWm1mAsPHb1Cm0e9dOpf1+FH8d8Rff4Vo87ddfUtQuZFbgeo/BeGaok8ZI7/aN11fuUdyrKBv9wTI+B1z254QtGzesU+daHq2eId7oH79OoU0bNyQSEwHam1nT/2JrG7h2Q0iEZfxTpR1G2fw+9WeTYiLA+SGuGSxxatauHR+WwBQoG7wMWbRwPrdnWlmi3ccAG220oRCBcAbVa9TkZyralMOHEi7HvbZ1yybeF0SjlLoxvmxgbQ4xEVZ2sLZLDpSRz6YN/GxKL3AdEUYD4AUorn1SpHf7lpZ7GM/1GdN+5/tN/5mKv/iO+ceOJv/SNqXghYFWz5MTg/TBM00Tm3CeKfVuSQ24//CSZt/e3fTL5B/4JYIxMRGk5h7WB9vv37eHhTyIpuUrVlCXmAb9xbmzZ3DbqZWl1if6e/ZMFr+1OgHwogRJ3CAm4j5ar7Tf+tcA57Zu7WpehnUQSiEpwVmr1ziOyT9O4H6P/u8B7HPp4kV0SGlz9fuYuAfQn5s5/U+z+0IIQVG8hCfvExah5tQfsVAUBCFLgdh0cCeFCPbJuHG0fv16dYmQWrJamcJiFG7SwTf8MyypyqTJk6l3nz5s8bBgwQL64rPP1CWWAe4fQ4YO5zg0Cxf8zW8ZzQFvYAcNGcGWH8lZCQiCIGQG9K3kICZs3eKjLhGyOpqFqq0yMN+2dTNff0EH4tHBejKngwNt2rieBQlz0aykkN0Wln4QNITXA81CEoLX7FnT+SVaVgIvBzQrXAi+c2bN4HqeWYAgGR0VaVJUfZngZQhcxz1LlmZr/0UL55klKIqFoiAIWYJChQrRDz/9yEG88Vbm6JEjIiamkaxaprB0RDKYjBITBw0aRE2a6mJR4g3n6pUr+bMlSW0MRHePouTm5maWlYAgCEJGg1hW9Rs0ZjERA+CjZsQhFbIOsG6D5Rho0LBxojiGrysQBtp36MRZtC9fukxHDx1SlyQNrD1r1KxF7u7u3O9D7EsRE18f4KpbtWo1vvaw9MtqYiLAuW3bsplFRLikt23fkUXGzAIstzNCTAR1GzTkuJCICbp500azxEQggqIgCK80nTp1oqNKh2f/wYPUr19/skUmvePH6fuJE9U1hJQiZfpyWL9xI10KCKDvlHKEq8W9+/fo119/pWPHLBvwGm83y5Uvzy5mJ475md0hAFWr1WAXDARJR7B0QRCEzEiLVm3o8y+/oY/GfaoMgDwpNDSEVq9akSUHwELSbPHZwEkcEEcT7oMQCV5nIAoiZi8S3egnkUmK3K6u9O4HH9GX33xHnbt246zUp0+dpJ3bt6prCFkZCNB16zeg7j17cx/QWFKUrASyMiN2JVyfIaI2ado8U4mKGQGSSDVq1IQ9p7QkMuYiLs+CILzSdOvenSZMmEBW1jZ08+YNZUCximbPns3x/4TUIWX6coDruKcy8A1+FEy7d+6iP6dNI3+l0yYIgiCkDLjledeqTSFPntCpUydp964dnJFSeD3RT/ByO+gmzZ0zK0Fc1deJNm3bUd36DSkiPIKWL1vMMQCTIz5hlY01ezb4bt/KWbRhzSVkXYwlgMH9M3/e32wpl9XRkteA9WvX0JHD5lnyZjUQ3gCJWKysrI0mmUkOERQFQRAEQRAEQRCEVxZnZxfq1bcf7dm1kxOovK7AQrNzl260e5evWWKi8PqiCYoQj/ByZv/+fZzQxVgSpawIrBLr1W9IRYsW5UzdGeVqnNHAQrVNh44UFRlFWzdvSvGLBBEUBUEQBEEQBEEQBEEQBEEwG4mhKAiCIAiCIAiCIAiCIAiC2YigKAiCIAiCIAiCIAiCIAiC2YigKAiCIAiCIAiCIAiCIAiC2YigKAiCIAiCIAiCIAiCIAiC2YigKAiCIAiCIAiCIAiCIAiC2YigKAiCIAiCIAiCIAiCIAiC2YigKAiCIAiCIAiCIAiCIAiC2YigKAiCIAiCIAiCIAiCIAiC2YigKAiCIAiCIAiCIAiCIAiC2YigKAiCIAiCIAiCIAiCIAiC2YigKAiCIAiCIAiCIAiCIAiC2YigKAiCIAiCIAiCIAiCIAiC2YigKAiCIAiCIAiCIAiCIAiC2YigKAiCIAiCIAiCIAiCIAiC2YigKAiCIAiCIAiCIAiCIAiC2YigKAiCIAiCIAiCIAiCIAiC2YigKAiCIAiCIAiCIAiCIAiC2YigKAiCIAiCIAiCIAiCIAiC2YigKAiCIAiCIAiCIAiCIAiC2YigKAiCIAiCIAiCIAiCIAiC2WRzyl3gufpZEIQsSvGaLalmzw/JtWhZsrK2pbjYZxRy9zqd9plHJ9fNVNeyHPmKV6R6Q76hAqWqkLVdTnoeF0dRoY/o8v51tH/BeIqJClfXTEz2HFZUvnk/5Xjfp5yuBSn0/k1aN74fBd+4qK6ROTB2juGP7pL/rpV08N8fuIwtCa5h9e7vUt5iFcjKxi7+985uWUh+K38z+Xs4Tu/eY6lwhdpk6+CstPrZKO5ZDIU/vk+X962hw0t+TvJ6pCfpWaa9pmzj30uKE2un096/v1a/CYIgCIIgCIIgCBoiKApCFqfe4C+pctvhlMPaRp3zAgg0AQc30tZf3rCYWFOp7VCq0+9/ZOPgzPt8Fh3JIqGVrT0vv3f5BK2b0J8iHz/g7/pANKs78AvK7VaShS+QGQVF/XNMxPPndOvcIdo0ebjRc0wpKLu6g76gSq2HGL2G+L0rR7bQpp+GJbqG5Zv1Ua7/12Tr6KLOMUDZ9u7l47R+4kCLHGtaSM8yBSIoCoIgCIIgCIIgpJ4ctvaOMloShCwKLP28e37AFm2PbgXQrunjyGfySBbn8hSvQA4ueSlXoeIs+t25eETdKvUUqVSPGo34nuycctODq+do/Xf9aM+cL+jY6mksjOUv6UVOed3IKU9hCjiwQd1KZ5nW/J2pVL3r2+SQKx+F3LtBTyNCyDanC//1372KIkMeqmtnLPrnGPH4Hu2b9y1t/GEIXT/uS64eZcgxTyFyzFuYrO0d6ZrfNnWr1FOqYZf4a3jn0jHa/tu7tO23d+iOvx/l9/Qie5c85Jy/KMXGRNHtCy+uoXMBD2o8+ic+Hhzn/oUTaLNy7Q8u+p5unz9EeYqVp5y58pO9cz6KDnucYNv0Jr3LFFRsNZBy5s5PVw5vpkVv1afDSycnmq6f2KmuLQiCIAiCIAiCIOgjMRQFIYuicx3uQ1a2DuzevGXKaHY5Bvi74/f3KDz4Dlu9lW3Sg8WctFKh1SAWuLDfXTPG0f0rZ3g+LOcO/DORLelgeVioQm3K51mJlwH3Ko3IrWIDXgaBZ/n/2lJU+BN1aeZCO0e4cO+a+Qmd2Tyfzw+C3IbvB1HwTX/Klj0HFfduleAcUwvcfc9tW0z+e1bTqk870Y1Te3g+xLbdsz6lqJBg5RpaK7/XmudrFKlYjxzzFGb35lMb59JpZdJcm7GP/fO+4XPAtrkKl+D5GUV6l6kgCIIgCIIgCIKQNkRQFIQsCkS63EVK0fO4WLq07z+6H3BaXaIDYs21Y9v5s3N+d3Kv3IA/e9ZpR8MXnKe3Vt+hgX8dIlf3Mjxfn5o93qcxy27QW6tuU9txc3meU74i8S6kEBKNWbzdOO7L1pAOznmpaLVm6lwIXLsp+MYF2j3rMxaQMtr91hQoi4Klq/FniHL6VpYAxw3hDyKe/jmmtkw19sz9grYYcUsPOnuAwoLv8GfNpVwjh42t0sJnp+fPnytlHqXOfQEsPmOe6uY/jQjlvxlBasvUPlde6jnJh8t09NKrVLndMJ6vT6GyNWnInBNJlntKQWzHqp3eoB4/baKRiy7x9eJjWHaN+k/bR+Wb91XXFARBEARBEARByLqIoCgIWZSCZWqQjb0jPY0Mo1vnDqpzX1CmcY94cQZilGvRcvwZgs6FnctYvILbbO2+43i+BkSaiq0HsWXb/cDT5DvjY54PoUWL8fc8Npb/GvLw+gWKjgih7FbWLGJqQOxc+mELtkzLzED4snfOQ7ExT426iLt7NaIyDbuxdSjO0bVIaZ6f2jJNDuzv+fM49VtC4BIdFQrrRZ0FKsRlfSq06M8uvxAT71z0U+emP6ktUwiNh5f+zBaacAev0n5kAsEQ63v3GcuJfaLDntC++eMtEoezlrJPxCUtUKoq2Tg4xcf6RLKjXIU92c280YiJPE8QBEEQBEEQBCGrIoKiIGRRXAoUZTdRCEah926qc3XCX+uxs6jZm1NYbAFYD+KSxv7549mlFmKJR7WmVLXTGJ4PkabuwM95O7inHl35a4qsCWOiItjSDNg75+W/rxJOBTxYoEO8wkc3LqtzdeVSb/BX1O7T+TrhThWZ7HPl47/gZZQpBDQ7x1z8Oex+EP/VgEh7cu1MevY0ijNDd/9+PTUYOp4Fum7fr6OKrQfzehd3Lo93hc8I0lKmV49uJb9Vf7AYCaG2Tv9PeTvg3esjcqtQl0VX/90rKeDgep6fVuLi4ujJ7SucsGXlp53ojy4F6c/uRWjzlDF8DfD7Jet2ZJFYEARBEARBEAQhqyKCoiBkUSAcgqiwx/GWWcii3GeqL5Ws24GFj0dBlzkJBtAX+CDCHFryE8dehPVXpTZDOHYdRJoCpavz8jM+8xO4pz6+FcDWYiCXmye7pBqC34Ko+KpibWvP4mt0eAiFPbzF8+Dm3WOSD1XtOJrLCmUWeu8GL9OPS5maMk2O0g26sBAJ0RDimiHH//uL4ywipiUyPXt1GEGdvl7KYhcSsexf8B3tUpZnJGkpU3By/UydUKsAN3+v9iM4yUuFlgO4jt/196M9c7/k5cZAXEa4LGtuy4PnHKcmb0xmgdIY++d/SwvfqMPZn5HcBuDaXdqzmo4s/4WvhU1OZ8pfqgovEwRBEARBEARByIqIoCgIrwEQFyGStB47m4USiB7H106nxe82pvBHOkHREFi4HV3xKz2LjmD35IbDvtOJNNlz0DW/7ZwFVx+IKoibiJiNLgWLUaORP8SLmgAiVsv3p3FW6axADitr8u49lrp8t4oFMJw/LP0Wv9eEM1wbI6VlmhSIywg3aYhmty8cpvM7lqhLEhJ8/SJbPj6PS+gabWXnQC6FisVb9GUGUlOmWAcxJh/fDmTxsXLboVRvyDec5AVC5O45n/M65gC3ZUfXQuwO3uPHTVzGKSH0fhDFPXuqfhMEQRAEQRAEQci6iKAoCFkcu5wunLyiQvN+LNg8unmJNkwcRPvmfcPWbda2DuqaiTm3bRGd913GcfoKlasVL9IgY7MxkebIil/oXsBJFshK1mlPIxZeoJGL/Gn0kivsZutRtSnHwQPmijyZEbjoNn3rF06kYuPgzBaA26d9QD6TRnAmZTtnV3XNxKS0TI0By8Z6g75iaz1su3/BeKPblm/Whzp88S/lKVqOXd9hQYcJMQXZSrLVIOrw+T9GrUnTm7SUKZffwu/5vJzyu7MYCdH8xLoZiZIRaSz9oDm7K2vTjD6etOXn0ZwgCGWJ61Krz8dGywaiPOIk9v5lh1LHL3Idx9Tm41lkbeeoriUIgiAIgiAIgpB1EUFRELIomsAEgQUx6GKfxdDZbYto2djWdOPkLl6mn0gl9P6LOIv6nNowh8Ie6FxRn8VE04n1M00mt0DsvzVf9qDTPvMp8slDdmWFOIRsw0/uXKWzWxZSKPb1/Dl/f9WIQ7IZ5dgdcuWnfCUqsSh45cgWWvlpR45FqKFlXIYoZoyUlKkhEBPbjJ3DohZi9vn+NdaoaAaL0Fp9x7GrM9yF143vS4f+/ZGnFZ+0pwdXz3JcQrdK9cmr7XB1q/THUmWKGIlBZ/er34jdoFHO5gLR0n/vGvrvq57KvjbyPOf8HlS8egv+rFGp7VDqPWUb/81brDyXL+o4Jmt7R6XOy2NVEARBEARBEISsj4x8BCGLwoLd8+f8GRZcPpOGk++fH7FwogFRyjanCydKiXhyX537ArjD1h3wOTnlK8Lf4RJapcMoFrVMgf3vmvk/mjO4Ak3rVpitv6b3LEoLx9Smy/vWkrWNHa9zP+CkusWrQ+j9G/RMdWlFvMjdsz6jDRMHcvlqQGSyc9JZ00U8ust/9UlNmWoULF2d2n48l69buLLvnUo5a+KwIcW9W1PO3AU4YQkES2R91oCV6r6/v+ZzwPEUrdY0w1yfLVGmAEluPKo2Ub8Rf9YS36QUZJtGuUEQt3Z4YXGIa1S929ssHiIeKOJPwrJRs3Jc+00fehoRoq4tCIIgCIIgCIKQdRFBURCyKBDsWDx8/pwCD29iqy9DilSuTzb2jhQTHUH3AxNbuSHBBRJdgFtnD8bH/vPu+VGqBKgSddqxRVfIvRt049Qede6rw73LJzmZCUC8yDOb5/Nnfdwq1SMHl7wsSD28fkGd+4LUlinExFYfTmeLU1gmbvv1HaOJWDRyu5VkC8SosEd058JRde4LUP6hahIUuBPnKuzJn9MbS5QphD4kuYEb9+NbgRRy51qCxDcpBZa72ZSye67807KSg6LVmpGDc152pz707090euPcBAK9IAiCIAiCIAjC64IIioKQRYFgBOEOolIJ7zaJhBV8L1m7PS+HxdqNEwkt3ZCQonq3d1iYQVzETZOHk/+e1bysaPVm1GDot/zZXKp0HE1lGnaluNg4tlREohBL88GHH9Lxkydp/4EDNGLkKHWu5bh76TgFXzvPnwuV806UtAPx9so26sFu5MhYfOXwZnWJjtSWqaGYiNiCpiwTNTShCzEyNWtIfRB/MYeVzt0dGZaRpdsYmb1MsbzJ6ElstYk6deCfCXTg3x8oJjKM52FZSmJEYl3PWm051mf4w9t07dgOdYlSZo65eP7z2GeJLBEhQpZv2Y+skohJqtGkSRPa7utLJ0+fpqlTp1JOR4m7KAiCIAiCIAjCq0UOW3vHr9XPgiBkIWBFZe/kSoXK1iJ7Z1dyq1iPIh/fp+Ab/lSybgdqNOoHcilYlIWXg//+SA/1suhqIg2yNUOk2b/wO7Yku3PpGBVR9uOYtzDl8ShDEY8fGLVs1Mhf0ovKNO5BDUdMpLKNurN77zW/bbR79mccK08DYkzhct6Uq3BJ5TeL81SsejOyd8nLwtiDa+c4+y7m51D2ERnyUN3yBV5eXjRu3DgqWEhZz8WFylcsT/4XL9LVq5aN1RgXF0tFqzRmV3G3CnWU44vgeIQFy1SnZm//SgVKVqHYZ8/o1IbZCcSv1JapvpgIN9tDSybzNdPKSX+C9Wd4sM4l2NYxF7l7NeC4fgVKV6NYpT48CrrMFnfulRvwNcnv6cVZuS/tW5NAONPI7GUK6g36korXaMFZrC/sWErH/5tOwdcvKPWlIMdkdMxTiJzyFKaAAxvULYwD0dWr3TBq+uYUyuXmqcuEvnoaZ9/WyO1eSrlW9VkQtnXKpVy/E0q5RlPVjqOpxXt/KNeqGsdQRJkiuctd/2Pqlgn58quvyNvbm+zt7alU6dJkbWVFe/e8eha7giAIgiAIgiC8vmRzyl1AF2RNEIQsB1xoW380k+PpGUsWARfSUxtn0755LyzjsE2bj+dQ8ZotWeg5tXEO7Z37lbpUZ2XXZMzk+AzDmyYNi08K4upehjp8scioRRwEmvM7ltCe2Z/HJ4zR8KjShFqPnaFL4JIMEJQ2fD9I/fYCWHktW7acKntV5u/R0U9p2h+/0y9TpvB3S9Jw+ASq2GpgfMZqfXBuSOqx9Zc34s8zLWVaf8jXbN1pDvevnOHsxQC/2eL9P8mzdluTrtQQ4a6f2Enbfn+HE+oYkpnLFCBGIhLPQOC7e+kYrRvfL97yFQJuh8/+ofwlq6guyj/S8f/+4mVJ1VMAN/Rja/6iw0smqXN06O/TGIhraWVtxwlk9i8cTyfXzVKXJGT8hAk0YMAAypEjB3/fvWsX9evblz8LgiAIgiAIgiC8CojLsyBkYSC++EweSfsXfMex5TQxBpmFYR2HRC36YiLwaj9Sl9wiWza66+9H++ePV5fogKXXGZ/5vK/kXEqfRUeyQHZu2yJa+mEL2jXjfwkEIUsSHhZGM2dMp8ePdfH4XiawsNzx14d0P+BUfIw9/IXb8M7pH9Nmpcz1z9OSZWou2BeOY8efH/Bx4lpo4Po/vHaeds38hBOgGBMTQWYuU7jse7UbzmIiMoofWDghgRs9zmn/gvG8DOvA1dzQnVof/FZY8G06u/Uf+vfdxonERIB94n66ctgn3qUcoiyERMRTXD+hPz2NDOX5SfHD99/T2TNn1W+CIAiCIAiCIAivHmKhKAhClgKx6UqXLs0i2CfjxtH69evVJUJqyWplCotNuEPD/T+jkqpMmjyZevfpQ3FxcbRgwQL64rPP1CWCIAiCIAiCIAiZH7FQFAQhS1CoUCH64acfyaNoUXr+/DkdPXJExMQ0klXLFJaOSAaTUWLioEGDqEnTJvw56OZNWr1yJX8WBEEQBEEQBEF4VRALRUEQXmk6depEX3z9FeVxzUNWVlYsfB0/fpzGfvgh+fv7q2sJKUHK9OWwfuNGKlOmDNnZ2fH3e/fv0U8//EhLlyzh74IgCIIgCIIgCK8KYqEoCMIrjZW1NTk65KTY2DgKCAignydPpr59+ojwlQakTF8OyOpsrZTt/Qf3aeWKFdSnZy8REwVBEARBEARBeCURC0VBEARBEARBEARBEARBEMxGLBQFQRAEQRAEQRAEQRAEQTAbERQFQRAEQRAEQRAEQRAEQTAbERQFQRAEQRAEQRAEQRAEQTAbERQFQRAEQRAEQRAEQRAEQTAbERQFQRAEQRAEQRAEQRAEQTAbERQFQRAEQRAEQRAEQRAEQTAbERQFQRAEQRAEQRAEQRAEQTAbERQFQRAEQRAEQRAEQRAEQTAbERQFQRAEQRAEQRAEQRAEQTAbERQFQRAEQRAEQRAEQRAEQTAbERQFQRAEQRAEQRAEQRAEQTAbERQFQRAEQRAEQRAEQRAEQTAbERQFQRAEQRAEQRAEQRAEQTAbERQFQRAEQRAEQRAEQRAEQTAbERQFQRAEQRAEQRAEQRAEQTAbERQFQRAEQRAEQRAEQRAEQTAbERQFQRAEQRAEQRAEQRAEQTAbERQFQRAEQRAEQRAEQRAEQTAbERQFQRAEQRAEQRAEQRAEQTAbERQFQRAEQRAEQRAEQRAEQTAbERQFQRCyIB5VmtDIRf40Ztl18uowQp0rCIIgCIIgCIIgCGknm1PuAs/Vz4IgZFGK12xJNXt+SK5Fy5KVtS3FxT6jkLvX6bTPPDq5bqa6luXIV7wi1RvyDRUoVYWs7XLS87g4igp9RJf3r6P9C8ZTTFS4umZisuewovLN+ynH+z7ldC1Iofdv0rrx/Sj4xkV1jcyBsXMMf3SX/HetpIP//sBlbElwDat3f5fyFqtAVjZ28b93dstC8lv5W6Lfg6DYeuwMymFtR/sXjleu8yx1SeYlPcu015Rt/HtJcWLtdNr799fqN0EQBEEQBEEQBEFDLBQFIYtTb/CX1HrsbMpf0ovFRADRLlfhElRv0JfU6qOZ/N1SVGo7lLp8t4qKVKpHOZTfexoRSrEx0WTvkocqtRlMXcavJPtcedW1EwLRrM9UX2o86gcWEzMr+ucI4Qtky56dHPMUompd3qTO36wweY4pBdem/tBv+BoWLF2dxUSg/V6t3mOpzcdzLHoNM4L0LFNBEARBEARBEAQhbYigKAhZGFj6VWo9mHJY29CjWwHkM2kE/dGlIP/Fd4hQJbxbk1f7keoWaQNikHfPD8nGwZkeXD1Hy8e2ppn9SvEEK7pnT6Mov6cXNRw6Xt1CByzFOn75LwtjuYuUopB7NyhUmTIj+ucY8fge7Zw+jv7sXoRWftKB7vj78TqFytUk714f8ee0UrJ+J6qgXMccVta8//++6sHXcO23fejRzUtE2bKRR9WmVKXjKHWLV4/0LlN9rhzezOVpbBLrREEQBEEQBEEQBOOIoCgIWRSIheWb9yErWwd2b94yZTS7HAP83fH7exQefIfFxrJNepCdU25elhYqtBrElojY764Z4+j+lTM8H66qB/6ZSFeObGEBrFCF2pTPsxIvA+5VGpFbxQa8DALP8v+1pajwJ+rSzIV2jnDh3jXzEzqzeT6f3+0LR2jD94Mo+KY/Zcueg4p7t0pwjqkF7r7nti0m/z2radWnnejGqT08//pxX9o961OKCglWrqG18nutef6rSHqXqSAIgiAIgiAIgpA2RFAUhCwKRDpY+z2Pi6VL+/6j+wGn1SU6INZcO7adPzvndyf3yg34s2eddjR8wXl6a/UdGvjXIXJ1L8Pz9anZ430as+wGvbXqNrUdN5fnOeUrEh+TDkIi9m/IjeO+9Cw6khyc81LRas3Uucr8U7sp+MYF2j3rMxaQIh8/UJdkLlAWBUtX488Q9gIObODPGjhuCH9xz2ISnGNqy1Rjz9wvaMsvbySKIRh09gCFBd/hz1a29vzXFHAn7zlpM41edo2PY/TSq/w7Ge1GnNoyxXH3nOQTfy6V2w3j+foUKluThsw5kWS5pxS4Y1ft9Ab1+GkTjVx0ia8XH4NSrv2n7aPyzfuqawqCIAiCIAiCIGRdRFAUhCxKwTI1yMbekZ5GhtGtcwfVuS8o07hHvDgDMcq1aDn+DEHnws5lLF45F/Cg2n3H8XwNiDQVWw9iq7j7gafJd8bHPB9CC6wdwfPYWP5ryMPrFyg6IoSyW1mziKkBsXPphy3YMi0zA+HL3jkPxcY8pTsXEwum7l6NqEzDbmwdinN0LVKa56e2TJMD+3v+PE79ZpoCpatTqw+nJ4ijiViMJWq3pQ6f/ZOhomJqyxRC4+GlP7OFJs6lSvuRCQRDrO/dZyzH4owOe0L75o+3SGKfWso+EZe0QKmqZOPgxFa1AOWaq7AnNR79EzUaMZHnCYIgCIIgCIIgZFVEUBSELIpLgaLsJoqkKKH3bqpzdcJf67GzqNmbU+ITn2C9nLnz82ewf/54dqmFWOJRrSlV7TSG50OkqTvwc94O7qlHV/6aImvCmKgItjQD9s6vXoINpwIeLJrGxkTRoxuX1bm6cqk3+Ctq9+l8tgrVRCb7XPn4L3gZZQoBzc4xF38Oux/Efw1B7MVSdTsqv2PNLueL3m5AC0Z7040TO4meP6c8RStQuSa91LXTn7SU6dWjW8lv1R8sRkKordP/U94OIN6iW4W6LLr6715JAQfX8/y0EhcXR09uX+EM0Cs/7cSxFhHvcfOUMXwN8PsllfKGSCwIgiAIgiAIgpBVEUFRELIoWqbcqLDH8ZZZWhblknU7sPDxKOgyJ8EA+gIfRJhDS37i2Iuw/qrUZgjHroNIA2s3LD/jMz+Be+rjWwFsLQZyuXkatXrDb0FUfFWxtrVn8TU6PITCHt7ieXDz7jHJh6p2HM1lhTLTEsrox6VMTZkmR+kGXViIRLIbiGtGyZaNYp89Jb/Vf9CGiQM5kQuOwXf6x/Tk7jW2iszI+ItpKVNwcv1MnVCrADd/r/YjOMlLhZYDuI7f9fejPXO/5OXGQFxGuCxrbsuD5xynJm9MZoHSGPvnf0sL36jDCVtunz/E83DtLu1ZTUeW/8LXwianM+UvVYWXCYIgCIIgCIIgZEVEUBSE1wCIixBJWo+dzUIJRI/ja6fT4ncbU/gjnaBoCNyQj674lZ5FR7B7csNh3+lEmuw56Jrfdjq8dLK6pg6IKoibiJiNLgWLUaORP8SLmgAWWy3fn0a5ChVX57zawPLPu/dY6vLdKhbAcP5IdrP4vSac4doYKS3TpEBcRrhJQzS7feEwnd+xRF2SEFwPLDv074/qHB0Q6SAog5y5C1Duwp78OSNJTZliHcSYfHw7kMXHym2HUr0h33CSF5zj7jmf8zrmALdlR9dCVKFFf+rx4yYu45QQej+I4p49Vb8JgiAIgiAIgiBkXURQFIQsjl1OF05eUaF5PxZsYKG2YeIg2jfvG7Zus7Z1UNdMzLlti+i87zKO01eoXK14kQYZm42JNEdW/EL3Ak6yQFayTnsasfACjVzkT6OXXKFu368jj6pNOQ4eMFfkyYzARbfpW79wIhUbB2fOar192gfkM2kExUSFk52zq7pmYlJapsaAZWO9QV+xtR623b9gvMlt42Jj2XrUGI9VQTFb9uyUTXUVzijSUqZcfgu/51iJTvndWYyEaH5i3YxEyYg0ln7QnN2VtWlGH0/a8vNoThCEssR1qdXnY6OWthDlESex9y87lDp+kes4pv+3dyfQNZ3r/8C/ZI4MRJoBSWpKzDE1ilukhmpLe/tzaVFVLYrbezugetvqQCmV0kmL0n9V66JVrXmqGEoMJeYSgogxCUIiRKZ/nufsk5wQeiSpyLnfz11nZZ+99xn2e7Z1V7/red/n4de+goOzm3EWERERERGR7WKgSGSjzAGTBCyyBl1WZgb2rf4e84Z3RvyudXrMspFKSmL+OouWdi+ZgdQk01TUzIx07Fw87abNLWTtv5/f7o49y2fiysVzOpVVwiGUL4+LZ45h38pZSJH3ysnR52WNhHPy3V0r+uCeGg01FJR1Cee/8RgOrv3BOCu/47KEYoW5nTG9noSJDw+foaGWrNkX+eXwm4Zm1rJ3dIGzR8GpxHdKSY2prJF4ct8m4xl0GrSMs7UktIz57Wf88k6P3Pdaqvs8fAJRvVlH3TZr+MhzeGriav3rfW89OLl56j0uDwcXNw1niYiIiIiIbB3/y4fIRmlgl5Oj21LBtXxCf0R+MUyDEzMJpZwqeGqjlLSLicbefDKdtlWft+B+TzV9LlNCG3d9QUOtm5H3Xzftdcx4tj4md6ui1V9TegRh1uD7cXjjQjg4Ous5ibG7jFeUHSmJ8cg0prTKepHrv3pT1yWU8TWTkMnZ3VRNl3bhrP61VJQxNfMLboZHXvtaf7fLue+9NneczeFwUUijFpF57Uru9VzQ7TutJMZUSJObwCbhxjPotrnxze2SbtPS6EUCcQfX/IpD+Y2adfuXhoeyHui6r97QykZzlePC93riWtol42wiIiIiIiLbxUCRyEZJYKfhYU4OjmxdplVf16vW6G9wdHFDRnoaEo/cWOUmDS6k0YU4tW9z3tp/YT2GaTB2u2q0fFQrui4lxCN+9wZjb9mRcHgX0lOTdVvWi9y7YqZuW6rasDVcPb01kDp3/ICxN19Rx1TCxIeGTtGKU6lMXP3Jv2/eiMVKlQKC9a8EeTebFv1XK4kxlaBPmtzIGorJp47g0pm4Ao1vbpdU7pYrVw45uf8zdyUXQU3bw9XDW6dTb5n9IfYs/bpAQE9ERERERPS/goEikY2SwE6CO+nyWyPs4RuCFXle6/4uelzWVYzfWbDSTRpSNOv2bw1mZF3EZRH9EbNhgR4LatYeDzw3Sret1fixQQhp83/IzsrWSsWrKSVfEffq0KGI3rULm6KiMGDgC8beknP2UDTOx/2h2/51w25o2iHr7dVp212nkUvH4qNbVxhHTIo6pteHibK2YHEqE4V0dr6neu49kZODs4d35k2Rv97dPqZyPHzQBK3alHsq6rsxiJo9DhlXUnWfHCtsHcSbkXNrtnhE1/q8fO404nasMY4Azm4VdX9O7lhdX4koIWS9Tr1hf4s1Sc3Cw8Pxa2Qkdu3Zg48//hgV3LjuIhERERERlS12Ti5u7xrbRGRDpIrKxd0L/nVawMXDC1UbtMaV5EScj49BrVZd0faFcfD0C9LgZfPs8Thn0UXXHNJIt2YJaTbNel8ryc4c2oFque/j5l0FlQNDkJacVGhlo5lPrVCEtOuONgPGok7bf+j03rjtq7F++pu6Vp6ZhDFV6oahYpVauZ9ZXR/3NmsPF09vrQBLituv3Xdlv13ue1y5dM54Zb7Q0FCMGDECfv6553l6ol6Deog5eBDHjpXsWo3Z2VkIatxOp4pXrd8y9/ulIenYPviFNEP7f30C31qNkZWZid1LphcIv4o6ppZhokyz3TInQn8z8zhZPqT68/J505RgeV6rdVdtxHMu7g+c2heVN+bV7+uEB54fjQpevjq1eMPXb5fJMRWt+76N6s07Iic7GwfWzEX0L1Nw/viB3PvFT9dkdKvsD/fKVRAbtcR4ReFkCnroo8/jwX9ORMWqNU2d0BdM1u7bZpUCauf+Vn/TQNjJvWLu77cTWdfS0eSxQej48ue5v1VTXUNROmtLc5ezMTuMVxb09jvvICwsDC4uLqgdHAwHe3v8tqHsVewSEREREdH/rnLulXxNi6wRkc2RKbSdh03TarTCmkXIFNLdS6dj4zf5lXHymodfm6GhkwQ9u5fOwG9fv2McNVXZhQ+OyOswvGzC83lNQbwCQtB15Pd56wNakoDmjzVzsGH6WzdUwwU2Dkfn4VNNDVz+hARKSz7oazzLJ1Ve8+b9gEahjfR5evo1TP78M0yaOFGfl6Q2/cegwUPP5HWstiTXJk09Vk0aknedxRnTv/V7V6s7rZF4dK92LxbXj6l8l8z0K7nfxQ7ShEUqU2UdRllX82ZTp+/mMRWyRmKLXiM04Dt7aAcWje6dV/kqAW7XN7+DT63GxhTl8Yj+5Us9dqv7VMg09B0/f4mtcyYYe0ws37MwMp72Ds7aQGbTrNHYtegr40hBo8eMQZ8+fWCX+1uI9evWoXevXrpNRERERERUFnDKM5ENk/BlecRAbPr2fV1bzhzGSGdhqY6TRi2WYaII7TLQ1NyiXDmcjdmOTTNHG0dMpNJr7/KZ+l5/NqVUAiwJyPav/h5zh3bEuqmvFwiEStLl1FRMmzoFycmm9fj+SlJhuebLoUiM3Z23xp78lXUI1055DStyx9zyOktyTK11+sBWbJv3sf69mmIaE0dXd9g5OOPKpfPY/+t/Mf8/XW+5DuPdPKYyZT/00f4aJkpH8ahZY/LCRCEdxzd9O1qPyTky1fz66dSW5LNSz5/GvlXfYfZL7W4IE4W8p/x7Orp1ed7aiVIZKUGirKe4eMzTuHYlRfffyrgPPsC+vfuMZ0RERERERGUPKxSJyKbI2nTBwcEagv1nxAgsXrzYOEJFZWtjKhWjMh1apv+XVlOVCREReKpnT2RnZ+Pbb7/FyDffNI4QERERERHd/VihSEQ2wd/fH+M+HI/AoCDk5OTg923bGCYWk62OqVQ6SjOY0goT+/bti/AHw3X75IkTWDB/vm4TERERERGVFaxQJKIy7fHHH8fId99BZa/KsLe31+ArOjoaw4cORUxMjHEW3Q6O6V9j8dKlCAkJgbOzsz5PSEzAh+PGY+6cOfqciIiIiIiorGCFIhGVafYODnBzrYCsrGzExsbio4gI9OrZk8FXMXBM/xrS1dkhd2wTkxIx/8cf0bPHkwwTiYiIiIioTGKFIhEREREREREREVmNFYpERERERERERERkNQaKREREREREREREZDUGikRERERERERERGQ1BopERERERERERERkNQaKREREREREREREZDUGikRERERERERERGQ1BopERERERERERERkNQaKREREREREREREZDUGikRERERERERERGQ1BopERERERERERERkNQaKREREREREREREZDUGikRERERERERERGQ1BopERERERERERERkNQaKREREREREREREZDUGikRERERERERERGQ1BopERERERERERERkNQaKREREREREREREZDUGikRERERERERERGQ1BopERERERERERERkNQaKREREREREREREZDUGikRERERERERERGS1cu6VfHOMbSKyUdXv64T7egyFV1Ad2Ds4ITsrE5fOHsee5d9g16Jpxlkl557qDdC633vwrd0YDs4VkJOdjaspF3B40yJs+nY0Mq5eNs4sSM5t9cxI1GrVFc7ulVCufHlcS0vByb0bsWnWGFw4ccg4s/QVdo2XL5xFzLr52Dx7nI5xSfGvcx+aPD4Y/nVb5I1LdmYGUpJO4kDkPGyf/2mJfl5puZNjKop6v5W3s0ezbv9GvY5Po0IlH32eee0qEg7txOb/jsOpfZuNM4mIiIiIiGwTA0UiG9f62bfR6JH+sHNwNPbkk4AmdvNSrJo0pMTCmoaPPIeWvV+Ho6uHvmdm+hUNXOydXPR4wuGdWDTmaVxJTtLnZvfUbIiOL30Or4AQY09BEixFfjEMx35fZewpPZbXeIOcHJzavwXLIvrfcI1F9eTE1Rq2Feov+LzScKfHtKj3m0tFbzw8bDqq1GuR+/+g5Yy9+a6lXULU9+OwZ+nXxh4iIiIiIiLbY+fk4vausU1ENqZeh94I6/Eq7B2dceFULNZNGYHlEQNxPv4gKlevD1dPb1T0r66h35mD24xXFV21hq3RdsAHWu2VdGw/Fr/fGxtmjMSOBZM1VPSpFQp376pwr1wFsVFLjFeZKr46D50Kn5qhyMq4hgORc7BwdC9E//IFnN084RVQB04VPFGpai0c2boMmVfTjFfeeZbXmJacgI3fjMLScf1wPDoSXoEhcKvsDzfvKnBwcUPc9tXGq4on+IEn9DeLmjUWqz4egm3zJiLp6P7czwuGa8V74FrJF+mpyTh9oPi/YWm402NanPut/ZCPcG+zDsjOzkLcjl+x5INnc3+XMRp6elevp4God2AdnNwfhbQLCcariIiIiIiIbAsDRSIbJaFJmwFj4OEbpNObV3w0ECd2b9Bj5+NjkHRkD4KaPggnN0+dtnl440KdtlkcLZ8ZCd/aTXD5/Bn8+um/cfbwTt2fk5Otn1353nqoHFgHTu4VcXLfprzApV6HXqib+xD7V87C2ikjNMSRx9FtK+HhUw33VG8IZ/fKpR6cma9RpnCvnToCB9f+oNeXmnQKR39fqWGThHwVvHwLXGNxHFgzFzHrf8KFEzH6WfKQ7YunYvXzHF3dkJl+FYd++9l4Rdlyp8e0qPdbQKMH0PSJF7Xa9tjvq7Fs/HO4cjFJp5+f2POb/pvzr9NCQ0lxN1TTEhERERER/RXYlIXIRgU0botK1WojJzsLhzb+gsTYPcYREwlJpMJKePgEaFgiarZ8FP2//QMvLjiDZ77cUuiU0Pu6v4LB8+Lx4k+n8cgI09RO93skhDFNy008urfQ0C8+OlKrIV09vBHUtL2xF7i3eUetokxJPIHohVOMvfn2rfwOl5MTYOfgkHtd7Yy9d56MhV9wU92O372hQJWlkOm4MRsWaMBkeY1FHdM/c/lCAjLS/7xaU9YKlKnvfb/agSE/ntDvMeSHeDw9eSOaPD5Eg7DSUtQxlanHPSYs12sZNPcYGj36vO63JGtP9pux84ZxL+r9FtS8g1ZRSvC5e8n0G5YJkDVJL545qlOhq9S7X88lIiIiIiKyRQwUiWyUX0hzOLq44dqVVJzaf2OTiJB23fPCGam48gqqq9sS6BxYO0/DEg/fQNzfa4TuN5OQpkHnvhq2JB7Zg8ipr+l+Ca3M6zTmZGXp3+udO34A6WmXUN7eQUNMIUGkBJ/i/PGDWk1pSYKj5v94CS7uXvpcp0znvqY0SPDl4lFZp8kWNkU8ILQtQtp004BOrtGrWrDuL+qY/hmvgGCdmiuhcVLcfmNvQfKden4cqcGhu3eVvPBQvl/FKjVxX4+XUa2hKUwuDUUdUwkat879CFcvnddwsHGXgQWCWjk/rOdwVPDyQ3rqRWycOVqnjRfnfvOt3VTDQgkiT+6L0n1m8nktcn9X+X2FXJNM1yYiIiIiIrJFDBSJbJSnbxDKlbfTrrUpCSeMvabgr/Pwr9D+nxM1bBFynkx7Nts0c7SuXyfhSWDTB7XDsJDQpNUzb+nrpErr9/mf3FaTjIyraVppJlw8vPWvu081DcWEVndZqHl/FzwZsQrVwzprmCQcXCro9NfS4O4bqKFpVsZVXIg/bOw1jUvrZ9/Bo2/MNIVVRrMOF4vvWdJjKiFk8+6vwNHVXUPI3UtnGEfySbjVduBY/SvjLtN55w7riM+f8MPMgc2xZfZ4pCSeRE526XWILs6YypTi7T99rmGkXGPLp9/Q14mwJ4ehav1WGuLGrJ+P2M2LdX9R7zcJFSUkFKnnTheoTvQLboanJv2Khg/11XBT2Ds6oULF/H9TREREREREtoSBIpGNkuBQXE1N1sosUf2+TlqtVqtVVw1eLpw8rE0whDngExKWbJnzoVZvSUDS8OF+2hVXQhrf4GZ6fO/ymQWmpyafitVqMVGxak2t9LqefJaEipbsHVy0Mk9CoZSkk7pPvnuHf3+Kh4Z+qQ05MtPTcCZmu+mYkwucKlTU7TtNPlvC1/TLl5B67pTuk2ne3ScsR5PHBulYyZilJMTrMcspr0UZU0vSuESmLA/8PgaD5hxBt7ELtULx6NYVhXbNFrLeX0X/Gvre+1bOwpKxz+RNfZcqu20/TMJ/Xw7XqcalpThjKnYtnmYKanPJNP/QLgN0rOp36qP3+Nnc+2bD12/rcVHU+82yAtccRMr739/rdfx91A9aHSnjfPbQDn3v8vaOcPXy1fOIiIiIiIhsDQNFov8BEoaED4lA5+HTtZJLmq/I2nH/famdrsNXGAmefv/xEw1XZHpym+ffN4U05e0Qt/1XbJ0bYZxpImGKrJso0289/e5F24Hj8kJNIRV1nV6ZrF2lb0VCzx4frUSd8B4a2EgY+vPb3bXhiAQ1dws7eweEPTUcT7z/kwZgcv2HNy3SgE46XBfmdsfUUnk7Rzi5umkXYXsnV63Yk/EJbBKONv3HFhhrIcGbrOMn5104cQhb5kwwjty9ijKmcs6Gr0ci+fQRDR8bPfIcWvd7Dy6elTWIXD/jLT3nZop6v8n3+7+xv+j0aPk9pGpxxUeDsWX2hNzXFa+5ERERERER0d2OgSKRjXOu4KnNK+p36K2BjYRLS8b2xcZv3tNptg4STt3E/tXf44/Iedpx179ui7yQJuq7sYWGNNt+nISE2F0akNVq2QUDZh0wKuqOotsHixDY5MG8qaSFvV5e89CwaahUpaaGnntWzMScV9prtZizuxfK29kZZ5YuqVR78MVJ2khFAj7taj35VSyfMAAZVy/D2cO0/l5hbndMzY7vjMS03sE6XfmLf1TDwlE9cTx6DcqVK4farbqi0ytfaCBmJuv3mafoStWcTKe+mxVnTHX8Zn2gayW6+wRo2Cf3z85FU29oRmSpqPebVJT+fdR8neosv9nRrct1KrlMq3ar7Jf7OtM9TkREREREZKsYKBLZKHM4JQGLrEGXlZmBfau/x7zhnRG/a50es5zGKVNgC7N7yQykJpmmomZmpGPn4ml5U6ivJ9Nupbprz/KZuHLxnE5llXAI5cvj4pljOu02Rd4rJ0efC1m/Lyc7R7+HBGxSZXbhVCxWRAzEuqmv511H3tTYtFSkJZ/VfXdatjSbyf3urhV9cE+NhhoKyrqE8994DAfX/mCcZWpyIyQUK8ztjGlhZExkmu/CUb202YsICG2DOu2667YwT+0Vso7m3aqkxlTCvJP7NhnPoOMj43y9ot5vObn7c7Kz9ZhU2zq5eeoU/rVTR2DJB8/mTTl3cHXT12Xl/q4XT5vucSIiIiIiIlvDQJHIRmlgl5Oj21LBtXxCf0R+MUyrvcxk+rM0qJCGHWkXE429+aTirVWft/K63No7OKFx1xd07b+bkfdfN+11zHi2PiZ3q6IVdVN6BGHW4PtxeONCODg66zmJsbv0fAnW0i9f1G35Hgci52He0E4aKlmqWLWW/s24kqrTS0tDSmI8MjNN02Blvcj1X72p6xLK+Jp531tPq9tE2oUbg8+ijOmtHNmyXDt5a6fum3QVvpsr5kpiTIU0uZHp32aybW58Y6mo95uEjuYqTwkWpTr0x9e7YP/q2brPzNP3Xg0rM9LTcOWi9Q2LiIiIiIiIyhIGikQ2SgI7DQ9zcnBk67IbAhNRrdHf4OjipuGHdAq+njS4kEYX4tS+zXlr/4X1GKbB2O2q0fJRrey6lBCf1whEgpqLZ+N0+/KFs9ixYHKB0FNIw4vKgXV0++Lpo6U2fTfh8C6kpybrtqwXuXfFTN22VLVha7h6euv6e+eOHzD25ivpMdVKunLlIGtXZqRfMfYCKQnHc8fJ9F19aoUW6b3vhJIYUwljpcmNVBsmnzqCS2fidNvc+MZSce63pGN79e+1KynYtWRGgdBTyBhL9aJIO3+20H9TREREREREtoCBIpGNksBOgjtpylEj7OEbghV5Xuv+LnlNO+J3mqZBm9Vs+Siadfu3BjOyLuKyiP6I2bBAjwU1a48Hnhul29Zq/NgghLT5P2RnZWulomUoGL9zLbIyMnRNx4ad+xp78zV8pJ+p++61qzj2+ypj741eHToU0bt2YVNUFAYMfMHYW3LOHorG+bg/dNu/bpiOkSXpbF2nbXetUJOOxdKB2VJJj6kEWDVadtGp67J+4Km9+VN+NTg7fUS3vas30CCzKO72MZXj4YMmaLWt3FNR341B1OxxWlko++TY9R3Hi3q/HY9eq9PHnVw90KDTMzeEtKFdBsIrsI6Gu8d3rcubPn298PBw/BoZiV179uDjjz9GBTc34wgREREREVHZYOfk4vausU1ENkTCEBd3L/jXaQEXDy9UbdAaV5ITcT4+BrVadUXbF8bB0y9Ig5fNs8fjnEUXXXNII92aJaTZNOt9rSQ7c2gHquW+j5t3FVQODEFactItq7CkMi6kXXe0GTAWddr+Q6f3xm1fjfXT39S18sySzxzVbruyjp73vfXh4VNNP8vB2RVtnh+NuuFPaTMXWSNPmslYvtYsNDQUI0aMgJ+/Pzw9PVGvQT3EHDyIY8dKdh277OwsBDVup1PFq9ZviYyraUg6tg9+Ic3Q/l+fwLdWY2RlZmL3kukFwq+SGlMh71WjxcMIHzwBAY3aaIXi0W0rsOPnL4wzTMzfVcZROj57+Abg4pk4XLl0Tqdchz76PNoO/AAXparvumo7cbePqWjd921Ub95RpyEfWDMX0b9MwfnjB+Dm5adrMkow6F65CmKjlhivKPr9JtWPUi0pv6E85P5OPLoXWdfSEdZjKJo+MVjfQwL6tVNfQ2budRTm7XfeQVhYGFxcXFA7OBgO9vb4bYOpYpeIiIiIiKgsKOdeyde0yBoR2RypoOo8bBqqh3VGufI3FiTLFNLdS6dj4zf5lXHymodfm6GBiwQ9u5fOwG9fv2McNVXZhQ+OgLN7JQ2hlk14Pq+TrkwV7Try+7z1AS1JwPnHmjnYMP2tQiu35H3bvfChdj0ujDQtWfXJizft2itVXvPm/YBGoY30eXr6NUz+/DNMmjhRn5ekNv3HoMFDz+R1rLYk1xa7eSlWTRqSd53FGdPQrgPQqs9IrdArjKwDeGTrcvz62cs3TN0VYU8NR9O/D4b9Tbp5X0u7hOUTXtAu0te7m8dUyBqJLXqN0IpP6WS9aHTvvMpXCV27vvkdfGo11ntvy+zxiP7lSz0minq/SWVv56HT4Olf3dhTkEyjlrVKb1VJO3rMGPTp0wd2Rhfp9evWoXevXrpNRERERERUFrBCkciGSWVV7OYlyLhyWdfpc3R112BROgsnHd2H9V/9B7uXfm2cbSJTk+t36qMh2JmD27Bq0j8LVARK9ZWjizv86jTXAMynRiMc2bZcq7FcPL0R0rYbnCp46LmZ6Ve0oYV04F396UvaAKOw6kIh73ti13pUqOSrDzsHJ606k0Yd8roVES/ctBO1yLh2DZdTU9GqdWs4OzsjKysL27ZuxeaoKOOMkhO3Yw1Szp2Eu3dVrf6Urr4S7EkjnKjvxmJz7sPyOoszplKlFxDaNve1pvBJSKgm43Ji9wYNJrf/9Kl+fmFO7t2kD3fvKvreUiUq09zlHpDP3T7/M/19Cvtd7uYxlWDvgX6j4Jx7rnQUXzvlNa2+NZOxu3jmKIKadtD70admqL6XXLMo6v2WdiFBw0IHFzcNziXMFOlpl3T/yomDdBr3rWzNHcN2bdvB189Xn8fFxeGn+fN1m4iIiIiIqCxghSIR2RRZmy44OBjJycn4z4gRWLx4sXGEiopjWvImRETgqZ49kZ2djW+//RYj33zTOEJERERERHT3Y1MWIrIJ/v7+GPfheAQGBSEnJwe/b9vG4KuYOKZ/jb59+yL8wXDdPnniBBawOpGIiIiIiMoYVigSUZn2+OOPY+S776CyV2XY29tr8BUdHY3hQ4ciJiZ/CixZj2P611i8dClCQkJ0+rhISEzAh+PGY+6cOfqciIiIiIiorGCFIhGVafYODnBzrYCsrGzExsbio4gI9OrZk8FXMXBM/xrS1dkhd2wTkxIx/8cf0bPHkwwTiYiIiIioTGKFIhEREREREREREVmNFYpERERERERERERkNQaKREREREREREREZDUGikRERERERERERGQ1BopERERERERERERkNQaKREREREREREREZDUGikRERERERERERGQ1BopERERERERERERkNQaKREREREREREREZDUGikRERERERERERGQ1BopERERERERERERkNQaKREREREREREREZDUGikRERERERERERGQ1BopERERERERERERkNQaKREREREREREREZDUGikRERERERERERGQ1BopERERERERERERkNQaKREREREREREREZDUGikRERERERERERGQ1BopERERERERERERkNQaKREREREREREREZDUGikRERERERERERGS1cu6VfHOMbSKyUdXv64T7egyFV1Ad2Ds4ITsrE5fOHsee5d9g16Jpxlkl557qDdC633vwrd0YDs4VkJOdjaspF3B40yJs+nY0Mq5eNs4sSM5t9cxI1GrVFc7ulVCufHlcS0vByb0bsWnWGFw4ccg4s/QVdo2XL5xFzLr52Dx7nI5xSfGvcx+aPD4Y/nVb5I1LdmYGUpJO4kDkPGyf/2mJfl5puZNj+uTE1fp5t7Jz4RT89v/eNZ4RERERERGRGQNFIhvX+tm30eiR/rBzcDT25JOAJnbzUqyaNKTEwpqGjzyHlr1fh6Orh75nZvoVlLezh72Tix5POLwTi8Y8jSvJSfrc7J6aDdHxpc/hFRBi7ClIgqXIL4bh2O+rjD2lx/Iab5CTg1P7t2BZRP8brrGobhl+/QWfVxruqjE1MFAkIiIiIiIqnJ2Tixv/a4nIRtXr0BthPV6FvaMzLpyKxbopI7A8YiDOxx9E5er14erpjYr+1TX0O3Nwm/GqoqvWsDXaDvhAq+iSju3H4vd7Y8OMkdixYLKGij61QuHuXRXulasgNmqJ8Srosc5Dp8KnZiiyMq7hQOQcLBzdC9G/fAFnN094BdSBUwVPVKpaC0e2LkPm1TTjlXee5TWmJSdg4zejsHRcPxyPjoRXYAjcKvvDzbsKHFzcELd9tfGq4gl+4An9zaJmjcWqj4dg27yJSDq6P/fzguFa8R64VvJFemoyTh8o/m9YGkpjTBs89AwqVPLB0a0r8P2Lf8PWuRE3PI7vXGucTURERERERJa4hiKRjZKQrl6HnrB3ctXpzSsnDtIpx0L+rvnsZVw+f0YrF+uEd9cwp7jqP9QXLp6V9X3XTR2BxKN7db9UKkZ9NxZHt60EypWDf/37tSLRrO6DT+U+D9Xz9q/6DmsmD9VKNHnI9sF1P2iVmldgXdQNf9J4VekwX6NM4V437T/Yu2Kmfm8J85Z80BfnT8SgXHk7VA97qMA1FseCt57A4vefRuzmxfpZ8pDt32aMxNVL53N/Qwf41wkzzi57SmNMiYiIiIiIqOgYKBLZqIDGbVGpWm3kZGfh0MZfkBi7xzhiImFN3I5fddvDJwABjR7Q7ZotH0X/b//AiwvO4JkvtxQ6Bfm+7q9g8Lx4vPjTaTwy4mvd535PtbwppBIkFlYtFx8dqdWQrh7eCGra3tgL3Nu8o1ZRpiSeQPTCKcbefPtWfofLyQkanAU0bmfsvfNkLPyCm+p2/O4NBaoshQSgMRsW6PqGltdY1DH9M5cvJCAj/c+rNWU9Qpn63verHRjy4wn9HkN+iMfTkzeiyeNDNHwuLUUdU5eK3ugxYbley6C5x9Do0ed1vyVZe7LfjJ23HPfbJWMpY9b9w2UY+P0h/b30O8yL0/Gs16GXcSYREREREZHtYqBIZKP8QprD0cUN166k4tT+zcbefCHtuueFM7K+oVdQXd2WQOfA2nlaIebhG4j7e43Q/WYS0jTo3FfDvcQjexA59TXdL0GLeZ3GnKws/Xu9c8cPID3tEsrbO2iIKSSIlOBTnD9+UKspLUlw1PwfL8HF3Uuf65Tp3NeUBgm+XDwq67TswqaIB4S2RUibbhrQyTV6VQvW/UUd0z/jFRCsU8ElNE6K22/sLUi+U8+PIzUEc/eukhceyverWKUm7uvxMqo1NIXJpaGoYypB49a5H2mFpoTRjbsMLBAYyvlhPYejgpcf0lMvYuPM0TptvLha5L6nhLO+tZvA0dVdK26FNDuS8Ww36EO0HTBW9xEREREREdkqBopENsrTN0iniUqX5JSEE8ZeU/DXefhXaP/PiRq2CDlP1pMz2zRztK5fJ2FJYNMHtcOwkJCm1TNv6etkeurv8z/RYMdaGVfTtNJMuHh46193n2oaiomLZ47qX7Oa93fBkxGrUD2ss4ZJwsGlgq4bWBrcfQM1NM3KuIoL8YeNvaZxaf3sO3j0jZmmcNQImVwsvmdJj6mEkM27v6KhloSQu5fOMI7kk/Cy7cCx+lfGXaaczx3WEZ8/4YeZA5tjy+zxSEk8iZzs0usQXZwxlQY923/6XMNIucaWT7+hrxNhTw5D1fqtNMSNWT9fp4iXhOzsbFw8fVQbtsx/43Edyy/+UQ0rJg5Gau5YyufXavWY/j5ERERERES2ioEikY2S4FBcTU3Oq8yqfl8nrVar1aqrBh8XTh7WJhjCHPAJCWG2zPlQqwWl+qvhw/107ToJaXyDm+nxvctnFpiemnwqVqvFRMWqNbWy8HryWRIqWrJ3cNHKPAmFUpJO6j757h3+/SkeGvqlNuTITE/DmZjtpmNOLnCqUFG37zT5bAlf0y9fQuq5U7pPpnl3n7AcTR4bpGMlY5aSEK/HLNelLMqYWpLGJTJleeD3MRg05wi6jV2oFYrSVKSwrtmi6RMvoqJ/DX3vfStnYcnYZ/Kmvsv08m0/TMJ/Xw7XqcalpThjKnYtnmYKanPJNP/QLgN0rOp36qP3+Nnc+2bD12/r8cLIuowyZdk8bfnZGdEIHxKhAWVhNs0chVlDWmr359N/bNF9Mr6HNizQ8cy8dhWOFTzgU7uxHiMiIiIiIrJFDBSJ/gdIQCchSefh0zUokdBD1ir870vtdB2+wkjw9PuPn2iYJ9OT2zz/vimkKW+HuO2/ahdcSxKqyLqJMv3W0+9etB04Li/UFFKx1emVydpV+lYk9Ozx0UrUCe+hgZCEoT+/3R2HfvtZQ8e7hZ29A8KeGo4n3v9JAzC5fml2IwGddLguzO2OqaXydo5wcnWDo6uHNtqRij0Zn8Am4WjTf2yBsRYSvFWpd7+ed+HEIWyZM8E4cvcqypjKORu+Honk00c0fGz0yHNo3e89bfIiQeT6GW/pOdaQactuXv6o3/FpdB+/TNe+vB1S7Zmdeffco0RERERERH8VBopENs65gqc2r6jfobcGNhIuLRnbFxu/eU+n2TpIOHUT+1d/jz8i5yEnJxv+dVvkhTTSsbmwkGbbj5OQELtLA7JaLbtgwKwDRkXdUXT7YBECmzyYN3W5sNfLax4aNg2VqtTU0HPPipmY80p7rU50dvdCeTs748zSJVN0H3xxkjZSkYBPulr/OvlVLJ8wABlXL8PZw7TeY2Fud0zNju+MxLTewXlTbBeO6onj0WtQrlw51G7VFZ1e+UIDRjOvwBBdm1CcPbRDp1PfzYozpjp+sz7QtRLdfQI0jJT7Z+eiqTc0IzKb+2oHHUvzY2rPmlj50SDE716vv4P8Li16vlZopa1OJR8wFk9NWpN7jx/Ue1weD7/2FRyc3YyziIiIiIiIbBcDRSIbZQ6nJGCRNeiyMjOwb/X3mDe8M+J3rdNjUtVmbqQiU2ALs3vJDKQmmaaiZmakY+fiaTdtbiHTbqWacM/ymbhy8ZxOZZVwCOXL4+KZYzrtNkXeKydHnwtZvy8nO0e/hwRsUmV24VQsVkQMxLqpr+ddR97U2LRUpCWf1X13WrY0m8n97q4VfXBPjYYaCsq6hPPfeAwH1/5gnGVqciMkFCvM7YxpYWRMZJrvwlG9tNmLCAhtgzrtuuu2ME8lF7KO5t2qpMZU1kg8uW+T8Qw6PjLO1pLQMua3n/HLOz1y32up7vPwCUT1Zh1126zhI8/hqYmr9a/3vfXg5Oap97g8HFzccu9R/t8qERERERHZPv6XD5GN0sAuJ0e3pYJr+YT+iPximAYnZlJpJQ1RpGFH2sVEY28+qXhr1eetvK7KMiW0cdcXdO2/m5H3Xzftdcx4tj4md6ui1V9TegRh1uD7cXjjQjg4Ous5ibG79HwJ1tIvX9Rt+R4HIudh3tBOGipZqli1lv7NuJKK1HOndftOS0mMR6YxpVXWi1z/1Zu6LqGMr5mETFJNKdIu3Bh8FmVMb+XIluXayVs7dQfmdzm2VN7OFCzejUpiTIU0uZHp32aybW58c7uk27RMr5cA28E1v+JQfqNm3f6l4aGsB7ruqze0stFc5bjwvZ64lnbJOJuIiIiIiMh2MVAkslES2Gl4mJODI1uX3RDQiWqN/gZHFzdkpKdpp+DrSYMLaXQhTu3bnLf2X1iPYQWm11qrRstHtaLrUkJ8XiMQqUa8eDZOty9fOIsdCyYXCD2FV0AIKgfW0W3psFta03cTDu9Cemqybst6kXtXzNRtS1Ubtoarp7cGUueOHzD25ivpMdXKzXLldO3KjPQrxl4gJeF47jiZvqtPrdAivfedUBJjKkGfNLmR6tbkU0dw6UxcgcY3t0sqd3VMc/9n7kougpq2h6uHt06n3jL7Q+xZ+vUN9yoREREREdH/AgaKRDZKAjsJ7qQpR42wh28IVuR5rfu75DXtiN9pmgZtJg0pmnX7twYzsi7isoj+iNmwQI8FNWuPB54bpdvWavzYIIS0+T9kZ2VrpaJlKBi/cy2yMjJ0TceGnfsae/M1fKSfqdvztas49vsqY++NXh06FNG7dmFTVBQGDHzB2Ftyzh6Kxvm4P3Tbv27YDU07ZL29Om276/Rt6VgsHZgtlfSYSkhYo2UXDcBk/cBTe/On/GpQe/qIbntXb6BBZlHc7WMqx8MHTdBqW7mnor4bg6jZ47SSVfbJscLWQbwZObdmi0d0rc/L504jbsca4wjg7FZR9+dkZd5QiSi/Qb1OvU0Nc/5EeHg4fo2MxK49e/Dxxx+jghvXXSQiIiIiorLFzsnF7V1jm4hsiIRvLu5e8K/TAi4eXqjaoDWuJCfifHwMarXqirYvjIOnX5AGL5tnj8c5iy665pBGujVLSLNp1vtaSXbm0A5Uy30fN+8qqBwYgrTkpEIrG82kMi6kXXe0GTAWddr+Q6f3xm1fjfXT39S18sySzxzV7s6yjp73vfXh4VNNP8vB2RVtnh+NuuFPaZAja+RJMxnL15qFhoZixIgR8PP3h6enJ+o1qIeYgwdx7JhprcaSkp2dhaDG7XSqeNX6LZFxNQ1Jx/bBL6QZ2v/rE/jWaoyszEzsXjK9QPhVUmMq5L1qtHgY4YMnIKBRG62mO7ptBXb8/IVxhon5u8o4SsdnD98AXDwThyuXzumU69BHn0fbgR/golT1WUwxNrvbx1S07vs2qjfviJzsbBxYMxfRv0zB+eMH4Oblp2syShDtXrkKYqOWGK8onHk8HvznRFSsamoKFL1gsnbfNqsUUDv3t/qbBsJO7hVzf7+dyLqWjiaPDULHlz+HX3BTXUNRqkWlucvZmB3GKwt6+513EBYWBhcXF9QODoaDvT1+22Cq2CUiIiIiIioLyrlX8jUtskZENkcq2DoPm4bqYZ0LbRYhU0h3L52Ojd/kV8bJax5+bYYGfBL07F46A799/Y5x1FRlFz44As7ulTSEWjbh+bxOujI1uevI7/PWB7QkAc0fa+Zgw/S38hqtWJL3bffCh9pdtzDStGTVJy/etGuvVHnNm/cDGoU20ufp6dcw+fPPMGniRH1ektr0H4MGDz2T17HaklybNPVYNWlI3nUWZ0xDuw5Aqz4j85rnXE+m5B7Zuhy/fvZyodNvw54ajqZ/H3zTyjmptFs+4QXtIn29u3lMhayR2KLXCA34pJP1otG98ypfJXTt+uZ38KnV2JiiPB7Rv3ypx251nwqZhr7j5y+xdc4EY4+J5XsWRqbs2zs463qWm2aNxq5FXxlHCho9Zgz69OkDO6Nr+fp169C7Vy/dJiIiIiIiKgtYoUhkw6SSL3bzEmRcuazr9Dm6umuwKJ2Fk47uw/qv/oPdS782zjaRqcn1O/XREEyaU6ya9M8CFYEyPdrRxR1+dZprAOZToxGObFuOzKtpcPH0RkjbbnCq4KHnZqZf0QYq0oF39acvacOVwqoLhbzviV3rUaGSrz7sHJy06kwadcjrVkS8cNNO1CLj2jVcTk1Fq9at4ezsjKysLGzbuhWbo6KMM0qOTINNOXcS7t5VtfpTmndIsCeNcKK+G4vNuQ/L6yzOmEqVXkBo29zXmsInIaGajMuJ3Rs0mNz+06cF1vqzdHLvJn24e1fR95YqUZnmLveAfO72+Z/p71PY73I3j6lM2X+g3yg4554rHcXXTnlNq2/NZOwunjmKoKYd9H70qRmq7yXXfP19KuSzLicn4NBvv2DlxME4smWZcSSfvKdUHsq/Jal8tLN31HtUGrQczL1HN347SitHZfrzrSoUt+aOYbu27eDr56vP4+Li8NP8+bpNRERERERUFrBCkYhsiqxNFxwcjOTkZPxnxAgsXrzYOEJFZWtjKsGuTIeWALK0mqpMiIjAUz17Ijs7G99++y1GvvmmcYSIiIiIiOjux6YsRGQT/P39Me7D8QgMCkJOTg5+37aNYWIx2eqYSoWnNIMprTCxb9++CH8wXLdPnjiBBaxOJCIiIiKiMoYVikRUpj3++OMY+e47qOxVGfb29hp8RUdHY/jQoYiJyZ8CS9bjmP41Fi9dipCQEJ0+LhISE/DhuPGYO2eOPiciIiIiIiorWKFIRGWavYMD3FwrICsrG7GxsfgoIgK9evZk8FUMHNO/hnR1dsgd28SkRMz/8Uf07PEkw0QiIiIiIiqTWKFIREREREREREREVmOFIhEREREREREREVmNgSIRERERERERERFZjYEiERERERERERERWY2BIhEREREREREREVmNgSIRERERERERERFZjYEiERERERERERERWY2BIhEREREREREREVmNgSIRERERERERERFZjYEiERERERERERERWY2BIhEREREREREREVmNgSIRERERERERERFZjYEiERERERERERERWY2BIhEREREREREREVmNgSIRERERERERERFZjYEiERERERERERERWY2BIhEREREREREREVmNgSIRERERERERERFZjYEiERERERERERERWY2BIhEREREREREREVmNgSIRERERERERERFZjYEiERERERERERERWa2ceyXfHGObiGxU9fs64b4eQ+EVVAf2Dk7IzsrEpbPHsWf5N9i1aJpxVsm5p3oDtO73HnxrN4aDcwXkZGfjasoFHN60CJu+HY2Mq5eNMwuSc1s9MxK1WnWFs3sllCtfHtfSUnBy70ZsmjUGF04cMs4sfYVd4+ULZxGzbj42zx6nY1xS/OvchyaPD4Z/3RZ545KdmYGUpJM4EDkP2+d/WqKfV1ru5JiKot5v5e3s0azbv1Gv49OoUMlHn2deu4qEQzux+b/jcGrfZuNMIiIiIiIi28RAkcjGtX72bTR6pD/sHByNPfkkoIndvBSrJg0psbCm4SPPoWXv1+Ho6qHvmZl+RQMXeycXPZ5weCcWjXkaV5KT9LnZPTUbouNLn8MrIMTYU5AES5FfDMOx31cZe0qP5TXeICcHp/ZvwbKI/jdcY1E9OXG1hm2F+gs+rzTc6TEt6v3mUtEbDw+bjir1WuT+P2g5Y2++a2mXEPX9OOxZ+rWxh4iIiIiIyPbYObm4vWtsE5GNqdehN8J6vAp7R2dcOBWLdVNGYHnEQJyPP4jK1evD1dMbFf2ra+h35uA241VFV61ha7Qd8IFWeyUd24/F7/fGhhkjsWPBZA0VfWqFwt27KtwrV0Fs1BLjVaaKr85Dp8KnZiiyMq7hQOQcLBzdC9G/fAFnN094BdSBUwVPVKpaC0e2LkPm1TTjlXee5TWmJSdg4zejsHRcPxyPjoRXYAjcKvvDzbsKHFzcELd9tfGq4gl+4An9zaJmjcWqj4dg27yJSDq6P/fzguFa8R64VvJFemoyTh8o/m9YGu70mBbnfms/5CPc26wDsrOzELfjVyz54Nnc32WMhp7e1etpIOodWAcn90ch7UKC8SoiIiIiIiLbwkCRyEZJaNJmwBh4+Abp9OYVHw3Eid0b9Nj5+BgkHdmDoKYPwsnNU6dtHt64UKdtFkfLZ0bCt3YTXD5/Br9++m+cPbxT9+fkZOtnV763HioH1oGTe0Wc3LcpL3Cp16EX6uY+xP6Vs7B2yggNceRxdNtKePhUwz3VG8LZvXKpB2fma5Qp3GunjsDBtT/o9aUmncLR31dq2CQhXwUv3wLXWBwH1sxFzPqfcOFEjH6WPGT74qlY/TxHVzdkpl/Fod9+Nl5RttzpMS3q/RbQ6AE0feJFrbY99vtqLBv/HK5cTNLp5yf2/Kb/5vzrtNBQUtwN1bRERERERER/BTZlIbJRAY3bolK12sjJzsKhjb8gMXaPccREQhKpsBIePgEaloiaLR9F/2//wIsLzuCZL7cUOiX0vu6vYPC8eLz402k8MsI0tdP9HglhTNNyE4/uLTT0i4+O1GpIVw9vBDVtb+wF7m3eUasoUxJPIHrhFGNvvn0rv8Pl5ATYOTjkXlc7Y++dJ2PhF9xUt+N3byhQZSlkOm7MhgUaMFleY1HH9M9cvpCAjPQ/r9aUtQJl6nvfr3ZgyI8n9HsM+SEeT0/eiCaPD9EgrLQUdUxl6nGPCcv1WgbNPYZGjz6v+y3J2pP9Zuy8YdyLer8FNe+gVZQSfO5eMv2GZQJkTdKLZ47qVOgq9e7Xc4mIiIiIiGwRA0UiG+UX0hyOLm64diUVp/bf2CQipF33vHBGKq68gurqtgQ6B9bO07DEwzcQ9/caofvNJKRp0Lmvhi2JR/Ygcuprul9CK/M6jTlZWfr3eueOH0B62iWUt3fQEFNIECnBpzh//KBWU1qS4Kj5P16Ci7uXPtcp07mvKQ0SfLl4VNZpsoVNEQ8IbYuQNt00oJNr9KoWrPuLOqZ/xisgWKfmSmicFLff2FuQfKeeH0dqcOjuXSUvPJTvV7FKTdzX42VUa2gKk0tDUcdUgsatcz/C1UvnNRxs3GVggaBWzg/rORwVvPyQnnoRG2eO1mnjxbnffGs31bBQgsiT+6J0n5l8Xovc31V+XyHXJNO1iYiIiIiIbBEDRSIb5ekbhHLl7bRrbUrCCWOvKfjrPPwrtP/nRA1bhJwn057NNs0crevXSXgS2PRB7TAsJDRp9cxb+jqp0vp9/ie31SQj42qaVpoJFw9v/evuU01DMaHVXRZq3t8FT0asQvWwzhomCQeXCjr9tTS4+wZqaJqVcRUX4g8be03j0vrZd/DoGzNNYZXRrMPF4nuW9JhKCNm8+ytwdHXXEHL30hnGkXwSbrUdOFb/yrjLdN65wzri8yf8MHNgc2yZPR4piSeRk116HaKLM6YypXj7T59rGCnX2PLpN/R1IuzJYahav5WGuDHr5yN282LdX9T7TUJFCQlF6rnTBaoT/YKb4alJv6LhQ3013BT2jk6oUDH/3xQREREREZEtYaBIZKMkOBRXU5O1MktUv6+TVqvVatVVg5cLJw9rEwxhDviEhCVb5nyo1VsSkDR8uJ92xZWQxje4mR7fu3xmgempyaditVpMVKxaUyu9riefJaGiJXsHF63Mk1AoJemk7pPv3uHfn+KhoV9qQ47M9DScidluOubkAqcKFXX7TpPPlvA1/fIlpJ47pftkmnf3CcvR5LFBOlYyZikJ8XrMcsprUcbUkjQukSnLA7+PwaA5R9Bt7EKtUDy6dUWhXbOFrPdX0b+Gvve+lbOwZOwzeVPfpcpu2w+T8N+Xw3WqcWkpzpiKXYunmYLaXDLNP7TLAB2r+p366D1+Nve+2fD123pcFPV+s6zANQeR8v7393odfx/1g1ZHyjifPbRD37u8vSNcvXz1PCIiIiIiIlvDQJHof4CEIeFDItB5+HSt5JLmK7J23H9faqfr8BVGgqfff/xEwxWZntzm+fdNIU15O8Rt/xVb50YYZ5pImCLrJsr0W0+/e9F24Li8UFNIRV2nVyZrV+lbkdCzx0crUSe8hwY2Eob+/HZ3bTgiQc3dws7eAWFPDccT7/+kAZhc/+FNizSgkw7XhbndMbVU3s4RTq5u2kXY3slVK/ZkfAKbhKNN/7EFxlpI8Cbr+Ml5F04cwpY5E4wjd6+ijKmcs+HrkUg+fUTDx0aPPIfW/d6Di2dlDSLXz3hLz7mZot5v8v3+b+wvOj1afg+pWlzx0WBsmT0h93XFa25ERERERER0t2OgSGTjnCt4avOK+h16a2Aj4dKSsX2x8Zv3dJqtg4RTN7F/9ff4I3Kedtz1r9siL6SJ+m5soSHNth8nISF2lwZktVp2wYBZB4yKuqPo9sEiBDZ5MG8qaWGvl9c8NGwaKlWpqaHnnhUzMeeV9lot5uzuhfJ2dsaZpUsq1R58cZI2UpGAT7taT34VyycMQMbVy3D2MK2/V5jbHVOz4zsjMa13sE5X/uIf1bBwVE8cj16DcuXKoXarruj0yhcaiJnJ+n3mKbpSNSfTqe9mxRlTHb9ZH+haie4+ARr2yf2zc9HUG5oRWSrq/SYVpX8fNV+nOstvdnTrcp1KLtOq3Sr75b7OdI8TERERERHZKgaKRDbKHE5JwCJr0GVlZmDf6u8xb3hnxO9ap8csp3HKFNjC7F4yA6lJpqmomRnp2Ll4Wt4U6uvJtFup7tqzfCauXDynU1klHEL58rh45phOu02R98rJ0edC1u/Lyc7R7yEBm1SZXTgVixURA7Fu6ut515E3NTYtFWnJZ3XfnZYtzWZyv7trRR/cU6OhhoKyLuH8Nx7DwbU/GGeZmtwICcUKcztjWhgZE5nmu3BUL232IgJC26BOu+66LcxTe4Wso3m3KqkxlTDv5L5NxjPo+Mg4X6+o91tO7v6c7Gw9JtW2Tm6eOoV/7dQRWPLBs3lTzh1c3fR1Wbm/68XTpnuciIiIiIjI1jBQJLJRGtjl5Oi2VHAtn9AfkV8M02ovM5n+LA0qpGFH2sVEY28+qXhr1eetvC639g5OaNz1BV3772bk/ddNex0znq2Pyd2qaEXdlB5BmDX4fhzeuBAOjs56TmLsLj1fgrX0yxd1W77Hgch5mDe0k4ZKlipWraV/M66k6vTS0pCSGI/MTNM0WFkvcv1Xb+q6hDK+Zt731tPqNpF24cbgsyhjeitHtizXTt7aqfsmXYXv5oq5khhTIU1uZPq3mWybG99YKur9JqGjucpTgkWpDv3x9S7Yv3q27jPz9L1Xw8qM9DRcuWh9wyIiIiIiIqKyhIEikY2SwE7Dw5wcHNm67IbARFRr9Dc4urhp+CGdgq8nDS6k0YU4tW9z3tp/YT2GaTB2u2q0fFQruy4lxOc1ApGg5uLZON2+fOEsdiyYXCD0FNLwonJgHd2+ePpoqU3fTTi8C+mpybot60XuXTFTty1Vbdgarp7euv7eueMHjL35SnpMtZKuXDnI2pUZ6VeMvUBKwvHccTJ9V59aoUV67zuhJMZUwlhpciPVhsmnjuDSmTjdNje+sVSc+y3p2F79e+1KCnYtmVEg9BQyxlK9KNLOny303xQREREREZEtYKBIZKMksJPgTppy1Ah7+IZgRZ7Xur9LXtOO+J2madBmNVs+imbd/q3BjKyLuCyiP2I2LNBjQc3a44HnRum2tRo/Ngghbf4P2VnZWqloGQrG71yLrIwMXdOxYee+xt58DR/pZ+q+e+0qjv2+yth7o1eHDkX0rl3YFBWFAQNfMPaWnLOHonE+7g/d9q8bpmNkSTpb12nbXSvUpGOxdGC2VNJjKgFWjZZddOq6rB94am/+lF8Nzk4f0W3v6g00yCyKu31M5Xj4oAlabSv3VNR3YxA1e5xWFso+OXZ9x/Gi3m/Ho9fq9HEnVw806PTMDSFtaJeB8Aqso+Hu8V3r8qZPXy88PBy/RkZi1549+Pjjj1HBzc04QkREREREVDbYObm4vWtsE5ENkTDExd0L/nVawMXDC1UbtMaV5EScj49BrVZd0faFcfD0C9LgZfPs8Thn0UXXHNJIt2YJaTbNel8ryc4c2oFque/j5l0FlQNDkJacdMsqLKmMC2nXHW0GjEWdtv/Q6b1x21dj/fQ3da08s+QzR7Xbrqyj531vfXj4VNPPcnB2RZvnR6Nu+FPazEXWyJNmMpavNQsNDcWIESPg5+8PT09P1GtQDzEHD+LYsZJdxy47OwtBjdvpVPGq9Vsi42oako7tg19IM7T/1yfwrdUYWZmZ2L1keoHwq6TGVMh71WjxMMIHT0BAozZaoXh02wrs+PkL4wwT83eVcZSOzx6+Abh4Jg5XLp3TKdehjz6PtgM/wEWp6ruu2k7c7WMqWvd9G9Wbd9RpyAfWzEX0L1Nw/vgBuHn56ZqMEgy6V66C2KglxiuKfr9J9aNUS8pvKA+5vxOP7kXWtXSE9RiKpk8M1veQgH7t1NeQmXsdhXn7nXcQFhYGFxcX1A4OhoO9PX7bYKrYJSIiIiIiKgvKuVfyNS2yRkQ2RyqoOg+bhuphnVGu/I0FyTKFdPfS6dj4TX5lnLzm4ddmaOAiQc/upTPw29fvGEdNVXbhgyPg7F5JQ6hlE57P66QrU0W7jvw+b31ASxJw/rFmDjZMf6vQyi1533YvfKhdjwsjTUtWffLiTbv2SpXXvHk/oFFoI32enn4Nkz//DJMmTtTnJalN/zFo8NAzeR2rLcm1xW5eilWThuRdZ3HGNLTrALTqM1Ir9Aoj6wAe2bocv3728g1Td0XYU8PR9O+DYX+Tbt7X0i5h+YQXtIv09e7mMRWyRmKLXiO04lM6WS8a3Tuv8lVC165vfgefWo313tsyezyif/lSj4mi3m9S2dt56DR4+lc39hQk06hlrdJbVdKOHjMGffr0gZ3RRXr9unXo3auXbhMREREREZUFrFAksmFSWRW7eQkyrlzWdfocXd01WJTOwklH92H9V//B7qVfG2ebyNTk+p36aAh25uA2rJr0zwIVgVJ95ejiDr86zTUA86nRCEe2LddqLBdPb4S07QanCh56bmb6FW1oIR14V3/6kjbAKKy6UMj7nti1HhUq+erDzsFJq86kUYe8bkXECzftRC0yrl3D5dRUtGrdGs7OzsjKysK2rVuxOSrKOKPkxO1Yg5RzJ+HuXVWrP6WrrwR70ggn6rux2Jz7sLzO4oypVOkFhLbNfa0pfBISqsm4nNi9QYPJ7T99qp9fmJN7N+nD3buKvrdUico0d7kH5HO3z/9Mf5/Cfpe7eUwl2Hug3yg4554rHcXXTnlNq2/NZOwunjmKoKYd9H70qRmq7yXXLIp6v6VdSNCw0MHFTYNzCTNFetol3b9y4iCdxn0rW3PHsF3bdvD189XncXFx+Gn+fN0mIiIiIiIqC1ihSEQ2RdamCw4ORnJyMv4zYgQWL15sHKGi4piWvAkREXiqZ09kZ2fj22+/xcg33zSOEBERERER3f3YlIWIbIK/vz/GfTgegUFByMnJwe/btjH4KiaO6V+jb9++CH8wXLdPnjiBBaxOJCIiIiKiMoYVikRUpj3++OMY+e47qOxVGfb29hp8RUdHY/jQoYiJyZ8CS9bjmP41Fi9dipCQEJ0+LhISE/DhuPGYO2eOPiciIiIiIiorWKFIRGWavYMD3FwrICsrG7GxsfgoIgK9evZk8FUMHNO/hnR1dsgd28SkRMz/8Uf07PEkw0QiIiIiIiqTWKFIREREREREREREVmOFIhEREREREREREVmNgSIRERERERERERFZjYEiERERERERERERWY2BIhEREREREREREVmNgSIRERERERERERFZjYEiERERERERERERWY2BIhEREREREREREVmNgSIRERERERERERFZjYEiERERERERERERWY2BIhEREREREREREVmNgSIRERERERERERFZjYEiERERERERERERWY2BIhEREREREREREVmNgSIRERERERERERFZjYEiERERERERERERWY2BIhEREREREREREVmNgSIRERERERERERFZjYEiERERERERERERWY2BIhEREREREREREVmNgSIRERERERERERFZjYEiERERERERERERWa2ceyXfHGObiGxU9fs64b4eQ+EVVAf2Dk7IzsrEpbPHsWf5N9i1aJpxVsm5p3oDtO73HnxrN4aDcwXkZGfjasoFHN60CJu+HY2Mq5eNMwuSc1s9MxK1WnWFs3sllCtfHtfSUnBy70ZsmjUGF04cMs4sfYVd4+ULZxGzbj42zx6nY1xS/OvchyaPD4Z/3RZ545KdmYGUpJM4EDkP2+d/WqKfV1ru5Jg+OXG1ft6t7Fw4Bb/9v3eNZ0RERERERGTGQJHIxrV+9m00eqQ/7BwcjT35JKCJ3bwUqyYNKbGwpuEjz6Fl79fh6Oqh75mZfgXl7exh7+SixxMO78SiMU/jSnKSPje7p2ZDdHzpc3gFhBh7CpJgKfKLYTj2+ypjT+mxvMYb5OTg1P4tWBbR/4ZrLKpbhl9/weeVhrtqTA0MFImIiIiIiApn5+Tixv9aIrJR9Tr0RliPV2Hv6IwLp2KxbsoILI8YiPPxB1G5en24enqjon91Df3OHNxmvKroqjVsjbYDPtAquqRj+7H4/d7YMGMkdiyYrKGiT61QuHtXhXvlKoiNWmK8Cnqs89Cp8KkZiqyMazgQOQcLR/dC9C9fwNnNE14BdeBUwROVqtbCka3LkHk1zXjlnWd5jWnJCdj4zSgsHdcPx6Mj4RUYArfK/nDzrgIHFzfEbV9tvKp4gh94Qn+zqFljserjIdg2byKSju7P/bxguFa8B66VfJGemozTB4r/G5aG0hjTBg89gwqVfHB06wp8/+LfsHVuxA2P4zvXGmcTERERERGRJa6hSGSjJKSr16En7J1cdXrzyomDdMqxkL9rPnsZl8+f0crFOuHdNcwprvoP9YWLZ2V933VTRyDx6F7dL5WKUd+NxdFtK4Fy5eBf/36tSDSr++BTuc9D9bz9q77DmslDtRJNHrJ9cN0PWqXmFVgXdcOfNF5VOszXKFO41037D/aumKnfW8K8JR/0xfkTMShX3g7Vwx4qcI3FseCtJ7D4/acRu3mxfpY8ZPu3GSNx9dL53N/QAf51woyzy57SGFMiIiIiIiIqOgaKRDYqoHFbVKpWGznZWTi08Rckxu4xjphIWBO341fd9vAJQECjB3S7ZstH0f/bP/DigjN45ssthU5Bvq/7Kxg8Lx4v/nQaj4z4Wve531MtbwqpBImFVcvFR0dqNaSrhzeCmrY39gL3Nu+oVZQpiScQvXCKsTffvpXf4XJyggZnAY3bGXvvPBkLv+Cmuh2/e0OBKkshAWjMhgW6vqHlNRZ1TP/M5QsJyEj/82pNWY9Qpr73/WoHhvx4Qr/HkB/i8fTkjWjy+BANn0tLUcfUpaI3ekxYrtcyaO4xNHr0ed1vSdae7Ddj5y3H/XbJWMqYdf9wGQZ+f0h/L/0O8+J0POt16GWcSUREREREZLsYKBLZKL+Q5nB0ccO1K6k4tX+zsTdfSLvueeGMrG/oFVRXtyXQObB2nlaIefgG4v5eI3S/mYQ0DTr31XAv8cgeRE59TfdL0GJepzEnK0v/Xu/c8QNIT7uE8vYOGmIKCSIl+BTnjx/UakpLEhw1/8dLcHH30uc6ZTr3NaVBgi8Xj8o6LbuwKeIBoW0R0qabBnRyjV7VgnV/Ucf0z3gFBOtUcAmNk+L2G3sLku/U8+NIDcHcvavkhYfy/SpWqYn7ep+HMn4AAA6dSURBVLyMag1NYXJpKOqYStC4de5HWqEpYXTjLgMLBIZyfljP4ajg5Yf01IvYOHO0Thsvrha57ynhrG/tJnB0ddeKWyHNjmQ82w36EG0HjNV9REREREREtoqBIpGN8vQN0mmi0iU5JeGEsdcU/HUe/hXa/3Oihi1CzpP15Mw2zRyt69dJWBLY9EHtMCwkpGn1zFv6Opme+vv8TzTYsVbG1TStNBMuHt76192nmoZi4uKZo/rXrOb9XfBkxCpUD+usYZJwcKmg6waWBnffQA1NszKu4kL8YWOvaVxaP/sOHn1jpikcNUImF4vvWdJjKiFk8+6vaKglIeTupTOMI/kkvGw7cKz+lXGXKedzh3XE50/4YebA5tgyezxSEk8iJ7v0OkQXZ0ylQc/2nz7XMFKuseXTb+jrRNiTw1C1fisNcWPWz9cp4iUhOzsbF08f1YYt8994XMfyi39Uw4qJg5GaO5by+bVaPaa/DxERERERka1ioEhkoyQ4FFdTk/Mqs6rf10mr1Wq16qrBx4WTh7UJhjAHfEJCmC1zPtRqQan+avhwP127TkIa3+Bmenzv8pkFpqcmn4rVajFRsWpNrSy8nnyWhIqW7B1ctDJPQqGUpJO6T757h39/ioeGfqkNOTLT03AmZrvpmJMLnCpU1O07TT5bwtf0y5eQeu6U7pNp3t0nLEeTxwbpWMmYpSTE6zHLdSmLMqaWpHGJTFke+H0MBs05gm5jF2qFojQVKaxrtmj6xIuo6F9D33vfyllYMvaZvKnvMr182w+T8N+Xw3WqcWkpzpiKXYunmYLaXDLNP7TLAB2r+p366D1+Nve+2fD123q8MLIuo0xZNk9bfnZGNMKHRGhAWZhNM0dh1pCW2v359B9bdJ+M76ENC3Q8M69dhWMFD/jUbqzHiIiIiIiIbBEDRaL/ARLQSUjSefh0DUok9JC1Cv/7Ujtdh68wEjz9/uMnGubJ9OQ2z79vCmnK2yFu+6/aBdeShCqybqJMv/X0uxdtB47LCzWFVGx1emWydpW+FQk9e3y0EnXCe2ggJGHoz293x6HfftbQ8W5hZ++AsKeG44n3f9IATK5fmt1IQCcdrgtzu2NqqbydI5xc3eDo6qGNdqRiT8YnsEk42vQfW2CshQRvVerdr+ddOHEIW+ZMMI7cvYoypnLOhq9HIvn0EQ0fGz3yHFr3e0+bvEgQuX7GW3qONWTaspuXP+p3fBrdxy/TtS9vh1R7ZmfePfcoERERERHRX4WBIpGNc67gqc0r6nforYGNhEtLxvbFxm/e02m2DhJO3cT+1d/jj8h5yMnJhn/dFnkhjXRsLiyk2fbjJCTE7tKArFbLLhgw64BRUXcU3T5YhMAmD+ZNXS7s9fKah4ZNQ6UqNTX03LNiJua80l6rE53dvVDezs44s3TJFN0HX5ykjVQk4JOu1r9OfhXLJwxAxtXLcPYwrfdYmNsdU7PjOyMxrXdw3hTbhaN64nj0GpQrVw61W3VFp1e+0IDRzCswRNcmFGcP7dDp1Hez4oypjt+sD3StRHefAA0j5f7ZuWjqDc2IzOa+2kHH0vyY2rMmVn40CPG71+vvIL9Li56vFVppq1PJB4zFU5PW5N7jB/Uel8fDr30FB2c34ywiIiIiIiLbxUCRyEaZwykJWGQNuqzMDOxb/T3mDe+M+F3r9JhUtZkbqcgU2MLsXjIDqUmmqaiZGenYuXjaTZtbyLRbqSbcs3wmrlw8p1NZJRxC+fK4eOaYTrtNkffKydHnQtbvy8nO0e8hAZtUmV04FYsVEQOxburredeRNzU2LRVpyWd1352WLc1mcr+7a0Uf3FOjoYaCsi7h/Dcew8G1PxhnmZrcCAnFCnM7Y1oYGROZ5rtwVC9t9iICQtugTrvuui3MU8mFrKN5tyqpMZU1Ek/u22Q8g46PjLO1JLSM+e1n/PJOj9z3Wqr7PHwCUb1ZR902a/jIc3hq4mr9631vPTi5eeo9Lg8HF7fce5T/t0pERERERLaP/+VDZKM0sMvJ0W2p4Fo+oT8ivximwYmZVFpJQxRp2JF2MdHYm08q3lr1eSuvq7JMCW3c9QVd++9m5P3XTXsdM56tj8ndqmj115QeQZg1+H4c3rgQDo7Oek5i7C49X4K19MsXdVu+x4HIeZg3tJOGSpYqVq2lfzOupCL13GndvtNSEuORaUxplfUi13/1pq5LKONrJiGTVFOKtAs3Bp9FGdNbObJluXby1k7dgfldji2VtzMFi3ejkhhTIU1uZPq3mWybG9/cLuk2LdPrJcB2cM2vOJTfqFm3f2l4KOuBrvvqDa1sNFc5LnyvJ66lXTLOJiIiIiIisl0MFIlslAR2Gh7m5ODI1mU3BHSiWqO/wdHFDRnpadop+HrS4EIaXYhT+zbnrf0X1mNYgem11qrR8lGt6LqUEJ/XCESqES+ejdPtyxfOYseCyQVCT+EVEILKgXV0Wzrsltb03YTDu5Cemqzbsl7k3hUzddtS1Yat4erprYHUueMHjL35SnpMtXKzXDlduzIj/YqxF0hJOJ47Tqbv6lMrtEjvfSeUxJhK0CdNbqS6NfnUEVw6E1eg8c3tkspdHdPc/5m7kougpu3h6uGt06m3zP4Qe5Z+fcO9SkRERERE9L+AgSKRjZLAToI7acpRI+zhG4IVeV7r/i55TTvid5qmQZtJQ4pm3f6twYysi7gsoj9iNizQY0HN2uOB50bptrUaPzYIIW3+D9lZ2VqpaBkKxu9ci6yMDF3TsWHnvsbefA0f6Wfq9nztKo79vsrYe6NXhw5F9K5d2BQVhQEDXzD2lpyzh6JxPu4P3favG3ZD0w5Zb69O2+46fVs6FksHZkslPaYSEtZo2UUDMFk/8NTe/Cm/GtSePqLb3tUbaJBZFHf7mMrx8EETtNpW7qmo78YgavY4rWSVfXKssHUQb0bOrdniEV3r8/K504jbscY4Aji7VdT9OVmZN1Qiym9Qr1NvU8OcPxEeHo5fIyOxa88efPzxx6jgxnUXiYiIiIiobLFzcnF719gmIhsi4ZuLuxf867SAi4cXqjZojSvJiTgfH4Narbqi7Qvj4OkXpMHL5tnjcc6ii645pJFuzRLSbJr1vlaSnTm0A9Vy38fNuwoqB4YgLTmp0MpGM6mMC2nXHW0GjEWdtv/Q6b1x21dj/fQ3da08s+QzR7W7s6yj531vfXj4VNPPcnB2RZvnR6Nu+FMa5MgaedJMxvK1ZqGhoRgxYgT8/P3h6emJeg3qIebgQRw7ZlqrsaRkZ2chqHE7nSpetX5LZFxNQ9KxffALaYb2//oEvrUaIyszE7uXTC8QfpXUmAp5rxotHkb44AkIaNRGq+mObluBHT9/YZxhYv6uMo7S8dnDNwAXz8ThyqVzOuU69NHn0XbgB7goVX0WU4zN7vYxFa37vo3qzTsiJzsbB9bMRfQvU3D++AG4efnpmowSRLtXroLYqCXGKwpnHo8H/zkRFauamgJFL5is3bfNKgXUzv2t/qaBsJN7xdzfbyeyrqWjyWOD0PHlz+EX3FTXUJRqUWnucjZmh/HKgt5+5x2EhYXBxcUFtYOD4WBvj982mCp2iYiIiIiIyoJy7pV8TYusEZHNkQq2zsOmoXpY50KbRcgU0t1Lp2PjN/mVcfKah1+boQGfBD27l87Ab1+/Yxw1VdmFD46As3slDaGWTXg+r5OuTE3uOvL7vPUBLUlA88eaOdgw/a28RiuW5H3bvfChdtctjDQtWfXJizft2itVXvPm/YBGoY30eXr6NUz+/DNMmjhRn5ekNv3HoMFDz+R1rLYk1yZNPVZNGpJ3ncUZ09CuA9Cqz8i85jnXkym5R7Yux6+fvVzo9Nuwp4aj6d8H37RyTirtlk94QbtIX+9uHlMhayS26DVCAz7pZL1odO+8ylcJXbu++R18ajU2piiPR/QvX+qxW92nQqah7/j5S2ydM8HYY2L5noWRKfv2Ds66nuWmWaOxa9FXxpGCRo8Zgz59+sDO6Fq+ft069O7VS7eJiIiIiIjKAlYoEtkwqeSL3bwEGVcu6zp9jq7uGixKZ+Gko/uw/qv/YPfSr42zTWRqcv1OfTQEk+YUqyb9s0BFoEyPdnRxh1+d5hqA+dRohCPbliPzahpcPL0R0rYbnCp46LmZ6Ve0gYp04F396UvacKWw6kIh73ti13pUqOSrDzsHJ606k0Yd8roVES/ctBO1yLh2DZdTU9GqdWs4OzsjKysL27ZuxeaoKOOMkiPTYFPOnYS7d1Wt/pTmHRLsSSOcqO/GYnPuw/I6izOmUqUXENo297Wm8ElIqCbjcmL3Bg0mt//0aYG1/iyd3LtJH+7eVfS9pUpUprnLPSCfu33+Z/r7FPa73M1jKlP2H+g3Cs6550pH8bVTXtPqWzMZu4tnjiKoaQe9H31qhup7yTVff58K+azLyQk49NsvWDlxMI5sWWYcySfvKZWH8m9JKh/t7B31HpUGLQdz79GN347SylGZ/nyrCsWtuWPYrm07+Pr56vO4uDj8NH++bhMREREREZUFrFAkIpsia9MFBwcjOTkZ/xkxAosXLzaOUFHZ2phKsCvToSWALK2mKhMiIvBUz57Izs7Gt99+i5FvvmkcISIiIiIiuvuxKQsR2QR/f3+M+3A8AoOCkJOTg9+3bWOYWEy2OqZS4SnNYEorTOzbty/CHwzX7ZMnTmABqxOJiIiIiKiMYYUiEZVpjz/+OEa++w4qe1WGvb29Bl/R0dEYPnQoYmLyp8CS9Timf43FS5ciJCREp4+LhMQEfDhuPObOmaPPiYiIiIiIygpWKBJRmWbv4AA31wrIyspGbGwsPoqIQK+ePRl8FQPH9K8hXZ0dcsc2MSkR83/8ET17PMkwkYiIiIiIyiRWKBIREREREREREZHVWKFIREREREREREREVmOgSERERERERERERFZjoEhERERERERERERWY6BIREREREREREREVmOgSERERERERERERFZjoEhERERERERERERWAv4/YJQDtEQpHTkAAAAASUVORK5CYII=;fillColor=#FFE45E;strokeColor=#FF6392;fontColor=#5AA9E6;" vertex="1" parent="1">
          <mxGeometry x="255" y="94.64" width="330" height="96.21" as="geometry" />
        </mxCell>
        <mxCell id="a4GrzqRWb2ZUkxZBiZph-19" value="MIDI_File" style="text;html=1;align=center;verticalAlign=middle;resizable=0;points=[];autosize=1;strokeColor=none;fillColor=none;labelBackgroundColor=none;fontColor=#5AA9E6;" vertex="1" parent="1">
          <mxGeometry x="380" y="5" width="70" height="30" as="geometry" />
        </mxCell>
        <mxCell id="a4GrzqRWb2ZUkxZBiZph-23" value="" style="endArrow=classic;html=1;rounded=0;strokeColor=#FF6392;fontColor=#5AA9E6;fillColor=#FFE45E;entryX=0.5;entryY=0;entryDx=0;entryDy=0;" edge="1" parent="1" target="a4GrzqRWb2ZUkxZBiZph-16">
          <mxGeometry relative="1" as="geometry">
            <mxPoint x="420" y="30" as="sourcePoint" />
            <mxPoint x="675" y="54" as="targetPoint" />
          </mxGeometry>
        </mxCell>
        <mxCell id="a4GrzqRWb2ZUkxZBiZph-24" value="" style="edgeLabel;resizable=0;html=1;;align=center;verticalAlign=middle;strokeColor=#FF6392;fontColor=#5AA9E6;fillColor=#FFE45E;" connectable="0" vertex="1" parent="a4GrzqRWb2ZUkxZBiZph-23">
          <mxGeometry relative="1" as="geometry" />
        </mxCell>
        <mxCell id="a4GrzqRWb2ZUkxZBiZph-25" value="MIDI_To_Hex" style="edgeLabel;html=1;align=center;verticalAlign=middle;resizable=0;points=[];strokeColor=#FF6392;fontColor=#5AA9E6;fillColor=#FFE45E;" vertex="1" connectable="0" parent="a4GrzqRWb2ZUkxZBiZph-23">
          <mxGeometry x="0.04" y="2" relative="1" as="geometry">
            <mxPoint x="-3" y="-3" as="offset" />
          </mxGeometry>
        </mxCell>
        <mxCell id="a4GrzqRWb2ZUkxZBiZph-27" value="" style="endArrow=none;dashed=1;html=1;rounded=0;strokeColor=#FF6392;fontColor=#5AA9E6;fillColor=#FFE45E;" edge="1" parent="1">
          <mxGeometry width="50" height="50" relative="1" as="geometry">
            <mxPoint x="160" y="240" as="sourcePoint" />
            <mxPoint x="680" y="240" as="targetPoint" />
          </mxGeometry>
        </mxCell>
        <mxCell id="a4GrzqRWb2ZUkxZBiZph-28" value="" style="endArrow=none;dashed=1;html=1;dashPattern=1 3;strokeWidth=2;rounded=0;strokeColor=#FF6392;fontColor=#5AA9E6;fillColor=#FFE45E;" edge="1" parent="1">
          <mxGeometry width="50" height="50" relative="1" as="geometry">
            <mxPoint x="160" y="240" as="sourcePoint" />
            <mxPoint x="160" y="560" as="targetPoint" />
          </mxGeometry>
        </mxCell>
        <mxCell id="a4GrzqRWb2ZUkxZBiZph-29" value="" style="endArrow=none;dashed=1;html=1;dashPattern=1 3;strokeWidth=2;rounded=0;strokeColor=#FF6392;fontColor=#5AA9E6;fillColor=#FFE45E;" edge="1" parent="1">
          <mxGeometry width="50" height="50" relative="1" as="geometry">
            <mxPoint x="680" y="240" as="sourcePoint" />
            <mxPoint x="680" y="560" as="targetPoint" />
          </mxGeometry>
        </mxCell>
        <mxCell id="a4GrzqRWb2ZUkxZBiZph-30" value="" style="endArrow=none;dashed=1;html=1;rounded=0;strokeColor=#FF6392;fontColor=#5AA9E6;fillColor=#FFE45E;" edge="1" parent="1">
          <mxGeometry width="50" height="50" relative="1" as="geometry">
            <mxPoint x="160" y="560" as="sourcePoint" />
            <mxPoint x="680" y="560" as="targetPoint" />
          </mxGeometry>
        </mxCell>
        <mxCell id="a4GrzqRWb2ZUkxZBiZph-31" value="PROCESS_MIDI_DATA" style="text;html=1;align=center;verticalAlign=middle;resizable=0;points=[];autosize=1;strokeColor=none;fillColor=none;fontColor=#5AA9E6;" vertex="1" parent="1">
          <mxGeometry x="540" y="210" width="150" height="30" as="geometry" />
        </mxCell>
        <mxCell id="a4GrzqRWb2ZUkxZBiZph-34" value="" style="endArrow=classic;html=1;rounded=0;strokeColor=#FF6392;fontColor=#5AA9E6;fillColor=#FFE45E;exitX=0.5;exitY=1;exitDx=0;exitDy=0;" edge="1" parent="1" source="a4GrzqRWb2ZUkxZBiZph-17">
          <mxGeometry relative="1" as="geometry">
            <mxPoint x="415" y="190" as="sourcePoint" />
            <mxPoint x="420" y="240" as="targetPoint" />
          </mxGeometry>
        </mxCell>
        <mxCell id="a4GrzqRWb2ZUkxZBiZph-35" value="" style="edgeLabel;resizable=0;html=1;;align=center;verticalAlign=middle;strokeColor=#FF6392;fontColor=#5AA9E6;fillColor=#FFE45E;" connectable="0" vertex="1" parent="a4GrzqRWb2ZUkxZBiZph-34">
          <mxGeometry relative="1" as="geometry" />
        </mxCell>
        <mxCell id="a4GrzqRWb2ZUkxZBiZph-36" value="MIDI_Note_To_Led" style="edgeLabel;html=1;align=center;verticalAlign=middle;resizable=0;points=[];strokeColor=#FF6392;fontColor=#5AA9E6;fillColor=#FFE45E;" vertex="1" connectable="0" parent="a4GrzqRWb2ZUkxZBiZph-34">
          <mxGeometry x="0.04" y="2" relative="1" as="geometry">
            <mxPoint x="-3" y="-3" as="offset" />
          </mxGeometry>
        </mxCell>
        <mxCell id="a4GrzqRWb2ZUkxZBiZph-37" value="" style="endArrow=classic;html=1;rounded=0;strokeColor=#FF6392;fontColor=#5AA9E6;fillColor=#FFE45E;" edge="1" parent="1" target="a4GrzqRWb2ZUkxZBiZph-39">
          <mxGeometry width="50" height="50" relative="1" as="geometry">
            <mxPoint x="420" y="500" as="sourcePoint" />
            <mxPoint x="420" y="520" as="targetPoint" />
          </mxGeometry>
        </mxCell>
        <mxCell id="a4GrzqRWb2ZUkxZBiZph-39" value="Note played" style="rounded=0;whiteSpace=wrap;html=1;strokeColor=#FF6392;fontColor=#5AA9E6;fillColor=#FFE45E;" vertex="1" parent="1">
          <mxGeometry x="385" y="530" width="70" height="20" as="geometry" />
        </mxCell>
        <mxCell id="a4GrzqRWb2ZUkxZBiZph-40" value="uint32_t color = red" style="rounded=0;whiteSpace=wrap;html=1;strokeColor=#FF6392;fontColor=#5AA9E6;fillColor=#FFE45E;" vertex="1" parent="1">
          <mxGeometry x="255" y="420" width="130" height="60" as="geometry" />
        </mxCell>
        <mxCell id="a4GrzqRWb2ZUkxZBiZph-42" value="Velocity = 0" style="rhombus;whiteSpace=wrap;html=1;strokeColor=#FF6392;fontColor=#5AA9E6;fillColor=#FFE45E;" vertex="1" parent="1">
          <mxGeometry x="380" y="320" width="80" height="80" as="geometry" />
        </mxCell>
        <mxCell id="a4GrzqRWb2ZUkxZBiZph-43" value="Note = LED_Index" style="rounded=0;whiteSpace=wrap;html=1;strokeColor=#FF6392;fontColor=#5AA9E6;fillColor=#FFE45E;" vertex="1" parent="1">
          <mxGeometry x="360" y="240" width="120" height="60" as="geometry" />
        </mxCell>
        <mxCell id="a4GrzqRWb2ZUkxZBiZph-44" value="uint32_t color = none" style="rounded=0;whiteSpace=wrap;html=1;strokeColor=#FF6392;fontColor=#5AA9E6;fillColor=#FFE45E;" vertex="1" parent="1">
          <mxGeometry x="455" y="420" width="130" height="60" as="geometry" />
        </mxCell>
        <mxCell id="a4GrzqRWb2ZUkxZBiZph-46" value="" style="endArrow=none;html=1;rounded=0;strokeColor=#FF6392;fontColor=#5AA9E6;fillColor=#FFE45E;entryX=0;entryY=0.5;entryDx=0;entryDy=0;" edge="1" parent="1" target="a4GrzqRWb2ZUkxZBiZph-42">
          <mxGeometry width="50" height="50" relative="1" as="geometry">
            <mxPoint x="320" y="360" as="sourcePoint" />
            <mxPoint x="380" y="340" as="targetPoint" />
          </mxGeometry>
        </mxCell>
        <mxCell id="a4GrzqRWb2ZUkxZBiZph-47" value="" style="endArrow=none;html=1;rounded=0;strokeColor=#FF6392;fontColor=#5AA9E6;fillColor=#FFE45E;" edge="1" parent="1">
          <mxGeometry width="50" height="50" relative="1" as="geometry">
            <mxPoint x="460" y="360" as="sourcePoint" />
            <mxPoint x="520" y="360" as="targetPoint" />
          </mxGeometry>
        </mxCell>
        <mxCell id="a4GrzqRWb2ZUkxZBiZph-48" value="" style="endArrow=classic;html=1;rounded=0;strokeColor=#FF6392;fontColor=#5AA9E6;fillColor=#FFE45E;entryX=0.5;entryY=0;entryDx=0;entryDy=0;" edge="1" parent="1" target="a4GrzqRWb2ZUkxZBiZph-40">
          <mxGeometry width="50" height="50" relative="1" as="geometry">
            <mxPoint x="320" y="360" as="sourcePoint" />
            <mxPoint x="390" y="360" as="targetPoint" />
          </mxGeometry>
        </mxCell>
        <mxCell id="a4GrzqRWb2ZUkxZBiZph-49" value="" style="endArrow=classic;html=1;rounded=0;strokeColor=#FF6392;fontColor=#5AA9E6;fillColor=#FFE45E;entryX=0.5;entryY=0;entryDx=0;entryDy=0;" edge="1" parent="1">
          <mxGeometry width="50" height="50" relative="1" as="geometry">
            <mxPoint x="519.66" y="360" as="sourcePoint" />
            <mxPoint x="519.66" y="420" as="targetPoint" />
          </mxGeometry>
        </mxCell>
        <mxCell id="a4GrzqRWb2ZUkxZBiZph-50" value="No" style="text;html=1;align=center;verticalAlign=middle;resizable=0;points=[];autosize=1;strokeColor=none;fillColor=none;fontColor=#5AA9E6;" vertex="1" parent="1">
          <mxGeometry x="340" y="340" width="40" height="30" as="geometry" />
        </mxCell>
        <mxCell id="a4GrzqRWb2ZUkxZBiZph-51" value="Yes" style="text;html=1;align=center;verticalAlign=middle;resizable=0;points=[];autosize=1;strokeColor=none;fillColor=none;fontColor=#5AA9E6;" vertex="1" parent="1">
          <mxGeometry x="460" y="340" width="40" height="30" as="geometry" />
        </mxCell>
        <mxCell id="a4GrzqRWb2ZUkxZBiZph-52" value="" style="endArrow=none;html=1;rounded=0;strokeColor=#FF6392;fontColor=#5AA9E6;fillColor=#FFE45E;entryX=0.5;entryY=1;entryDx=0;entryDy=0;" edge="1" parent="1" target="a4GrzqRWb2ZUkxZBiZph-40">
          <mxGeometry width="50" height="50" relative="1" as="geometry">
            <mxPoint x="320" y="500" as="sourcePoint" />
            <mxPoint x="360" y="440" as="targetPoint" />
          </mxGeometry>
        </mxCell>
        <mxCell id="a4GrzqRWb2ZUkxZBiZph-53" value="" style="endArrow=none;html=1;rounded=0;strokeColor=#FF6392;fontColor=#5AA9E6;fillColor=#FFE45E;entryX=0.5;entryY=1;entryDx=0;entryDy=0;" edge="1" parent="1">
          <mxGeometry width="50" height="50" relative="1" as="geometry">
            <mxPoint x="519.76" y="500" as="sourcePoint" />
            <mxPoint x="519.76" y="480" as="targetPoint" />
          </mxGeometry>
        </mxCell>
        <mxCell id="a4GrzqRWb2ZUkxZBiZph-54" value="" style="endArrow=none;html=1;rounded=0;strokeColor=#FF6392;fontColor=#5AA9E6;fillColor=#FFE45E;" edge="1" parent="1">
          <mxGeometry width="50" height="50" relative="1" as="geometry">
            <mxPoint x="320" y="500" as="sourcePoint" />
            <mxPoint x="420" y="500" as="targetPoint" />
          </mxGeometry>
        </mxCell>
        <mxCell id="a4GrzqRWb2ZUkxZBiZph-55" value="" style="endArrow=none;html=1;rounded=0;strokeColor=#FF6392;fontColor=#5AA9E6;fillColor=#FFE45E;" edge="1" parent="1">
          <mxGeometry width="50" height="50" relative="1" as="geometry">
            <mxPoint x="420" y="500" as="sourcePoint" />
            <mxPoint x="520" y="500" as="targetPoint" />
          </mxGeometry>
        </mxCell>
        <mxCell id="a4GrzqRWb2ZUkxZBiZph-56" value="" style="endArrow=classic;html=1;rounded=0;strokeColor=#FF6392;fontColor=#5AA9E6;fillColor=#FFE45E;entryX=0.5;entryY=0;entryDx=0;entryDy=0;exitX=0.5;exitY=1;exitDx=0;exitDy=0;" edge="1" parent="1" source="a4GrzqRWb2ZUkxZBiZph-43" target="a4GrzqRWb2ZUkxZBiZph-42">
          <mxGeometry width="50" height="50" relative="1" as="geometry">
            <mxPoint x="330" y="360" as="sourcePoint" />
            <mxPoint x="380" y="310" as="targetPoint" />
          </mxGeometry>
        </mxCell>
        <mxCell id="a4GrzqRWb2ZUkxZBiZph-57" value="ws2812b_send_buffer" style="text;html=1;align=center;verticalAlign=middle;resizable=0;points=[];autosize=1;strokeColor=none;fillColor=none;fontColor=#5AA9E6;" vertex="1" parent="1">
          <mxGeometry x="414" y="500" width="140" height="30" as="geometry" />
        </mxCell>
        <mxCell id="a4GrzqRWb2ZUkxZBiZph-58" value="" style="endArrow=none;html=1;rounded=0;strokeColor=#FF6392;fontColor=#5AA9E6;fillColor=#FFE45E;entryX=0;entryY=0.5;entryDx=0;entryDy=0;" edge="1" parent="1" target="a4GrzqRWb2ZUkxZBiZph-39">
          <mxGeometry width="50" height="50" relative="1" as="geometry">
            <mxPoint x="210" y="540" as="sourcePoint" />
            <mxPoint x="380" y="460" as="targetPoint" />
          </mxGeometry>
        </mxCell>
        <mxCell id="a4GrzqRWb2ZUkxZBiZph-59" value="" style="endArrow=none;html=1;rounded=0;strokeColor=#FF6392;fontColor=#5AA9E6;fillColor=#FFE45E;" edge="1" parent="1">
          <mxGeometry width="50" height="50" relative="1" as="geometry">
            <mxPoint x="210" y="540" as="sourcePoint" />
            <mxPoint x="210" y="270" as="targetPoint" />
          </mxGeometry>
        </mxCell>
        <mxCell id="a4GrzqRWb2ZUkxZBiZph-60" value="" style="endArrow=classic;html=1;rounded=0;strokeColor=#FF6392;fontColor=#5AA9E6;fillColor=#FFE45E;" edge="1" parent="1">
          <mxGeometry width="50" height="50" relative="1" as="geometry">
            <mxPoint x="210" y="270" as="sourcePoint" />
            <mxPoint x="360" y="270" as="targetPoint" />
          </mxGeometry>
        </mxCell>
      </root>
    </mxGraphModel>
  </diagram>
</mxfile>
